<mxfile host="app.diagrams.net" modified="2024-11-04T19:01:49.060Z" agent="Mozilla/5.0 (Macintosh; Intel Mac OS X 10.15; rv:132.0) Gecko/20100101 Firefox/132.0" etag="0SF0_Bk_LCucepPpgjME" version="24.6.3" type="device">
  <diagram name="Page-1" id="H6TtSw6o4e1RLtdcxlIK">
    <mxGraphModel dx="2074" dy="2208" grid="1" gridSize="10" guides="1" tooltips="1" connect="1" arrows="1" fold="1" page="1" pageScale="1" pageWidth="1800" pageHeight="1011" math="0" shadow="0">
      <root>
        <mxCell id="0" />
        <mxCell id="1" parent="0" />
        <mxCell id="2" value="&lt;b&gt;Schematic - Ansible Edge GitOps Single/Multi-Cloud Management&lt;/b&gt;" style="text;html=1;resizable=0;autosize=0;align=left;verticalAlign=bottom;points=[];fillColor=none;strokeColor=none;rounded=0;fontFamily=Red Hat Text;fontStyle=0;fontSize=30;fontColor=#595959;resizeWidth=0;connectable=0;recursiveResize=0;editable=1;rotatable=0;spacing=0;spacingBottom=-7;movable=1;cloneable=0;imageAspect=0;allowArrows=0;pointerEvents=0;expand=0;" parent="1" vertex="1">
          <mxGeometry x="460" y="-30" width="880" height="80" as="geometry" />
        </mxCell>
        <mxCell id="3" value="" style="verticalLabelPosition=bottom;verticalAlign=top;html=1;shape=mxgraph.basic.rect;fillColor2=none;strokeWidth=1;size=20;indent=5;opacity=20;fontColor=#FFFFFF;strokeColor=#000000;fillColor=#4CB6D6;perimeterSpacing=1;" parent="1" vertex="1">
          <mxGeometry x="260" y="146" width="500" height="664" as="geometry" />
        </mxCell>
        <mxCell id="4" value="&lt;span style=&quot;font-size: 15px;&quot;&gt;&lt;b&gt;Management Plane&lt;/b&gt;&lt;/span&gt;" style="text;html=1;resizable=0;autosize=0;align=left;verticalAlign=bottom;points=[];fillColor=none;strokeColor=none;rounded=0;fontFamily=Red Hat Text;fontStyle=0;fontSize=18;fontColor=#595959;resizeWidth=0;connectable=0;recursiveResize=0;editable=1;rotatable=0;movable=1;deletable=1;cloneable=0;imageAspect=0;spacing=0;spacingBottom=10;allowArrows=0;expand=0;pointerEvents=0;" parent="1" vertex="1">
          <mxGeometry x="270" y="155" width="340" height="30" as="geometry" />
        </mxCell>
        <mxCell id="5" value="" style="group;allowArrows=0;dropTarget=0;recursiveResize=0;expand=0;editable=1;resizable=1;rotatable=1;cloneable=0;fillColor=#ffffff;gradientColor=none;opacity=20;movable=1;deletable=1;connectable=1;" parent="1" vertex="1" connectable="0">
          <mxGeometry x="350" y="200" width="204" height="125" as="geometry" />
        </mxCell>
        <mxCell id="6" value="" style="shape=image;image=data:image/svg+xml,PHN2ZyB4bWxucz0iaHR0cDovL3d3dy53My5vcmcvMjAwMC9zdmciIHdpZHRoPSIyMDBweCIgdmlld0JveD0iLTQgMCAyMDQgMTI1Ij48ZWxsaXBzZSBjeD0iMCIgY3k9IjMwIiByeD0iNCIgcnk9IjQiIGZpbGw9IiNmZmZmZmYiIHN0cm9rZT0ibm9uZSIvPjxlbGxpcHNlIGN4PSIwIiBjeT0iNjAiIHJ4PSI0IiByeT0iNCIgZmlsbD0iI2ZmZmZmZiIgc3Ryb2tlPSJub25lIi8+PGVsbGlwc2UgY3g9IjAiIGN5PSI5MCIgcng9IjQiIHJ5PSI0IiBmaWxsPSIjZmZmZmZmIiBzdHJva2U9Im5vbmUiLz48ZWxsaXBzZSBjeD0iMzMiIGN5PSIxMjEiIHJ4PSI0IiByeT0iNCIgZmlsbD0iI2NkY2VjZSIgc3Ryb2tlPSJub25lIi8+PGVsbGlwc2UgY3g9IjkwIiBjeT0iMTIxIiByeD0iNCIgcnk9IjQiIGZpbGw9IiNjZGNlY2UiIHN0cm9rZT0ibm9uZSIvPjxlbGxpcHNlIGN4PSIxNDciIGN5PSIxMjEiIHJ4PSI0IiByeT0iNCIgZmlsbD0iI2NkY2VjZSIgc3Ryb2tlPSJub25lIi8+PGc+PHJlY3QgeD0iNCIgeT0iNCIgd2lkdGg9IjE5NiIgaGVpZ2h0PSIxMTYiIGZpbGw9IiNjZGNlY2UiIHN0cm9rZT0ibm9uZSIvPjxyZWN0IHg9IjAiIHk9IjAiIHdpZHRoPSIxODAiIGhlaWdodD0iMTE2IiBmaWxsPSIjZmZmZmZmIiBzdHJva2U9Im5vbmUiLz48ZWxsaXBzZSBjeD0iMTkwIiBjeT0iMzAiIHJ4PSI0IiByeT0iNCIgZmlsbD0iI2FlYWVhZSIgc3Ryb2tlPSJub25lIi8+PGVsbGlwc2UgY3g9IjE5MCIgY3k9IjYwIiByeD0iNCIgcnk9IjQiIGZpbGw9IiNhZWFlYWUiIHN0cm9rZT0ibm9uZSIvPjxlbGxpcHNlIGN4PSIxOTAiIGN5PSI5MCIgcng9IjQiIHJ5PSI0IiBmaWxsPSIjYWVhZWFlIiBzdHJva2U9Im5vbmUiLz48L2c+PC9zdmc+;connectable=0;allowArrows=0;recursiveResize=0;expand=0;rotatable=0;cloneable=0;editable=0;movable=0;resizable=0;deletable=0;part=1;" parent="5" vertex="1">
          <mxGeometry width="204" height="125" as="geometry" />
        </mxCell>
        <mxCell id="7" value="Cluster Management" style="whiteSpace=wrap;html=1;fillColor=#43ADAF;strokeColor=#43ADAF;fontColor=#FFFFFF;movable=0;resizable=0;rotatable=0;cloneable=0;deletable=0;imageAspect=0;connectable=0;recursiveResize=0;fontFamily=Red Hat Text;fontStyle=1;align=left;fontSize=12;spacingLeft=10;spacingRight=50;allowArrows=0;expand=0;part=1;" parent="5" vertex="1">
          <mxGeometry x="14" y="10" width="160" height="40" as="geometry" />
        </mxCell>
        <mxCell id="8" value="" style="shape=image;image=data:image/svg+xml,PHN2ZyBpZD0iYmEwYTNkMTUtZTEzZS00NmQzLTljNzEtNTg3ZDg0OTQxM2M5IiBkYXRhLW5hbWU9Ikljb24iIHhtbG5zPSJodHRwOi8vd3d3LnczLm9yZy8yMDAwL3N2ZyIgdmlld0JveD0iMCAwIDM2IDM2Ij48cmVjdCB3aWR0aD0iMTAwJSIgaGVpZ2h0PSIxMDAlIiBmaWxsPSIjNDNhZGFmIi8+PGRlZnM+PHN0eWxlPi5iYzcyMDM4Yi1jNjAxLTRlNDctOGE5Mi1jOTA0MjAwOTY3NjIge2ZpbGw6ICNmZmY7fTwvc3R5bGU+PC9kZWZzPjxwYXRoIGNsYXNzPSJiYzcyMDM4Yi1jNjAxLTRlNDctOGE5Mi1jOTA0MjAwOTY3NjIiIGQ9Ik0zMC42NywyMi41MWE1LjEsNS4xLDAsMCwwLTIuMDUtOXYwQTkuMTIsOS4xMiwwLDAsMCwxMS4zNCw5LjQzLDcuMSw3LjEsMCwwLDAsNC42MiwyMC40OCw3LjEyLDcuMTIsMCwwLDAsMTAuNSwzMS42MkgyOGEuNzUuNzUsMCwwLDAsLjI2LS4wNSw1LjEsNS4xLDAsMCwwLDIuNDEtOS4wNlptLTI2LTZhNS44NCw1Ljg0LDAsMCwxLDctNS43Ny42NC42NCwwLDAsMCwuNjktLjM2LDcuODcsNy44NywwLDAsMSwxNS4xLDMuMTNjMCwuMTMsMCwuMjYsMCwuMzlWMTRhLjYzLjYzLDAsMCwwLC41Ni42NiwzLjg1LDMuODUsMCwwLDEsMS41OSw3LjE0LDUsNSwwLDAsMC0uODgtLjI5djBhOS4xMiw5LjEyLDAsMCwwLTE3LjI4LTQuMDcsNyw3LDAsMCwwLTUuODksMkE1LjczLDUuNzMsMCwwLDEsNC42MiwxNi41Wk0yNy41LDMwLjM4aC0xN2E1Ljg4LDUuODgsMCwxLDEsMS4wOS0xMS42NS42My42MywwLDAsMCwuNjktLjM2LDcuODcsNy44NywwLDAsMSwxNS4xLDMuMTNjMCwuMTMsMCwuMjYsMCwuMzlWMjJhLjYzLjYzLDAsMCwwLC41Ni42NiwzLjg3LDMuODcsMCwwLDEtLjQxLDcuNzFaIi8+PC9zdmc+;recursiveResize=0;editable=0;resizable=0;rotatable=0;cloneable=0;imageAspect=0;connectable=0;movable=1;fontFamily=Helvetica;fontSize=12;fontColor=#000000;align=center;strokeColor=#000000;fillColor=#ffffff;part=1;" parent="5" vertex="1">
          <mxGeometry x="134" y="10" width="40" height="40" as="geometry" />
        </mxCell>
        <mxCell id="9" value="RHACM" style="whiteSpace=wrap;html=1;fillColor=none;strokeColor=none;align=left;fontFamily=Red Hat Text;fontSize=11;fontStyle=0;verticalAlign=bottom;fontColor=#595959;movable=0;rotatable=0;cloneable=0;deletable=1;connectable=0;imageAspect=0;recursiveResize=0;resizable=0;allowArrows=0;expand=0;part=1;" parent="5" vertex="1">
          <mxGeometry x="14" y="58" width="130" height="48" as="geometry" />
        </mxCell>
        <mxCell id="10" value="" style="ellipse;allowArrows=1;editable=0;movable=0;resizable=0;rotatable=0;cloneable=0;deletable=0;fillColor=none;strokeColor=none;connectable=1;part=1;perimeter=none;points=[[0,0,0]];snapToPoint=1;" parent="5" vertex="1">
          <mxGeometry x="4" y="30" width="1" height="1" as="geometry" />
        </mxCell>
        <mxCell id="11" value="" style="ellipse;allowArrows=1;editable=0;movable=0;resizable=0;rotatable=0;cloneable=0;deletable=0;fillColor=none;strokeColor=none;connectable=1;part=1;perimeter=none;points=[[0,0,0]];snapToPoint=1;" parent="5" vertex="1">
          <mxGeometry x="4" y="60" width="1" height="1" as="geometry" />
        </mxCell>
        <mxCell id="12" value="" style="ellipse;allowArrows=1;editable=0;movable=0;resizable=0;rotatable=0;cloneable=0;deletable=0;fillColor=none;strokeColor=none;connectable=1;part=1;perimeter=none;points=[[0,0,0]];snapToPoint=1;" parent="5" vertex="1">
          <mxGeometry x="4" y="90" width="1" height="1" as="geometry" />
        </mxCell>
        <mxCell id="13" value="" style="ellipse;allowArrows=1;editable=0;movable=0;resizable=0;rotatable=0;cloneable=0;deletable=0;fillColor=none;strokeColor=none;connectable=1;part=1;perimeter=none;points=[[0,0,0]];snapToPoint=1;" parent="5" vertex="1">
          <mxGeometry x="37" y="121" width="1" height="1" as="geometry" />
        </mxCell>
        <mxCell id="14" value="" style="ellipse;allowArrows=1;editable=0;movable=0;resizable=0;rotatable=0;cloneable=0;deletable=0;fillColor=none;strokeColor=none;connectable=1;part=1;perimeter=none;points=[[0,0,0]];snapToPoint=1;" parent="5" vertex="1">
          <mxGeometry x="94" y="121" width="1" height="1" as="geometry" />
        </mxCell>
        <mxCell id="15" value="" style="ellipse;allowArrows=1;editable=0;movable=0;resizable=0;rotatable=0;cloneable=0;deletable=0;fillColor=none;strokeColor=none;connectable=1;part=1;perimeter=none;points=[[0,0,0]];snapToPoint=1;" parent="5" vertex="1">
          <mxGeometry x="151" y="121" width="1" height="1" as="geometry" />
        </mxCell>
        <mxCell id="16" value="" style="ellipse;allowArrows=1;editable=0;movable=0;resizable=0;rotatable=0;cloneable=0;deletable=0;fillColor=none;strokeColor=none;connectable=1;part=1;perimeter=none;points=[[0,0,0]];snapToPoint=1;" parent="5" vertex="1">
          <mxGeometry x="194" y="30" width="1" height="1" as="geometry" />
        </mxCell>
        <mxCell id="17" value="" style="ellipse;allowArrows=1;editable=0;movable=0;resizable=0;rotatable=0;cloneable=0;deletable=0;fillColor=none;strokeColor=none;connectable=1;part=1;perimeter=none;points=[[0,0,0]];snapToPoint=1;" parent="5" vertex="1">
          <mxGeometry x="194" y="60" width="1" height="1" as="geometry" />
        </mxCell>
        <mxCell id="18" value="" style="ellipse;allowArrows=1;editable=0;movable=0;resizable=0;rotatable=0;cloneable=0;deletable=0;fillColor=none;strokeColor=none;connectable=1;part=1;perimeter=none;points=[[0,0,0]];snapToPoint=1;" parent="5" vertex="1">
          <mxGeometry x="194" y="90" width="1" height="1" as="geometry" />
        </mxCell>
        <mxCell id="19" value="&lt;font style=&quot;font-size: 15px;&quot;&gt;Control plane&lt;/font&gt;" style="rounded=0;shadow=0;fillColor=#ffffff;strokeColor=#000000;fillOpacity=100;strokeOpacity=100;html=1;fontStyle=1;whiteSpace=wrap;align=left;verticalAlign=top;spacingTop=5;spacingLeft=10;spacingRight=10;spacingBottom=10;fontFamily=Red Hat Text;fontSize=10;editable=1;movable=1;rotatable=0;cloneable=0;deletable=1;connectable=0;recursiveResize=0;dashed=1;" parent="1" vertex="1">
          <mxGeometry x="680" y="815" width="1080" height="190" as="geometry" />
        </mxCell>
        <mxCell id="20" value="" style="group;allowArrows=0;dropTarget=0;recursiveResize=0;expand=0;editable=1;resizable=1;rotatable=1;cloneable=0;fillColor=#ffffff;gradientColor=none;opacity=20;movable=1;deletable=1;connectable=1;" parent="1" vertex="1" connectable="0">
          <mxGeometry x="1530" y="850" width="204" height="125" as="geometry" />
        </mxCell>
        <mxCell id="21" value="" style="shape=image;image=data:image/svg+xml,PHN2ZyB4bWxucz0iaHR0cDovL3d3dy53My5vcmcvMjAwMC9zdmciIHdpZHRoPSIyMDBweCIgdmlld0JveD0iLTQgMCAyMDQgMTI1Ij48ZWxsaXBzZSBjeD0iMCIgY3k9IjMwIiByeD0iNCIgcnk9IjQiIGZpbGw9IiNmZmZmZmYiIHN0cm9rZT0ibm9uZSIvPjxlbGxpcHNlIGN4PSIwIiBjeT0iNjAiIHJ4PSI0IiByeT0iNCIgZmlsbD0iI2ZmZmZmZiIgc3Ryb2tlPSJub25lIi8+PGVsbGlwc2UgY3g9IjAiIGN5PSI5MCIgcng9IjQiIHJ5PSI0IiBmaWxsPSIjZmZmZmZmIiBzdHJva2U9Im5vbmUiLz48ZWxsaXBzZSBjeD0iMzMiIGN5PSIxMjEiIHJ4PSI0IiByeT0iNCIgZmlsbD0iI2NkY2VjZSIgc3Ryb2tlPSJub25lIi8+PGVsbGlwc2UgY3g9IjkwIiBjeT0iMTIxIiByeD0iNCIgcnk9IjQiIGZpbGw9IiNjZGNlY2UiIHN0cm9rZT0ibm9uZSIvPjxlbGxpcHNlIGN4PSIxNDciIGN5PSIxMjEiIHJ4PSI0IiByeT0iNCIgZmlsbD0iI2NkY2VjZSIgc3Ryb2tlPSJub25lIi8+PGc+PHJlY3QgeD0iNCIgeT0iNCIgd2lkdGg9IjE5NiIgaGVpZ2h0PSIxMTYiIGZpbGw9IiNjZGNlY2UiIHN0cm9rZT0ibm9uZSIvPjxyZWN0IHg9IjAiIHk9IjAiIHdpZHRoPSIxODAiIGhlaWdodD0iMTE2IiBmaWxsPSIjZmZmZmZmIiBzdHJva2U9Im5vbmUiLz48cmVjdCB4PSIzIiB5PSIzIiB3aWR0aD0iMTc0IiBoZWlnaHQ9IjExMCIgZmlsbD0ibm9uZSIgc3Ryb2tlPSIjY2RjZWNlIi8+PGVsbGlwc2UgY3g9IjE5MCIgY3k9IjMwIiByeD0iNCIgcnk9IjQiIGZpbGw9IiNhZWFlYWUiIHN0cm9rZT0ibm9uZSIvPjxlbGxpcHNlIGN4PSIxOTAiIGN5PSI2MCIgcng9IjQiIHJ5PSI0IiBmaWxsPSIjYWVhZWFlIiBzdHJva2U9Im5vbmUiLz48ZWxsaXBzZSBjeD0iMTkwIiBjeT0iOTAiIHJ4PSI0IiByeT0iNCIgZmlsbD0iI2FlYWVhZSIgc3Ryb2tlPSJub25lIi8+PC9nPjwvc3ZnPg==;connectable=0;allowArrows=0;recursiveResize=0;expand=0;rotatable=0;cloneable=0;editable=0;movable=0;resizable=0;deletable=0;part=1;" parent="20" vertex="1">
          <mxGeometry width="204" height="125" as="geometry" />
        </mxCell>
        <mxCell id="22" value="ControlPlane Node" style="whiteSpace=wrap;html=1;fillColor=#43ADAF;strokeColor=#43ADAF;fontColor=#FFFFFF;movable=0;resizable=0;rotatable=0;cloneable=0;deletable=0;imageAspect=0;connectable=0;recursiveResize=0;fontFamily=Red Hat Text;fontStyle=1;align=left;fontSize=12;spacingLeft=10;spacingRight=50;allowArrows=0;expand=0;part=1;" parent="20" vertex="1">
          <mxGeometry x="14" y="10" width="160" height="40" as="geometry" />
        </mxCell>
        <mxCell id="23" value="" style="shape=image;image=data:image/svg+xml,PHN2ZyBpZD0iYjA3OWY5YjItNTZiOC00NWI5LTliMzItMTY1ZDYwZWQ4YWZiIiBkYXRhLW5hbWU9Ikljb24iIHhtbG5zPSJodHRwOi8vd3d3LnczLm9yZy8yMDAwL3N2ZyIgdmlld0JveD0iMCAwIDM2IDM2Ij48ZGVmcz48c3R5bGU+LmFkOTc1MWY3LTEyM2UtNGNlNC1hOTQ5LTA1OTM1NDc4NTE5NSB7ZmlsbDogI2ZmZjt9PC9zdHlsZT48L2RlZnM+PGc+PHJlY3Qgd2lkdGg9IjEwMCUiIGhlaWdodD0iMTAwJSIgZmlsbD0iIzQzYWRhZiIvPjxwYXRoIGNsYXNzPSJhZDk3NTFmNy0xMjNlLTRjZTQtYTk0OS0wNTkzNTQ3ODUxOTUiIGQ9Ik0zMSwxMi4zOEg1YS42My42MywwLDAsMC0uNjMuNjJWMjNhLjYzLjYzLDAsMCwwLC42My42MkgzMWEuNjIuNjIsMCwwLDAsLjYyLS42MlYxM0EuNjIuNjIsMCwwLDAsMzEsMTIuMzhabS0uNjMsMTBINS42MlYxMy42MkgzMC4zN1oiLz48cGF0aCBjbGFzcz0iYWQ5NzUxZjctMTIzZS00Y2U0LWE5NDktMDU5MzU0Nzg1MTk1IiBkPSJNOSwxOC42Mmg2YS42Mi42MiwwLDAsMCwwLTEuMjRIOWEuNjIuNjIsMCwxLDAsMCwxLjI0WiIvPjxwYXRoIGNsYXNzPSJhZDk3NTFmNy0xMjNlLTRjZTQtYTk0OS0wNTkzNTQ3ODUxOTUiIGQ9Ik0yNC4yLDI0Ljg5YS42My42MywwLDEsMCwuNjMuNjJBLjYyLjYyLDAsMCwwLDI0LjIsMjQuODlaIi8+PHBhdGggY2xhc3M9ImFkOTc1MWY3LTEyM2UtNGNlNC1hOTQ5LTA1OTM1NDc4NTE5NSIgZD0iTTguNywyNC44OWEuNjMuNjMsMCwxLDAsLjYyLjYyQS42My42MywwLDAsMCw4LjcsMjQuODlaIi8+PHBhdGggY2xhc3M9ImFkOTc1MWY3LTEyM2UtNGNlNC1hOTQ5LTA1OTM1NDc4NTE5NSIgZD0iTTE4LDI0Ljg5YS42My42MywwLDAsMCwwLDEuMjUuNjMuNjMsMCwwLDAsMC0xLjI1WiIvPjxwYXRoIGNsYXNzPSJhZDk3NTFmNy0xMjNlLTRjZTQtYTk0OS0wNTkzNTQ3ODUxOTUiIGQ9Ik0yNy4zLDI0Ljg5YS42My42MywwLDEsMCwuNjMuNjJBLjYyLjYyLDAsMCwwLDI3LjMsMjQuODlaIi8+PHBhdGggY2xhc3M9ImFkOTc1MWY3LTEyM2UtNGNlNC1hOTQ5LTA1OTM1NDc4NTE5NSIgZD0iTTIxLjEsMjQuODlhLjYzLjYzLDAsMSwwLC42My42MkEuNjMuNjMsMCwwLDAsMjEuMSwyNC44OVoiLz48cGF0aCBjbGFzcz0iYWQ5NzUxZjctMTIzZS00Y2U0LWE5NDktMDU5MzU0Nzg1MTk1IiBkPSJNNS42LDI0Ljg5YS42My42MywwLDEsMCwuNjIuNjJBLjYzLjYzLDAsMCwwLDUuNiwyNC44OVoiLz48cGF0aCBjbGFzcz0iYWQ5NzUxZjctMTIzZS00Y2U0LWE5NDktMDU5MzU0Nzg1MTk1IiBkPSJNMzAuNCwyNC44OWEuNjMuNjMsMCwxLDAsLjYzLjYyQS42Mi42MiwwLDAsMCwzMC40LDI0Ljg5WiIvPjxwYXRoIGNsYXNzPSJhZDk3NTFmNy0xMjNlLTRjZTQtYTk0OS0wNTkzNTQ3ODUxOTUiIGQ9Ik0xMS44LDI0Ljg5YS42My42MywwLDEsMCwuNjIuNjJBLjYzLjYzLDAsMCwwLDExLjgsMjQuODlaIi8+PHBhdGggY2xhc3M9ImFkOTc1MWY3LTEyM2UtNGNlNC1hOTQ5LTA1OTM1NDc4NTE5NSIgZD0iTTE0LjksMjQuODlhLjYzLjYzLDAsMSwwLC42Mi42MkEuNjMuNjMsMCwwLDAsMTQuOSwyNC44OVoiLz48cGF0aCBjbGFzcz0iYWQ5NzUxZjctMTIzZS00Y2U0LWE5NDktMDU5MzU0Nzg1MTk1IiBkPSJNMi41LDEyLjg3YS42My42MywwLDEsMCwuNjIuNjJBLjYzLjYzLDAsMCwwLDIuNSwxMi44N1oiLz48cGF0aCBjbGFzcz0iYWQ5NzUxZjctMTIzZS00Y2U0LWE5NDktMDU5MzU0Nzg1MTk1IiBkPSJNMi41LDIxLjg4YS42My42MywwLDEsMCwuNjIuNjNBLjYzLjYzLDAsMCwwLDIuNSwyMS44OFoiLz48cGF0aCBjbGFzcz0iYWQ5NzUxZjctMTIzZS00Y2U0LWE5NDktMDU5MzU0Nzg1MTk1IiBkPSJNMi41LDE1Ljg3YS42My42MywwLDEsMCwuNjIuNjNBLjYzLjYzLDAsMCwwLDIuNSwxNS44N1oiLz48cGF0aCBjbGFzcz0iYWQ5NzUxZjctMTIzZS00Y2U0LWE5NDktMDU5MzU0Nzg1MTk1IiBkPSJNMi41LDE4Ljg4YS42My42MywwLDEsMCwuNjIuNjJBLjYzLjYzLDAsMCwwLDIuNSwxOC44OFoiLz48cGF0aCBjbGFzcz0iYWQ5NzUxZjctMTIzZS00Y2U0LWE5NDktMDU5MzU0Nzg1MTk1IiBkPSJNOC43LDExLjExYS42My42MywwLDEsMC0uNjMtLjYyQS42Mi42MiwwLDAsMCw4LjcsMTEuMTFaIi8+PHBhdGggY2xhc3M9ImFkOTc1MWY3LTEyM2UtNGNlNC1hOTQ5LTA1OTM1NDc4NTE5NSIgZD0iTTExLjgsMTEuMTFhLjYzLjYzLDAsMSwwLS42My0uNjJBLjYyLjYyLDAsMCwwLDExLjgsMTEuMTFaIi8+PHBhdGggY2xhc3M9ImFkOTc1MWY3LTEyM2UtNGNlNC1hOTQ5LTA1OTM1NDc4NTE5NSIgZD0iTTE0LjksMTEuMTFhLjYzLjYzLDAsMSwwLS42My0uNjJBLjYyLjYyLDAsMCwwLDE0LjksMTEuMTFaIi8+PHBhdGggY2xhc3M9ImFkOTc1MWY3LTEyM2UtNGNlNC1hOTQ5LTA1OTM1NDc4NTE5NSIgZD0iTTI0LjIsMTEuMTFhLjYzLjYzLDAsMSwwLS42Mi0uNjJBLjYzLjYzLDAsMCwwLDI0LjIsMTEuMTFaIi8+PHBhdGggY2xhc3M9ImFkOTc1MWY3LTEyM2UtNGNlNC1hOTQ5LTA1OTM1NDc4NTE5NSIgZD0iTTIxLjEsMTEuMTFhLjYzLjYzLDAsMSwwLS42Mi0uNjJBLjYzLjYzLDAsMCwwLDIxLjEsMTEuMTFaIi8+PHBhdGggY2xhc3M9ImFkOTc1MWY3LTEyM2UtNGNlNC1hOTQ5LTA1OTM1NDc4NTE5NSIgZD0iTTE4LDExLjExYS42My42MywwLDEsMC0uNjMtLjYyQS42My42MywwLDAsMCwxOCwxMS4xMVoiLz48cGF0aCBjbGFzcz0iYWQ5NzUxZjctMTIzZS00Y2U0LWE5NDktMDU5MzU0Nzg1MTk1IiBkPSJNMjcuMywxMS4xMWEuNjMuNjMsMCwxLDAtLjYyLS42MkEuNjMuNjMsMCwwLDAsMjcuMywxMS4xMVoiLz48cGF0aCBjbGFzcz0iYWQ5NzUxZjctMTIzZS00Y2U0LWE5NDktMDU5MzU0Nzg1MTk1IiBkPSJNMzAuNCwxMS4xMWEuNjMuNjMsMCwxLDAtLjYyLS42MkEuNjMuNjMsMCwwLDAsMzAuNCwxMS4xMVoiLz48cGF0aCBjbGFzcz0iYWQ5NzUxZjctMTIzZS00Y2U0LWE5NDktMDU5MzU0Nzg1MTk1IiBkPSJNNS42LDExLjExQS42My42MywwLDEsMCw1LDEwLjQ5LjYyLjYyLDAsMCwwLDUuNiwxMS4xMVoiLz48cGF0aCBjbGFzcz0iYWQ5NzUxZjctMTIzZS00Y2U0LWE5NDktMDU5MzU0Nzg1MTk1IiBkPSJNMzMuNSwxOC44OGEuNjIuNjIsMCwwLDAtLjYyLjYyLjYzLjYzLDAsMSwwLDEuMjUsMEEuNjIuNjIsMCwwLDAsMzMuNSwxOC44OFoiLz48cGF0aCBjbGFzcz0iYWQ5NzUxZjctMTIzZS00Y2U0LWE5NDktMDU5MzU0Nzg1MTk1IiBkPSJNMzMuNSwyMS44OGEuNjMuNjMsMCwxLDAsLjYzLjYzQS42My42MywwLDAsMCwzMy41LDIxLjg4WiIvPjxwYXRoIGNsYXNzPSJhZDk3NTFmNy0xMjNlLTRjZTQtYTk0OS0wNTkzNTQ3ODUxOTUiIGQ9Ik0zMy41LDEyLjg3YS42My42MywwLDEsMCwuNjMuNjJBLjYyLjYyLDAsMCwwLDMzLjUsMTIuODdaIi8+PHBhdGggY2xhc3M9ImFkOTc1MWY3LTEyM2UtNGNlNC1hOTQ5LTA1OTM1NDc4NTE5NSIgZD0iTTMzLjUsMTUuODdhLjYzLjYzLDAsMSwwLC42My42M0EuNjMuNjMsMCwwLDAsMzMuNSwxNS44N1oiLz48cGF0aCBjbGFzcz0iYWQ5NzUxZjctMTIzZS00Y2U0LWE5NDktMDU5MzU0Nzg1MTk1IiBkPSJNMzMuNSw5Ljg2YS42My42MywwLDEsMCwuNjMuNjJBLjYyLjYyLDAsMCwwLDMzLjUsOS44NloiLz48cGF0aCBjbGFzcz0iYWQ5NzUxZjctMTIzZS00Y2U0LWE5NDktMDU5MzU0Nzg1MTk1IiBkPSJNMi40OSw5Ljg2YS42My42MywwLDEsMCwuNjMuNjJBLjYyLjYyLDAsMCwwLDIuNDksOS44NloiLz48cGF0aCBjbGFzcz0iYWQ5NzUxZjctMTIzZS00Y2U0LWE5NDktMDU5MzU0Nzg1MTk1IiBkPSJNMi40OSwyNC44OWEuNjMuNjMsMCwxLDAsLjYzLjYyQS42Mi42MiwwLDAsMCwyLjQ5LDI0Ljg5WiIvPjxwYXRoIGNsYXNzPSJhZDk3NTFmNy0xMjNlLTRjZTQtYTk0OS0wNTkzNTQ3ODUxOTUiIGQ9Ik0zMy41LDI0Ljg5YS42My42MywwLDEsMCwuNjMuNjJBLjYyLjYyLDAsMCwwLDMzLjUsMjQuODlaIi8+PHBhdGggY2xhc3M9ImFkOTc1MWY3LTEyM2UtNGNlNC1hOTQ5LTA1OTM1NDc4NTE5NSIgZD0iTTI3LDE3LjM3YS42My42MywwLDEsMCwuNjMuNjJBLjYyLjYyLDAsMCwwLDI3LDE3LjM3WiIvPjwvZz48L3N2Zz4=;recursiveResize=0;editable=0;resizable=0;rotatable=0;cloneable=0;imageAspect=0;connectable=0;movable=1;fontFamily=Helvetica;fontSize=12;fontColor=#000000;align=center;strokeColor=#000000;fillColor=#ffffff;part=1;" parent="20" vertex="1">
          <mxGeometry x="134" y="10" width="40" height="40" as="geometry" />
        </mxCell>
        <mxCell id="24" value="RHCOS" style="whiteSpace=wrap;html=1;fillColor=none;strokeColor=none;align=left;fontFamily=Red Hat Text;fontSize=11;fontStyle=0;verticalAlign=bottom;fontColor=#595959;movable=0;rotatable=0;cloneable=0;deletable=1;connectable=0;imageAspect=0;recursiveResize=0;resizable=0;allowArrows=0;expand=0;part=1;" parent="20" vertex="1">
          <mxGeometry x="14" y="58" width="130" height="48" as="geometry" />
        </mxCell>
        <mxCell id="25" value="" style="ellipse;allowArrows=1;editable=0;movable=0;resizable=0;rotatable=0;cloneable=0;deletable=0;fillColor=none;strokeColor=none;connectable=1;part=1;perimeter=none;points=[[0,0,0]];snapToPoint=1;" parent="20" vertex="1">
          <mxGeometry x="4" y="30" width="1" height="1" as="geometry" />
        </mxCell>
        <mxCell id="26" value="" style="ellipse;allowArrows=1;editable=0;movable=0;resizable=0;rotatable=0;cloneable=0;deletable=0;fillColor=none;strokeColor=none;connectable=1;part=1;perimeter=none;points=[[0,0,0]];snapToPoint=1;" parent="20" vertex="1">
          <mxGeometry x="4" y="60" width="1" height="1" as="geometry" />
        </mxCell>
        <mxCell id="27" value="" style="ellipse;allowArrows=1;editable=0;movable=0;resizable=0;rotatable=0;cloneable=0;deletable=0;fillColor=none;strokeColor=none;connectable=1;part=1;perimeter=none;points=[[0,0,0]];snapToPoint=1;" parent="20" vertex="1">
          <mxGeometry x="4" y="90" width="1" height="1" as="geometry" />
        </mxCell>
        <mxCell id="28" value="" style="ellipse;allowArrows=1;editable=0;movable=0;resizable=0;rotatable=0;cloneable=0;deletable=0;fillColor=none;strokeColor=none;connectable=1;part=1;perimeter=none;points=[[0,0,0]];snapToPoint=1;" parent="20" vertex="1">
          <mxGeometry x="37" y="121" width="1" height="1" as="geometry" />
        </mxCell>
        <mxCell id="29" value="" style="ellipse;allowArrows=1;editable=0;movable=0;resizable=0;rotatable=0;cloneable=0;deletable=0;fillColor=none;strokeColor=none;connectable=1;part=1;perimeter=none;points=[[0,0,0]];snapToPoint=1;" parent="20" vertex="1">
          <mxGeometry x="94" y="121" width="1" height="1" as="geometry" />
        </mxCell>
        <mxCell id="30" value="" style="ellipse;allowArrows=1;editable=0;movable=0;resizable=0;rotatable=0;cloneable=0;deletable=0;fillColor=none;strokeColor=none;connectable=1;part=1;perimeter=none;points=[[0,0,0]];snapToPoint=1;" parent="20" vertex="1">
          <mxGeometry x="151" y="121" width="1" height="1" as="geometry" />
        </mxCell>
        <mxCell id="31" value="" style="ellipse;allowArrows=1;editable=0;movable=0;resizable=0;rotatable=0;cloneable=0;deletable=0;fillColor=none;strokeColor=none;connectable=1;part=1;perimeter=none;points=[[0,0,0]];snapToPoint=1;" parent="20" vertex="1">
          <mxGeometry x="194" y="30" width="1" height="1" as="geometry" />
        </mxCell>
        <mxCell id="32" value="" style="ellipse;allowArrows=1;editable=0;movable=0;resizable=0;rotatable=0;cloneable=0;deletable=0;fillColor=none;strokeColor=none;connectable=1;part=1;perimeter=none;points=[[0,0,0]];snapToPoint=1;" parent="20" vertex="1">
          <mxGeometry x="194" y="60" width="1" height="1" as="geometry" />
        </mxCell>
        <mxCell id="33" value="" style="ellipse;allowArrows=1;editable=0;movable=0;resizable=0;rotatable=0;cloneable=0;deletable=0;fillColor=none;strokeColor=none;connectable=1;part=1;perimeter=none;points=[[0,0,0]];snapToPoint=1;" parent="20" vertex="1">
          <mxGeometry x="194" y="90" width="1" height="1" as="geometry" />
        </mxCell>
        <mxCell id="34" value="" style="group;allowArrows=0;dropTarget=0;recursiveResize=0;expand=0;editable=1;resizable=1;rotatable=1;cloneable=0;dashed=1;labelBackgroundColor=none;fillColor=#ffffff;movable=1;deletable=1;locked=0;connectable=1;" parent="1" vertex="1" connectable="0">
          <mxGeometry x="10" y="485" width="204" height="125" as="geometry" />
        </mxCell>
        <mxCell id="35" value="" style="shape=image;image=data:image/svg+xml,PHN2ZyB4bWxucz0iaHR0cDovL3d3dy53My5vcmcvMjAwMC9zdmciIHdpZHRoPSIyMDBweCIgdmlld0JveD0iLTQgMCAyMDQgMTI1Ij48Zz48cmVjdCB4PSI0IiB5PSI0IiB3aWR0aD0iMTk2IiBoZWlnaHQ9IjkwIiBmaWxsPSIjY2RjZWNlIiBzdHJva2U9Im5vbmUiLz48cmVjdCB4PSIwIiB5PSIwIiB3aWR0aD0iMTgwIiBoZWlnaHQ9IjkwIiBmaWxsPSIjZmZmZmZmIiBzdHJva2U9Im5vbmUiLz48ZWxsaXBzZSBjeD0iMCIgY3k9IjMxIiByeD0iNCIgcnk9IjQiIGZpbGw9IiNmZmZmZmYiIHN0cm9rZT0ibm9uZSIvPjxlbGxpcHNlIGN4PSIwIiBjeT0iNjYiIHJ4PSI0IiByeT0iNCIgZmlsbD0iI2ZmZmZmZiIgc3Ryb2tlPSJub25lIi8+PGVsbGlwc2UgY3g9IjMzIiBjeT0iMTIxIiByeD0iNCIgcnk9IjQiIGZpbGw9IiNjZGNlY2UiIHN0cm9rZT0ibm9uZSIvPjxlbGxpcHNlIGN4PSI5MCIgY3k9IjEyMSIgcng9IjQiIHJ5PSI0IiBmaWxsPSIjY2RjZWNlIiBzdHJva2U9Im5vbmUiLz48ZWxsaXBzZSBjeD0iMTQ3IiBjeT0iMTIxIiByeD0iNCIgcnk9IjQiIGZpbGw9IiNjZGNlY2UiIHN0cm9rZT0ibm9uZSIvPjxlbGxpcHNlIGN4PSIxOTAiIGN5PSIzMSIgcng9IjQiIHJ5PSI0IiBmaWxsPSIjYWVhZWFlIiBzdHJva2U9Im5vbmUiLz48ZWxsaXBzZSBjeD0iMTkwIiBjeT0iNjYiIHJ4PSI0IiByeT0iNCIgZmlsbD0iI2FlYWVhZSIgc3Ryb2tlPSJub25lIi8+PHJlY3QgeD0iNCIgeT0iMTAxIiB3aWR0aD0iMTgwIiBoZWlnaHQ9IjIwIiBmaWxsPSIjY2RjZWNlIiBzdHJva2U9Im5vbmUiLz48cmVjdCB4PSIwIiB5PSI5NyIgd2lkdGg9IjE4MCIgaGVpZ2h0PSIyMCIgZmlsbD0iI2ZmZmZmZiIgc3Ryb2tlPSJub25lIi8+PC9nPjwvc3ZnPg==;connectable=1;allowArrows=0;recursiveResize=0;expand=0;rotatable=1;cloneable=0;editable=1;movable=1;resizable=1;deletable=1;part=1;" parent="34" vertex="1">
          <mxGeometry width="204" height="125" as="geometry" />
        </mxCell>
        <mxCell id="36" value="&lt;div&gt;&lt;span style=&quot;font-size: 12px&quot;&gt;SCM&amp;nbsp; Repository&lt;/span&gt;&lt;/div&gt;" style="whiteSpace=wrap;html=1;fillColor=#4C4C4C;strokeColor=#4C4C4C;fontColor=#FFFFFF;movable=0;resizable=0;rotatable=0;cloneable=0;deletable=0;imageAspect=0;connectable=0;recursiveResize=0;fontFamily=Red Hat Text;fontStyle=1;align=left;fontSize=12;spacingLeft=10;spacingRight=50;allowArrows=0;expand=0;part=1;" parent="34" vertex="1">
          <mxGeometry x="14" y="10" width="160" height="40" as="geometry" />
        </mxCell>
        <mxCell id="37" value="" style="shape=image;image=data:image/svg+xml,PHN2ZyBpZD0iYTMyMTczMTctZTgyMy00ZjE5LTliOWMtNGMzYzVhOTMyOTc4IiBkYXRhLW5hbWU9Ikljb24iIHhtbG5zPSJodHRwOi8vd3d3LnczLm9yZy8yMDAwL3N2ZyIgdmlld0JveD0iMCAwIDM2IDM2Ij48ZGVmcz48c3R5bGU+LmE2YzMzOTAwLWZmNjMtNDM5My05NWNhLTgyYzZjYzM3MzlmZSB7ZmlsbDogI2ZmZjt9PC9zdHlsZT48L2RlZnM+PGNpcmNsZSBjbGFzcz0iYTZjMzM5MDAtZmY2My00MzkzLTk1Y2EtODJjNmNjMzczOWZlIiBjeD0iMjciIGN5PSIyMyIgcj0iMC42MiIvPjxnPjxyZWN0IHdpZHRoPSIxMDAlIiBoZWlnaHQ9IjEwMCUiIGZpbGw9IiM0YzRjNGMiLz48cGF0aCBjbGFzcz0iYTZjMzM5MDAtZmY2My00MzkzLTk1Y2EtODJjNmNjMzczOWZlIiBkPSJNMzEsMTcuMzhINWEuNjIuNjIsMCwwLDAtLjYyLjYyVjI4YS42Mi42MiwwLDAsMCwuNjIuNjJIMzFhLjYyLjYyLDAsMCwwLC42Mi0uNjJWMThBLjYyLjYyLDAsMCwwLDMxLDE3LjM4Wm0tLjYyLDEwSDUuNjJWMTguNjJIMzAuMzhaIi8+PHBhdGggY2xhc3M9ImE2YzMzOTAwLWZmNjMtNDM5My05NWNhLTgyYzZjYzM3MzlmZSIgZD0iTTksMjMuNjJoNmEuNjIuNjIsMCwwLDAsMC0xLjI0SDlhLjYyLjYyLDAsMCwwLDAsMS4yNFoiLz48cGF0aCBjbGFzcz0iYTZjMzM5MDAtZmY2My00MzkzLTk1Y2EtODJjNmNjMzczOWZlIiBkPSJNMTcuMjQsMTQuNDZBLjYzLjYzLDAsMCwwLDE4LDE0bDEuMjQtNS44NUEuNjIuNjIsMCwxLDAsMTgsNy44N2wtMS4yNSw1Ljg1QS42My42MywwLDAsMCwxNy4yNCwxNC40NloiLz48cGF0aCBjbGFzcz0iYTZjMzM5MDAtZmY2My00MzkzLTk1Y2EtODJjNmNjMzczOWZlIiBkPSJNMjEsMTMuOTJhLjYxLjYxLDAsMCwwLC44OCwwbDIuNTYtMi41NmEuNjEuNjEsMCwwLDAsMC0uODhMMjEuODgsNy45MWMtLjU2LS41OC0xLjQ3LjMyLS44OC44OWwyLjEyLDIuMTJMMjEsMTNBLjYxLjYxLDAsMCwwLDIxLDEzLjkyWiIvPjxwYXRoIGNsYXNzPSJhNmMzMzkwMC1mZjYzLTQzOTMtOTVjYS04MmM2Y2MzNzM5ZmUiIGQ9Ik0xNC4xMiwxMy45MkEuNjMuNjMsMCwxLDAsMTUsMTNsLTIuMTItMi4xMkwxNSw4LjhjLjU4LS41Ny0uMzEtMS40Ny0uODgtLjg5bC0yLjU2LDIuNTdhLjYxLjYxLDAsMCwwLDAsLjg4WiIvPjwvZz48L3N2Zz4=;recursiveResize=0;editable=1;resizable=1;rotatable=1;cloneable=0;imageAspect=0;connectable=1;movable=1;fontFamily=Helvetica;fontSize=12;fontColor=#000000;align=center;strokeColor=#000000;fillColor=#ffffff;part=1;deletable=1;locked=0;" parent="34" vertex="1">
          <mxGeometry x="134" y="10" width="40" height="40" as="geometry" />
        </mxCell>
        <mxCell id="38" value="Github&amp;nbsp;&lt;br&gt;Helm Charts" style="whiteSpace=wrap;html=1;fillColor=none;strokeColor=none;align=left;fontFamily=Red Hat Text;fontSize=11;fontStyle=0;verticalAlign=bottom;fontColor=#595959;movable=1;rotatable=1;cloneable=0;deletable=1;connectable=1;imageAspect=0;recursiveResize=0;resizable=1;allowArrows=0;expand=0;part=1;editable=1;locked=0;" parent="34" vertex="1">
          <mxGeometry x="14" y="58" width="130" height="29" as="geometry" />
        </mxCell>
        <mxCell id="39" value="Storage" style="whiteSpace=wrap;html=1;fillColor=none;strokeColor=none;align=left;fontFamily=Red Hat Text;fontSize=11;fontStyle=0;verticalAlign=middle;fontColor=#595959;movable=0;rotatable=0;cloneable=0;deletable=1;connectable=0;imageAspect=0;recursiveResize=0;resizable=0;allowArrows=0;expand=0;part=1;" parent="34" vertex="1">
          <mxGeometry x="14" y="97" width="160" height="20" as="geometry" />
        </mxCell>
        <mxCell id="40" value="" style="ellipse;allowArrows=1;editable=0;movable=0;resizable=0;rotatable=0;cloneable=0;deletable=0;fillColor=none;strokeColor=none;connectable=1;part=1;perimeter=none;points=[[0,0,0]];snapToPoint=1;" parent="34" vertex="1">
          <mxGeometry x="4" y="31" width="1" height="1" as="geometry" />
        </mxCell>
        <mxCell id="41" value="" style="ellipse;allowArrows=1;editable=0;movable=0;resizable=0;rotatable=0;cloneable=0;deletable=0;fillColor=none;strokeColor=none;connectable=1;part=1;perimeter=none;points=[[0,0,0]];snapToPoint=1;" parent="34" vertex="1">
          <mxGeometry x="4" y="66" width="1" height="1" as="geometry" />
        </mxCell>
        <mxCell id="42" value="" style="ellipse;allowArrows=1;editable=0;movable=0;resizable=0;rotatable=0;cloneable=0;deletable=0;fillColor=none;strokeColor=none;connectable=1;part=1;perimeter=none;points=[[0,0,0]];snapToPoint=1;" parent="34" vertex="1">
          <mxGeometry x="37" y="121" width="1" height="1" as="geometry" />
        </mxCell>
        <mxCell id="43" value="" style="ellipse;allowArrows=1;editable=0;movable=0;resizable=0;rotatable=0;cloneable=0;deletable=0;fillColor=none;strokeColor=none;connectable=1;part=1;perimeter=none;points=[[0,0,0]];snapToPoint=1;" parent="34" vertex="1">
          <mxGeometry x="94" y="121" width="1" height="1" as="geometry" />
        </mxCell>
        <mxCell id="44" value="" style="ellipse;allowArrows=1;editable=0;movable=0;resizable=0;rotatable=0;cloneable=0;deletable=0;fillColor=none;strokeColor=none;connectable=1;part=1;perimeter=none;points=[[0,0,0]];snapToPoint=1;" parent="34" vertex="1">
          <mxGeometry x="151" y="121" width="1" height="1" as="geometry" />
        </mxCell>
        <mxCell id="45" value="" style="ellipse;allowArrows=1;editable=0;movable=0;resizable=0;rotatable=0;cloneable=0;deletable=0;fillColor=none;strokeColor=none;connectable=1;part=1;perimeter=none;points=[[0,0,0]];snapToPoint=1;" parent="34" vertex="1">
          <mxGeometry x="194" y="31" width="1" height="1" as="geometry" />
        </mxCell>
        <mxCell id="46" value="" style="ellipse;allowArrows=1;editable=0;movable=0;resizable=0;rotatable=0;cloneable=0;deletable=0;fillColor=none;strokeColor=none;connectable=1;part=1;perimeter=none;points=[[0,0,0]];snapToPoint=1;" parent="34" vertex="1">
          <mxGeometry x="194" y="66" width="1" height="1" as="geometry" />
        </mxCell>
        <mxCell id="47" value="" style="group" parent="1" vertex="1" connectable="0">
          <mxGeometry x="350" y="630" width="204" height="125" as="geometry" />
        </mxCell>
        <mxCell id="48" value="" style="group;allowArrows=0;dropTarget=0;recursiveResize=0;expand=0;editable=0;resizable=0;rotatable=0;cloneable=0;" parent="47" vertex="1" connectable="0">
          <mxGeometry width="204" height="125" as="geometry" />
        </mxCell>
        <mxCell id="49" value="" style="shape=image;image=data:image/svg+xml,PHN2ZyB4bWxucz0iaHR0cDovL3d3dy53My5vcmcvMjAwMC9zdmciIHdpZHRoPSIyMDBweCIgdmlld0JveD0iLTQgMCAyMDQgMTI1Ij48ZWxsaXBzZSBjeD0iMCIgY3k9IjMwIiByeD0iNCIgcnk9IjQiIGZpbGw9IiNmZmZmZmYiIHN0cm9rZT0ibm9uZSIvPjxlbGxpcHNlIGN4PSIwIiBjeT0iNjAiIHJ4PSI0IiByeT0iNCIgZmlsbD0iI2ZmZmZmZiIgc3Ryb2tlPSJub25lIi8+PGVsbGlwc2UgY3g9IjAiIGN5PSI5MCIgcng9IjQiIHJ5PSI0IiBmaWxsPSIjZmZmZmZmIiBzdHJva2U9Im5vbmUiLz48ZWxsaXBzZSBjeD0iMzMiIGN5PSIxMjEiIHJ4PSI0IiByeT0iNCIgZmlsbD0iI2NkY2VjZSIgc3Ryb2tlPSJub25lIi8+PGVsbGlwc2UgY3g9IjkwIiBjeT0iMTIxIiByeD0iNCIgcnk9IjQiIGZpbGw9IiNjZGNlY2UiIHN0cm9rZT0ibm9uZSIvPjxlbGxpcHNlIGN4PSIxNDciIGN5PSIxMjEiIHJ4PSI0IiByeT0iNCIgZmlsbD0iI2NkY2VjZSIgc3Ryb2tlPSJub25lIi8+PGc+PHJlY3QgeD0iNCIgeT0iNCIgd2lkdGg9IjE5NiIgaGVpZ2h0PSIxMTYiIGZpbGw9IiNjZGNlY2UiIHN0cm9rZT0ibm9uZSIvPjxyZWN0IHg9IjAiIHk9IjAiIHdpZHRoPSIxODAiIGhlaWdodD0iMTE2IiBmaWxsPSIjZmZmZmZmIiBzdHJva2U9Im5vbmUiLz48cmVjdCB4PSIzIiB5PSIzIiB3aWR0aD0iMTc0IiBoZWlnaHQ9IjExMCIgZmlsbD0ibm9uZSIgc3Ryb2tlPSIjY2RjZWNlIi8+PGVsbGlwc2UgY3g9IjE5MCIgY3k9IjMwIiByeD0iNCIgcnk9IjQiIGZpbGw9IiNhZWFlYWUiIHN0cm9rZT0ibm9uZSIvPjxlbGxpcHNlIGN4PSIxOTAiIGN5PSI2MCIgcng9IjQiIHJ5PSI0IiBmaWxsPSIjYWVhZWFlIiBzdHJva2U9Im5vbmUiLz48ZWxsaXBzZSBjeD0iMTkwIiBjeT0iOTAiIHJ4PSI0IiByeT0iNCIgZmlsbD0iI2FlYWVhZSIgc3Ryb2tlPSJub25lIi8+PC9nPjwvc3ZnPg==;connectable=0;allowArrows=0;recursiveResize=0;expand=0;rotatable=0;cloneable=0;editable=0;movable=0;resizable=0;deletable=0;part=1;" parent="48" vertex="1">
          <mxGeometry width="204" height="125" as="geometry" />
        </mxCell>
        <mxCell id="50" value="Continuous Delivery" style="whiteSpace=wrap;html=1;fillColor=#4C4C4C;strokeColor=#4C4C4C;fontColor=#FFFFFF;movable=0;resizable=0;rotatable=0;cloneable=0;deletable=0;imageAspect=0;connectable=0;recursiveResize=0;fontFamily=Red Hat Text;fontStyle=1;align=left;fontSize=12;spacingLeft=10;spacingRight=50;allowArrows=0;expand=0;part=1;" parent="48" vertex="1">
          <mxGeometry x="14" y="10" width="160" height="40" as="geometry" />
        </mxCell>
        <mxCell id="51" value="" style="shape=image;image=data:image/svg+xml,PHN2ZyB4bWxucz0iaHR0cDovL3d3dy53My5vcmcvMjAwMC9zdmciIHZpZXdCb3g9IjAgMCA0MCA0MCI+PHRpdGxlPkJsYW5rPC90aXRsZT48ZyBpZD0iZGlhZ3JhbSI+PHJlY3Qgd2lkdGg9IjEwMCUiIGhlaWdodD0iMTAwJSIgZmlsbD0iIzRjNGM0YyIvPjwvZz48L3N2Zz4=;recursiveResize=0;editable=0;resizable=0;rotatable=0;cloneable=0;imageAspect=0;connectable=0;movable=1;fontFamily=Helvetica;fontSize=12;fontColor=#000000;align=center;strokeColor=#000000;fillColor=#ffffff;part=1;" parent="48" vertex="1">
          <mxGeometry x="134" y="10" width="40" height="40" as="geometry" />
        </mxCell>
        <mxCell id="52" value="OpenShift GitOps" style="whiteSpace=wrap;html=1;fillColor=none;strokeColor=none;align=left;fontFamily=Red Hat Text;fontSize=11;fontStyle=0;verticalAlign=bottom;fontColor=#595959;movable=0;rotatable=0;cloneable=0;deletable=1;connectable=0;imageAspect=0;recursiveResize=0;resizable=0;allowArrows=0;expand=0;part=1;" parent="48" vertex="1">
          <mxGeometry x="14" y="58" width="130" height="48" as="geometry" />
        </mxCell>
        <mxCell id="53" value="" style="ellipse;allowArrows=1;editable=0;movable=0;resizable=0;rotatable=0;cloneable=0;deletable=0;fillColor=none;strokeColor=none;connectable=1;part=1;perimeter=none;points=[[0,0,0]];snapToPoint=1;" parent="48" vertex="1">
          <mxGeometry x="4" y="30" width="1" height="1" as="geometry" />
        </mxCell>
        <mxCell id="54" value="" style="ellipse;allowArrows=1;editable=0;movable=0;resizable=0;rotatable=0;cloneable=0;deletable=0;fillColor=none;strokeColor=none;connectable=1;part=1;perimeter=none;points=[[0,0,0]];snapToPoint=1;" parent="48" vertex="1">
          <mxGeometry x="4" y="60" width="1" height="1" as="geometry" />
        </mxCell>
        <mxCell id="55" value="" style="ellipse;allowArrows=1;editable=0;movable=0;resizable=0;rotatable=0;cloneable=0;deletable=0;fillColor=none;strokeColor=none;connectable=1;part=1;perimeter=none;points=[[0,0,0]];snapToPoint=1;" parent="48" vertex="1">
          <mxGeometry x="4" y="90" width="1" height="1" as="geometry" />
        </mxCell>
        <mxCell id="56" value="" style="ellipse;allowArrows=1;editable=0;movable=0;resizable=0;rotatable=0;cloneable=0;deletable=0;fillColor=none;strokeColor=none;connectable=1;part=1;perimeter=none;points=[[0,0,0]];snapToPoint=1;" parent="48" vertex="1">
          <mxGeometry x="37" y="121" width="1" height="1" as="geometry" />
        </mxCell>
        <mxCell id="57" value="" style="ellipse;allowArrows=1;editable=0;movable=0;resizable=0;rotatable=0;cloneable=0;deletable=0;fillColor=none;strokeColor=none;connectable=1;part=1;perimeter=none;points=[[0,0,0]];snapToPoint=1;" parent="48" vertex="1">
          <mxGeometry x="94" y="121" width="1" height="1" as="geometry" />
        </mxCell>
        <mxCell id="58" value="" style="ellipse;allowArrows=1;editable=0;movable=0;resizable=0;rotatable=0;cloneable=0;deletable=0;fillColor=none;strokeColor=none;connectable=1;part=1;perimeter=none;points=[[0,0,0]];snapToPoint=1;" parent="48" vertex="1">
          <mxGeometry x="151" y="121" width="1" height="1" as="geometry" />
        </mxCell>
        <mxCell id="59" value="" style="ellipse;allowArrows=1;editable=0;movable=0;resizable=0;rotatable=0;cloneable=0;deletable=0;fillColor=none;strokeColor=none;connectable=1;part=1;perimeter=none;points=[[0,0,0]];snapToPoint=1;" parent="48" vertex="1">
          <mxGeometry x="194" y="30" width="1" height="1" as="geometry" />
        </mxCell>
        <mxCell id="60" value="" style="ellipse;allowArrows=1;editable=0;movable=0;resizable=0;rotatable=0;cloneable=0;deletable=0;fillColor=none;strokeColor=none;connectable=1;part=1;perimeter=none;points=[[0,0,0]];snapToPoint=1;" parent="48" vertex="1">
          <mxGeometry x="194" y="60" width="1" height="1" as="geometry" />
        </mxCell>
        <mxCell id="61" value="" style="ellipse;allowArrows=1;editable=0;movable=0;resizable=0;rotatable=0;cloneable=0;deletable=0;fillColor=none;strokeColor=none;connectable=1;part=1;perimeter=none;points=[[0,0,0]];snapToPoint=1;" parent="48" vertex="1">
          <mxGeometry x="194" y="90" width="1" height="1" as="geometry" />
        </mxCell>
        <mxCell id="62" value="" style="group" parent="47" vertex="1" connectable="0">
          <mxGeometry width="204" height="125" as="geometry" />
        </mxCell>
        <mxCell id="63" value="" style="shape=image;imageAspect=0;aspect=fixed;verticalLabelPosition=bottom;verticalAlign=top;image=data:image/png,iVBORw0KGgoAAAANSUhEUgAAAWgAAAFoCAYAAAB65WHVAAAACXBIWXMAAG66AABuugHW3rEXAAASD0lEQVR4nO3d8VEcR9rA4dZX/h85AnQRiItAOAKjCEARGEVwfBFIikAQgXURGCIwisAQgSECrtbuvUOIhd2Zntm3u5+niro6WaBl2P3R2zPT/eLu7i4BEM//+ZkAxCTQAEEJNEBQAg0QlEADBCXQAEEJNEBQAg0QlEADBCXQAEEJNEBQAg0QlEADBCXQAEEJNEBQAg0QlEADBCXQAEEJNEBQAg0QlEADBCXQAEEJNEBQAg0QlEADBCXQAEEJNEBQAg0QlEADBCXQAEEJNEBQAg0QlEADBCXQAEEJNEBQAg0QlEADBCXQAEEJNEBQAg0QlEADBCXQAEH90MAPZj/AY9im836/dWhbzYE+SimdpJR2AzyWbbpOKR2nlL70ewigTS/u7u5q/MZOU0qHAR5HJGf5lxbQiBoDfZBS+jXA44jorZE0tKPGQF+Z1lhpMd3xKuhjAzZU21Uc++L8pMWx2Qv8+IANuMyuPS97PwDQCoEGCEqgAYISaICgBBogKIEGCEqgAYJqYbGk57xPKV3GfogrLa5p/hD0sQET6yHQl1Z8A2pkigMgKIEGCEqgAYISaICgBBogKIEGCEqgAYISaICgBBogKIEGCEqgAYISaICgBBogKIEGCEqgAYLqYT1oyth3HCdhrXJWEmiec5RSOkkp7TpSk7pIKV3lDSZsMsFfBJqnnKaUDh2hWbzJH/eP9yLaX/LHVcPfOyuYg2aVA3Heujd5T8o/8qj6OKX0svNj0hWBZpWPjkwor3Os/8zvbF71fkB6INA8Zt+cc2iHeVT9RajbJtBQr59zqE9NfbRJoKF+h/kk4oGfZVsEGtqwk1L6NU97GE03QqB5zOIa3GtHpko/5ys+9no/EC0QaFY5dmSqtZt/yZryqJxAs8rirfKZo1Ot5ZTHUe8HomYCzVMWL+63pjuq9lmk6+VWb56zvNXYYkll3D+Oe/mE3puJ/83P+X9PJ/53KEygWZfFe8pYdRz38sdBjvhO4X/3872FmKiEKQ6I4TKPcA/yqPpdXiyppHN3HtZFoCGm0zyS/kfBk7U7ebqKSgg0xHaVT/L9lFL6WuCRvrYQVj0EGupwnueo/7/Ao/3FSd86CDTUZbG7zT9TSrcjH7VRdAUEGupzmU/2jZnyeO1u0fgEGup0k6cpxkT6xMJKsQk01GtspHeMomMTaKjbTb7KY+ictH0OAxNoqN/liPU2dqzVEZdAQxsWN6B8GvidmOYISqChHScDpzp2XRcdk0BDO25GjIZNcwQk0NCW04Hrd9t9JSCBhvacDPiOdkxzxNPDetA1b55p40+GOM23cm+6pvSBdb9j6SHQHwI8BpjbaV4UaRMGBMGY4oA2Ddneauqtt9iQQEObLgeeLDQPHYhAQ7uGzCfbEisQgYZ2DdkgVqADEWho15BAm+IIRKDbYwTEkkvmKifQ7bnq/QDwjU3X5vALPpAXd3d3tT3mq7y4C9+79gLjgfMBl8+9cBBjqHEEbWnE1RwbaEiNgV6se3sW4HFEc5aPDdCIWuegF0sjvh14IX5rrvOxsFwkNKbGOeiHer8syJl6nmIOumItLJYkUECTXGYHbdt0hTrThoEINLRt0zWhXUcfiEBDu3o/P1M9gYZ2DblpyTmdQAQa2jVkBG2KI5AetryiXi9zZBYnum7y6G7ICm29EujKtXAdNG06zrtTPzzJdZH/m1A/bfFL7fcBn+ca6EBMcRDRad7s97ErEN7k8Lhz8mlDjs/FnA+Q5wk00SzifLjGY/psF+onDQm0dyXBCDSRrBvnpY9+eo86GnD9c7LYVjzmoIli0zgv/dPI7ztD1ky/zSdlCcQImgiGxjmZ5vjO0cANLYyeAxJotm1MnJMdZL7xcsS0z+lEj4kRBJptGhvn5M63bzx2WeI6rh3HmASabSkR51vzz/91kFL6ZeDnOtkalECzDSXinPKI8cZP8K95+KFTFLemN+ISaOZWKs5nRn5/eZmP6ZCpjZSPoV9yQbnMjjmVjLM7Cf+O82Lu+PXAz7/NJ1kFOigjaOYizmWNjXMyRRSfETRzEOey9nKch05rLHx1DXl8RtBMTZzLOs6LRY2Jc8pfh+CsB82UxLmc/XxCb8yUxtIn1z3XwRQHUxHnMl7lueISxzKZ2qiLETRTEOfxjvLHm4Jf8zbf0EIlBJrSxHmYvfxxkKczxs4xP2bfllZ1Eejtm2tr/DnmHEvF+Wv+WnMdm7m8fDC9sJf/rOQoeZV3bouvjznoeby6N0Lay/+/xMmeTVznM/dTLStZKs6U987t3HUS6Gm8vPdWdX/g+rxTmWLqQJzjEueKCXQ5yygfb2F0vKm3BUfSi+/51/keOmu6zb+ILcRfMYEebz+/EGoaQV4XXOh+yPZKTOs6/+I051w5dxIOt59PvP1W4dv73ULXwr4S53D+nX+24twAV3Fsbj/fODDHmfcpldgg1HZTcZjSaJBAr2+57u7PtTzgZ4hrO87yuQ8r0zXGFMd6jvNcaytxToVuWBCE7VqE+R955Oxn0SAnCZ/W2qh5yUnCup3laTZ3BTbOCHq15YmW1uKcCi81eVLwa7Ha4u7K9ymlH/OIWZw7YAT9uKO8tOMU6yFsmxtV6nGRT/p9EeQ+OUn4vUW8Pkd7UAVMeav3MvgiPdxFjvBl/rBeMwL9wJxxvs4vyKsHo6OpXphTv+BLRvprRzt+CDErmeL4n6njfJFfjOd5hNTqWXfLjUIhRtB/myrOFzlYXzq6DKrUSHr5+SJNt4yg/74z8LeCX+82B7n3y6CMpGGk3gP9Kk83lLpa41MOs5sG/ibSMELvUxxfCsX5wrWpjzLdASP0fKNKiS3sb/PNA/Z6W+0oj4DHOrTwPL3pdYqjxLyzNXc3Y7oDNtRroMeuH/E1R95c82ZEGjbQ4xTHiThvjekO2EBvI+ixV22IcxmlRtLv87kEaFJvgR4TBnEuq0SkbwvtDAMh9RToxej5j4Gfe5uXH3WlRlklIv2T9SxoVU9z0GPWLT4Q50mUmpOGJvUS6Jc5skN8MkKblEjDCr0E+mjgicFrO4bMYkyknROgWT0Fegg7Jc9nSKSv3ShEy3oI9N7AW7ovJtp9hNU2jXQvi/rTqR4CPXT0bGpjO9aN9Ce/QGldD4EecnLwqxODW7WI9Ls8hfHQcoEqo2ea1/p10EOvfX7nVuIw9vMDeZUvdfSLk260vh70/hp/56Fbb51DEWS61foUx5BA97R/IBCYQH/P6BkIoeU56MXdg38O+LwfjaCBCFoeQe8N+JwLcQaiEOhvuSsNCKPlqziGrBPsioH2DTkvwWpeMxNqOdBDXoimN9p1VGC7M753nW8acnJ9Aj3uSfgUo4E2LW46+izOk1gc01/d2DUNgaZ1B4X2P+RphyPWXGeFli+z2/QbuzA/2aQrI+fZXOdb8inECJqW7YvzrHYHXj3FCgINlGSX9YIEGijJFEdBAg2UZPf7ggQaKOXapapltRzoiw3//puJHgf0wi43hRlBAyWcuZuwPIH+luugYTOLaY23IzZn5gktr8VxPmDawiVCvLeq4UbMOU+o5UAPWfho39u07l2KDlG0PMUxZBTkLiggDIH+1hvTHEAULQf6Jp/A2JQThUAIrV/FMWQu0ZKJQAgC/b0D0xxABC1fxZEGBnonR9oOEd/ay9M/L+9d6WCLMCJ5mZ+je/m5eV77JZOtB/oqz0NvuibwsUD/1+LJ/vGRa8pv8x5/H7f42GDpOD8fdx4ckYv836oMdQ93Eg65rvm1k4V/Wdwd9vuKG34WL4QPfpERwGl+Lj6Mc8rP3d9rvdOxh0APDchJ4cdRm7280epzDh0rtuh0zT0nP9d4n0MPgV68tfk64PPedL6+wCZTF/+yFgNbsG6cl6qbjutlsaQxo+ger+jYG7COyWeRZkabxjnl53RVo+ieAn074PN2O337PnT+/bM5aWYwJM5LAh3QzYhFkH7p8OaVMe8aDkWaCY2Jc6ptz8Se1oMeMxI+7WwzzLGruYk0Uxgb51TbSoU9Bfoq7/owxE4egfcyH305cEroPpGmpBJxvhXo2I5HhOd1/uH2EOmbQnPvIk0JJeKcajyf1Fugb0ZeatNTpD+OeMdxn0gzRqk4n7nMrg4nA5chXeop0kcizRaVjLM7CSsy9of1Os/T9rADS8lI9zSPzzjdxzl1HOjFCPjTyK+xm+/xPy70mCIrFemfO3r3wXDinPUa6JTDOuQW8Ic+5Oi0fhleqUj3NEXE5sT5np4DnfINKGMvJ0v5FtI/8kmIlsMj0kxJnB/oPdBXhe8S/CV/zZZvbCkdaUji/LjeA51yJN4V/Ho7+Yn2R/7aRw2OFEtG2tUdiPMKAv2308KRXnqTFxD6M8f65N62UbVzCR4liPMTXtzd3YV9cFtwtOYi9SVc5+mQ5cdSbW/7P+aR8FhTvMAWvwx/2/BzfjL1MhtxfoZAf2/OSPOt94Xv9hLouMR5DaY4vrec7ihxdQeb+dDh0q49Euc1CfTjTvPoa8wt4Qw/9j0t7dobcd6AQK+2vJX731EfYKN2nDRsljhvSKCfdpPfcr835TGr6vaO41niPIBAr+djftttND0fdxm2Q5wHEuj1LUfTi7P8F7U8aNgycR5BoDd3nk8gCvW0blr+5johziMJ9HD3Q13ijjr+5zqfpKVe4lyAQI+3XG/jx3z9dIklTHvXwxrbLRPnQgS6nJv8xNy7F+sz11Jv7CzvvEKdxLmgH5r5TmJZxnp5Pe+rHO7lx6tC61e0xouybuJcmEDPY7kg0mMjw/3Kv7fIiyUxH3GegEBvX80L85yKM+I8HXPQDOVFSfI8mJZAM4QXJcnzYHoCzaa8KEmeB/MQaDbhRUnyPJiPQLMuL0qS58G8XMXBOrwo57N3b2Ph83zLe5R1STwPZibQPMeLch57+ZryN/f+tX/ldchPCu/VOITnwRaY4uApXpTzWByb3x/EeWkn79W4zV1mPA+2RKBZ5diLchZ7a+4if7ilSIvzFgk0q5wUODJelM/bZOpi7kiL85YJNI/Zz2+tx/CifN7eimmNp8wVaXEOQKB5zNgFnLwo1zP0OE8daXEOQqB5zJjLurwo1zdmY9ypIi3OgQg0jxm6wp4X5WbGbutVOtLiHIxA85jLATvBeFFu7jxf5zxGqUiLc0ACzSqbvMi8KIe5KXS1zNhIi3NQAs0q53lfxed4UY7zsdCu8EMjLc6BCTRPWbx4f1ox3bF4a/7ei7KIoy1FWpyDsxYHzzm/t+nt/UV8at6qK6Jl4MYGc/n5zwVTnCsg0KzrssBVBzxtrkiLcyVMcUAsU093iHNFBBrimSrS4lwZUxwQU+npjhJfK4nzvAQa4poi0mOI88xMcUBspaY7xhLnLTCChvhKjaSHqinOD1cIrPpyUIGGOmwr0rXE+SjfNr/74M+v8+5AX7b0uEYxxQH1mHu6o5Y4n+Ztwx7GOeU/+3XLezoOJtBQl7kiXUucD9Z8V3GY/25VBBrqM3Wka5pz3mRPx03+bggCDXWaKtK1nRB8bFpjld28pkw1BBrqVTrSPVxKN2absdkJNNStVKRd5xyQQEP9xkZanIMSaGjD0EiLc2ACDe3YNNLiHJxAQ1vWjbQ4V0CgoT2L8L5dsZfkdd4MWJwrYC0OaNOX/LF379KyG9uW1UWgoW2CXDFTHABBCTRAUAINEJRAAwQl0ABBCTRAUAINEJRAAwQl0ABBCTRAUAINEJRAAwQl0ABBCTRAUAINEJRAAwQl0ABBCTRAUAINEJRAAwQl0ABBCTRAUAINEJRAAwQl0ABB/eAHA9/Ycziq0fzPSqDhWx8cD6IwxQEQlEADBCXQAEEJNEBQAg0QlEADPXlV0/cq0EBPrmr6Xl/c3d0FeBgwmcULctfhJaV0bQQNsRz7eZBV91wQaFr3JaV05qfcvbP8XKiKQNODo5TS2/wWl75c55/9UY3ftTloerPvJ96V85q/WYEGCMoUB0BQAg0QlEADBCXQAEEJNEBQAg0QlEADBCXQAEEJNEBQAg0QlEADBCXQAEEJNEBQAg0QlEADBCXQAEEJNEBQAg0QlEADBCXQAEEJNEBQAg0QlEADBCXQAEEJNEBQAg0QlEADBCXQAEEJNEBQAg0QlEADBCXQAEEJNEBQAg0QlEADBCXQAEEJNEBQAg0QlEADBCXQAEEJNEBQAg0QUUrpP0HGgmv43FfHAAAAAElFTkSuQmCC;" parent="62" vertex="1">
          <mxGeometry x="135" y="9" width="40" height="40" as="geometry" />
        </mxCell>
        <mxCell id="64" style="edgeStyle=orthogonalEdgeStyle;rounded=0;orthogonalLoop=1;jettySize=auto;html=1;startArrow=oval;startFill=1;endArrow=oval;endFill=1;strokeColor=#316DC1;strokeWidth=2;fillColor=#316DC1;entryX=0;entryY=0;entryDx=0;entryDy=0;entryPerimeter=0;" parent="1" target="45" edge="1">
          <mxGeometry relative="1" as="geometry">
            <mxPoint x="100" y="374" as="sourcePoint" />
            <mxPoint x="200" y="485" as="targetPoint" />
            <Array as="points">
              <mxPoint x="100" y="465" />
              <mxPoint x="204" y="465" />
            </Array>
          </mxGeometry>
        </mxCell>
        <mxCell id="65" value="User" style="shape=image;image=data:image/svg+xml,PHN2ZyB4bWxucz0iaHR0cDovL3d3dy53My5vcmcvMjAwMC9zdmciIHZpZXdCb3g9IjAgMCAzNy40MyA1Ny44NyI+PGRlZnM+PHN0eWxlPi5jbHMtMXtmaWxsOiNmZmY7fS5jbHMtMntmaWxsOmdyYXk7fTwvc3R5bGU+PC9kZWZzPjx0aXRsZT5Bc3NldCA3NTwvdGl0bGU+PGcgaWQ9IkxheWVyXzIiIGRhdGEtbmFtZT0iTGF5ZXIgMiI+PGcgaWQ9ImRpYWdyYW0iPjxwYXRoIGNsYXNzPSJjbHMtMSIgZD0iTTI3Ljc2LDlhOSw5LDAsMSwxLTktOUE5LjA2LDkuMDYsMCwwLDEsMjcuNzYsOVoiLz48cGF0aCBjbGFzcz0iY2xzLTEiIGQ9Ik0zNy40Myw0Mi4wOGMwLDQuNTUtMi41NSw2LjgtNS42Myw5LjA2bC0uNzYuNTUuMTksMy4yMy0uNTQuNDJjLTEuMjEuOTQtNC4zNywyLjUyLTEyLDIuNTItNy44NCwwLTEwLjk1LTEuNjUtMTIuMTEtMi42M2wtLjQ4LS40Mi4xOS0zLjE3LS43NC0uNTVDMi42NCw0OC45NCwwLDQ2LjYyLDAsNDIuMDh2MGwuNjQtOGMuNDEtNSwxLjE2LTE0LjE5LDEzLjc1LTE0LjE5aDguNjZjMTIuMzUsMCwxMy4yNiw5LjIyLDEzLjc0LDE0LjE4bC41Myw2Ljc3aC4xWiIvPjxwYXRoIGNsYXNzPSJjbHMtMiIgZD0iTTE4LjcyLDU3Ljg3Yy03Ljg0LDAtMTAuOTUtMS42NS0xMi4xMS0yLjYzbC0uNDgtLjQyLjE5LTMuMTctLjc0LS41NUMyLjY0LDQ4Ljk0LDAsNDYuNjMsMCw0Mi4wOVY0MmwuNjQtOGMuNDEtNSwxLjE2LTE0LjIsMTMuNzUtMTQuMmg4LjY2YzEyLjM1LDAsMTMuMjYsOS4yMiwxMy43NCwxNC4xOGwuNTMsNi43OGguMXYxLjNjMCw0LjU1LTIuNTUsNi43OS01LjYzLDlMMzEsNTEuN2wuMTksMy4yMy0uNTQuNDJDMjkuNDgsNTYuMjksMjYuMzIsNTcuODcsMTguNzIsNTcuODdabTAtMzkuNzlhOSw5LDAsMSwxLDktOUE5LjA1LDkuMDUsMCwwLDEsMTguNzIsMTguMDhaTTExLDlBNy43NCw3Ljc0LDAsMSwwLDE4LjcyLDEuMyw3Ljc1LDcuNzUsMCwwLDAsMTEsOVpNMzYuMTIsNDIuMDlsLS42Mi04Yy0uNTYtNS42Mi0xLjcxLTEzLTEyLjQ1LTEzSDE0LjM5Yy0xMC43NCwwLTEyLDctMTIuNDUsMTNsLS42Myw4YzAsMy44MywyLDUuNzUsNSw4TDcuNTksMzIuODZhLjU3LjU3LDAsMCwxLC41Ny0uNTguNTguNTgsMCwwLDEsLjU3LjU4TDcuNDgsNTQuMDhhLjc4Ljc4LDAsMCwxLDAsLjE2Yy44Mi43LDMuNTcsMi4zMiwxMS4yNiwyLjMyLDcuNDEsMCwxMC4yMy0xLjUsMTEuMTctMi4yNEwyOC42NCwzMi44NmEuNTguNTgsMCwwLDEsLjU3LS41OC41Ny41NywwLDAsMSwuNTcuNThMMzEsNTAuMDljMy0yLjIyLDUuMS00LjE1LDUuMS04WiIvPjxwYXRoIGNsYXNzPSJjbHMtMiIgZD0iTTI2LjA3LDMwLjczSDIwLjQzYS41MS41MSwwLDAsMC0uNTEuNXY1YS41MS41MSwwLDAsMCwuMzIuNDdsMi44MiwxLjE0YS40MS40MSwwLDAsMCwuMTksMCwuNDMuNDMsMCwwLDAsLjE5LDBsMi44Mi0xLjE0YS41MS41MSwwLDAsMCwuMzItLjQ3di01QS41MS41MSwwLDAsMCwyNi4wNywzMC43M1ptLS41LDUuMTMtMi4zMi45NC0yLjMyLS45NFYzMS43NGg0LjY0WiIvPjwvZz48L2c+PC9zdmc+;imageAlign=center;imageVerticalAlign=bottom;imageAspect=1;labelPosition=center;verticalLabelPosition=bottom;align=center;verticalAlign=top;spacingLeft=0;spacing=0;fontFamily=Red Hat Text;fontSize=14;fontStyle=0;spacing=0;fontColor=#808080;editable=1;connectable=0;resizable=1;rotatable=0;cloneable=0;dashed=1;labelBackgroundColor=none;fillColor=#ffffff;" parent="1" vertex="1">
          <mxGeometry x="60" y="265" width="80" height="80" as="geometry" />
        </mxCell>
        <mxCell id="66" value="" style="group;connectable=1;imageAspect=0;recursiveResize=0;editable=1;resizable=1;rotatable=1;cloneable=0;movable=1;deletable=1;" parent="1" vertex="1" connectable="0">
          <mxGeometry x="120" y="405" width="80" height="80" as="geometry" />
        </mxCell>
        <mxCell id="67" value="" style="ellipse;strokeColor=none;fillColor=#316dc1;connectable=0;movable=0;resizable=1;rotatable=0;cloneable=0;deletable=0;part=1;" parent="66" vertex="1">
          <mxGeometry x="20" width="40" height="40" as="geometry" />
        </mxCell>
        <mxCell id="68" value="" style="rect;strokeColor=none;fillColor=#316dc1;editable=0;connectable=0;resizable=0;rotatable=0;cloneable=0;movable=0;deletable=0;part=1;" parent="66" vertex="1">
          <mxGeometry x="40" y="40" width="1" height="18" as="geometry" />
        </mxCell>
        <mxCell id="69" value="" style="ellipse;strokeColor=none;fillColor=#316dc1;editable=0;connectable=0;resizable=0;rotatable=0;cloneable=0;movable=0;deletable=0;part=1;" parent="66" vertex="1">
          <mxGeometry x="38" y="58" width="5" height="5" as="geometry" />
        </mxCell>
        <mxCell id="70" value="" style="text;html=1;fontSize=10;fontFamily=Red Hat Text;fontColor=#4C4C4C;verticalAlign=top;align=center;spacing=0;editable=1;connectable=0;resizable=0;rotatable=0;cloneable=0;movable=0;deletable=0;part=1;" parent="66" vertex="1">
          <mxGeometry y="60" width="80" height="20" as="geometry" />
        </mxCell>
        <mxCell id="71" value="1" style="ellipse;strokeColor=none;fillColor=none;editable=1;connectable=0;resizable=0;rotatable=0;cloneable=0;movable=0;deletable=0;part=1;fontFamily=Red Hat Text;fontColor=#FFFFFF;fontStyle=1" parent="66" vertex="1">
          <mxGeometry x="20" width="40" height="40" as="geometry" />
        </mxCell>
        <mxCell id="72" value="" style="group;allowArrows=0;dropTarget=0;recursiveResize=0;expand=0;editable=1;resizable=0;rotatable=0;cloneable=0;" parent="1" vertex="1" connectable="0">
          <mxGeometry x="920" y="850" width="204" height="125" as="geometry" />
        </mxCell>
        <mxCell id="73" value="" style="shape=image;image=data:image/svg+xml,PHN2ZyB4bWxucz0iaHR0cDovL3d3dy53My5vcmcvMjAwMC9zdmciIHdpZHRoPSIyMDBweCIgdmlld0JveD0iLTQgMCAyMDQgMTI1Ij48ZWxsaXBzZSBjeD0iMCIgY3k9IjMwIiByeD0iNCIgcnk9IjQiIGZpbGw9IiNmZmZmZmYiIHN0cm9rZT0ibm9uZSIvPjxlbGxpcHNlIGN4PSIwIiBjeT0iNjAiIHJ4PSI0IiByeT0iNCIgZmlsbD0iI2ZmZmZmZiIgc3Ryb2tlPSJub25lIi8+PGVsbGlwc2UgY3g9IjAiIGN5PSI5MCIgcng9IjQiIHJ5PSI0IiBmaWxsPSIjZmZmZmZmIiBzdHJva2U9Im5vbmUiLz48ZWxsaXBzZSBjeD0iMzMiIGN5PSIxMjEiIHJ4PSI0IiByeT0iNCIgZmlsbD0iI2NkY2VjZSIgc3Ryb2tlPSJub25lIi8+PGVsbGlwc2UgY3g9IjkwIiBjeT0iMTIxIiByeD0iNCIgcnk9IjQiIGZpbGw9IiNjZGNlY2UiIHN0cm9rZT0ibm9uZSIvPjxlbGxpcHNlIGN4PSIxNDciIGN5PSIxMjEiIHJ4PSI0IiByeT0iNCIgZmlsbD0iI2NkY2VjZSIgc3Ryb2tlPSJub25lIi8+PGc+PHJlY3QgeD0iNCIgeT0iNCIgd2lkdGg9IjE5NiIgaGVpZ2h0PSIxMTYiIGZpbGw9IiNjZGNlY2UiIHN0cm9rZT0ibm9uZSIvPjxyZWN0IHg9IjAiIHk9IjAiIHdpZHRoPSIxODAiIGhlaWdodD0iMTE2IiBmaWxsPSIjZmZmZmZmIiBzdHJva2U9Im5vbmUiLz48cmVjdCB4PSIzIiB5PSIzIiB3aWR0aD0iMTc0IiBoZWlnaHQ9IjExMCIgZmlsbD0ibm9uZSIgc3Ryb2tlPSIjY2RjZWNlIi8+PGVsbGlwc2UgY3g9IjE5MCIgY3k9IjMwIiByeD0iNCIgcnk9IjQiIGZpbGw9IiNhZWFlYWUiIHN0cm9rZT0ibm9uZSIvPjxlbGxpcHNlIGN4PSIxOTAiIGN5PSI2MCIgcng9IjQiIHJ5PSI0IiBmaWxsPSIjYWVhZWFlIiBzdHJva2U9Im5vbmUiLz48ZWxsaXBzZSBjeD0iMTkwIiBjeT0iOTAiIHJ4PSI0IiByeT0iNCIgZmlsbD0iI2FlYWVhZSIgc3Ryb2tlPSJub25lIi8+PC9nPjwvc3ZnPg==;connectable=0;allowArrows=0;recursiveResize=0;expand=0;rotatable=0;cloneable=0;editable=0;movable=0;resizable=0;deletable=0;part=1;" parent="72" vertex="1">
          <mxGeometry width="204" height="125" as="geometry" />
        </mxCell>
        <mxCell id="74" value="Platfrom API" style="whiteSpace=wrap;html=1;fillColor=#4C4C4C;strokeColor=#4C4C4C;fontColor=#FFFFFF;movable=0;resizable=0;rotatable=0;cloneable=0;deletable=0;imageAspect=0;connectable=0;recursiveResize=0;fontFamily=Red Hat Text;fontStyle=1;align=left;fontSize=12;spacingLeft=10;spacingRight=50;allowArrows=0;expand=0;part=1;" parent="72" vertex="1">
          <mxGeometry x="14" y="10" width="160" height="40" as="geometry" />
        </mxCell>
        <mxCell id="75" value="" style="shape=image;image=data:image/svg+xml,PHN2ZyB4bWxucz0iaHR0cDovL3d3dy53My5vcmcvMjAwMC9zdmciIHZpZXdCb3g9IjAgMCA0MCA0MCI+PHRpdGxlPkJsYW5rPC90aXRsZT48ZyBpZD0iZGlhZ3JhbSI+PHJlY3Qgd2lkdGg9IjEwMCUiIGhlaWdodD0iMTAwJSIgZmlsbD0iIzRjNGM0YyIvPjwvZz48L3N2Zz4=;recursiveResize=0;editable=0;resizable=0;rotatable=0;cloneable=0;imageAspect=0;connectable=0;movable=1;fontFamily=Helvetica;fontSize=12;fontColor=#000000;align=center;strokeColor=#000000;fillColor=#ffffff;part=1;" parent="72" vertex="1">
          <mxGeometry x="134" y="10" width="40" height="40" as="geometry" />
        </mxCell>
        <mxCell id="76" value="OSCP" style="whiteSpace=wrap;html=1;fillColor=none;strokeColor=none;align=left;fontFamily=Red Hat Text;fontSize=11;fontStyle=0;verticalAlign=bottom;fontColor=#595959;movable=0;rotatable=0;cloneable=0;deletable=1;connectable=0;imageAspect=0;recursiveResize=0;resizable=0;allowArrows=0;expand=0;part=1;" parent="72" vertex="1">
          <mxGeometry x="14" y="58" width="130" height="48" as="geometry" />
        </mxCell>
        <mxCell id="77" value="x3" style="whiteSpace=wrap;html=1;fillColor=none;strokeColor=none;align=right;fontFamily=Red Hat Text;fontSize=10;fontStyle=1;verticalAlign=bottom;fontColor=#595959;movable=0;resizable=0;rotatable=0;cloneable=0;deletable=1;connectable=0;recursiveResize=0;allowArrows=0;expand=0;part=1;" parent="72" vertex="1">
          <mxGeometry x="144" y="76" width="30" height="30" as="geometry" />
        </mxCell>
        <mxCell id="78" value="" style="ellipse;allowArrows=1;editable=0;movable=0;resizable=0;rotatable=0;cloneable=0;deletable=0;fillColor=none;strokeColor=none;connectable=1;part=1;perimeter=none;points=[[0,0,0]];snapToPoint=1;" parent="72" vertex="1">
          <mxGeometry x="4" y="30" width="1" height="1" as="geometry" />
        </mxCell>
        <mxCell id="79" value="" style="ellipse;allowArrows=1;editable=0;movable=0;resizable=0;rotatable=0;cloneable=0;deletable=0;fillColor=none;strokeColor=none;connectable=1;part=1;perimeter=none;points=[[0,0,0]];snapToPoint=1;" parent="72" vertex="1">
          <mxGeometry x="4" y="60" width="1" height="1" as="geometry" />
        </mxCell>
        <mxCell id="80" value="" style="ellipse;allowArrows=1;editable=0;movable=0;resizable=0;rotatable=0;cloneable=0;deletable=0;fillColor=none;strokeColor=none;connectable=1;part=1;perimeter=none;points=[[0,0,0]];snapToPoint=1;" parent="72" vertex="1">
          <mxGeometry x="4" y="90" width="1" height="1" as="geometry" />
        </mxCell>
        <mxCell id="81" value="" style="ellipse;allowArrows=1;editable=0;movable=0;resizable=0;rotatable=0;cloneable=0;deletable=0;fillColor=none;strokeColor=none;connectable=1;part=1;perimeter=none;points=[[0,0,0]];snapToPoint=1;" parent="72" vertex="1">
          <mxGeometry x="37" y="121" width="1" height="1" as="geometry" />
        </mxCell>
        <mxCell id="82" value="" style="ellipse;allowArrows=1;editable=0;movable=0;resizable=0;rotatable=0;cloneable=0;deletable=0;fillColor=none;strokeColor=none;connectable=1;part=1;perimeter=none;points=[[0,0,0]];snapToPoint=1;" parent="72" vertex="1">
          <mxGeometry x="94" y="121" width="1" height="1" as="geometry" />
        </mxCell>
        <mxCell id="83" value="" style="ellipse;allowArrows=1;editable=0;movable=0;resizable=0;rotatable=0;cloneable=0;deletable=0;fillColor=none;strokeColor=none;connectable=1;part=1;perimeter=none;points=[[0,0,0]];snapToPoint=1;" parent="72" vertex="1">
          <mxGeometry x="151" y="121" width="1" height="1" as="geometry" />
        </mxCell>
        <mxCell id="84" value="" style="ellipse;allowArrows=1;editable=0;movable=0;resizable=0;rotatable=0;cloneable=0;deletable=0;fillColor=none;strokeColor=none;connectable=1;part=1;perimeter=none;points=[[0,0,0]];snapToPoint=1;" parent="72" vertex="1">
          <mxGeometry x="194" y="30" width="1" height="1" as="geometry" />
        </mxCell>
        <mxCell id="85" value="" style="ellipse;allowArrows=1;editable=0;movable=0;resizable=0;rotatable=0;cloneable=0;deletable=0;fillColor=none;strokeColor=none;connectable=1;part=1;perimeter=none;points=[[0,0,0]];snapToPoint=1;" parent="72" vertex="1">
          <mxGeometry x="194" y="60" width="1" height="1" as="geometry" />
        </mxCell>
        <mxCell id="86" value="" style="ellipse;allowArrows=1;editable=0;movable=0;resizable=0;rotatable=0;cloneable=0;deletable=0;fillColor=none;strokeColor=none;connectable=1;part=1;perimeter=none;points=[[0,0,0]];snapToPoint=1;" parent="72" vertex="1">
          <mxGeometry x="194" y="90" width="1" height="1" as="geometry" />
        </mxCell>
        <mxCell id="87" value="&lt;font style=&quot;font-size: 15px;&quot; color=&quot;#000000&quot;&gt;Compute (Virtual Cloud Instance)&lt;/font&gt;" style="rounded=0;shadow=0;fillColor=#E5E5E5;strokeColor=#4C4C4C;fillOpacity=100;strokeOpacity=100;html=1;fontColor=#FFFFFF;fontStyle=1;whiteSpace=wrap;align=left;verticalAlign=top;spacingTop=5;spacingLeft=10;spacingRight=10;spacingBottom=10;fontFamily=Red Hat Text;fontSize=10;editable=1;movable=1;rotatable=0;cloneable=0;deletable=1;connectable=0;recursiveResize=0;gradientDirection=radial;" parent="1" vertex="1">
          <mxGeometry x="760" y="146" width="500" height="664" as="geometry" />
        </mxCell>
        <mxCell id="88" value="" style="group;allowArrows=0;dropTarget=0;recursiveResize=0;expand=0;editable=1;resizable=1;rotatable=1;cloneable=0;movable=1;deletable=1;connectable=1;" parent="1" vertex="1" connectable="0">
          <mxGeometry x="1030" y="270" width="204" height="125" as="geometry" />
        </mxCell>
        <mxCell id="89" value="" style="shape=image;image=data:image/svg+xml,PHN2ZyB4bWxucz0iaHR0cDovL3d3dy53My5vcmcvMjAwMC9zdmciIHdpZHRoPSIyMDBweCIgdmlld0JveD0iLTQgMCAyMDQgMTI1Ij48ZWxsaXBzZSBjeD0iMCIgY3k9IjMwIiByeD0iNCIgcnk9IjQiIGZpbGw9IiNmZmZmZmYiIHN0cm9rZT0ibm9uZSIvPjxlbGxpcHNlIGN4PSIwIiBjeT0iNjAiIHJ4PSI0IiByeT0iNCIgZmlsbD0iI2ZmZmZmZiIgc3Ryb2tlPSJub25lIi8+PGVsbGlwc2UgY3g9IjAiIGN5PSI5MCIgcng9IjQiIHJ5PSI0IiBmaWxsPSIjZmZmZmZmIiBzdHJva2U9Im5vbmUiLz48ZWxsaXBzZSBjeD0iMzMiIGN5PSIxMjEiIHJ4PSI0IiByeT0iNCIgZmlsbD0iI2NkY2VjZSIgc3Ryb2tlPSJub25lIi8+PGVsbGlwc2UgY3g9IjkwIiBjeT0iMTIxIiByeD0iNCIgcnk9IjQiIGZpbGw9IiNjZGNlY2UiIHN0cm9rZT0ibm9uZSIvPjxlbGxpcHNlIGN4PSIxNDciIGN5PSIxMjEiIHJ4PSI0IiByeT0iNCIgZmlsbD0iI2NkY2VjZSIgc3Ryb2tlPSJub25lIi8+PGc+PHJlY3QgeD0iNCIgeT0iNCIgd2lkdGg9IjE5NiIgaGVpZ2h0PSIxMTYiIGZpbGw9IiNjZGNlY2UiIHN0cm9rZT0ibm9uZSIvPjxyZWN0IHg9IjAiIHk9IjAiIHdpZHRoPSIxODAiIGhlaWdodD0iMTE2IiBmaWxsPSIjZmZmZmZmIiBzdHJva2U9Im5vbmUiLz48ZWxsaXBzZSBjeD0iMTkwIiBjeT0iMzAiIHJ4PSI0IiByeT0iNCIgZmlsbD0iI2FlYWVhZSIgc3Ryb2tlPSJub25lIi8+PGVsbGlwc2UgY3g9IjE5MCIgY3k9IjYwIiByeD0iNCIgcnk9IjQiIGZpbGw9IiNhZWFlYWUiIHN0cm9rZT0ibm9uZSIvPjxlbGxpcHNlIGN4PSIxOTAiIGN5PSI5MCIgcng9IjQiIHJ5PSI0IiBmaWxsPSIjYWVhZWFlIiBzdHJva2U9Im5vbmUiLz48L2c+PC9zdmc+;connectable=0;allowArrows=0;recursiveResize=0;expand=0;rotatable=0;cloneable=0;editable=0;movable=0;resizable=0;deletable=0;part=1;" parent="88" vertex="1">
          <mxGeometry width="204" height="125" as="geometry" />
        </mxCell>
        <mxCell id="90" value="Applications" style="whiteSpace=wrap;html=1;fillColor=#1D4174;strokeColor=#4C4C4C;fontColor=#FFFFFF;movable=0;resizable=0;rotatable=0;cloneable=0;deletable=0;imageAspect=0;connectable=0;recursiveResize=0;fontFamily=Red Hat Text;fontStyle=1;align=left;fontSize=12;spacingLeft=10;spacingRight=50;allowArrows=0;expand=0;part=1;" parent="88" vertex="1">
          <mxGeometry x="14" y="10" width="160" height="40" as="geometry" />
        </mxCell>
        <mxCell id="91" value="Custom Application(s)" style="whiteSpace=wrap;html=1;fillColor=none;strokeColor=none;align=left;fontFamily=Red Hat Text;fontSize=11;fontStyle=0;verticalAlign=bottom;fontColor=#595959;movable=0;rotatable=0;cloneable=0;deletable=1;connectable=0;imageAspect=0;recursiveResize=0;resizable=0;allowArrows=0;expand=0;part=1;" parent="88" vertex="1">
          <mxGeometry x="14" y="58" width="130" height="48" as="geometry" />
        </mxCell>
        <mxCell id="92" value="" style="ellipse;allowArrows=1;editable=0;movable=0;resizable=0;rotatable=0;cloneable=0;deletable=0;fillColor=none;strokeColor=none;connectable=1;part=1;perimeter=none;points=[[0,0,0]];snapToPoint=1;" parent="88" vertex="1">
          <mxGeometry x="4" y="30" width="1" height="1" as="geometry" />
        </mxCell>
        <mxCell id="93" value="" style="ellipse;allowArrows=1;editable=0;movable=0;resizable=0;rotatable=0;cloneable=0;deletable=0;fillColor=none;strokeColor=none;connectable=1;part=1;perimeter=none;points=[[0,0,0]];snapToPoint=1;" parent="88" vertex="1">
          <mxGeometry x="4" y="60" width="1" height="1" as="geometry" />
        </mxCell>
        <mxCell id="94" value="" style="ellipse;allowArrows=1;editable=0;movable=0;resizable=0;rotatable=0;cloneable=0;deletable=0;fillColor=none;strokeColor=none;connectable=1;part=1;perimeter=none;points=[[0,0,0]];snapToPoint=1;" parent="88" vertex="1">
          <mxGeometry x="4" y="90" width="1" height="1" as="geometry" />
        </mxCell>
        <mxCell id="95" value="" style="ellipse;allowArrows=1;editable=0;movable=0;resizable=0;rotatable=0;cloneable=0;deletable=0;fillColor=none;strokeColor=none;connectable=1;part=1;perimeter=none;points=[[0,0,0]];snapToPoint=1;" parent="88" vertex="1">
          <mxGeometry x="37" y="121" width="1" height="1" as="geometry" />
        </mxCell>
        <mxCell id="96" value="" style="ellipse;allowArrows=1;editable=0;movable=0;resizable=0;rotatable=0;cloneable=0;deletable=0;fillColor=none;strokeColor=none;connectable=1;part=1;perimeter=none;points=[[0,0,0]];snapToPoint=1;" parent="88" vertex="1">
          <mxGeometry x="94" y="121" width="1" height="1" as="geometry" />
        </mxCell>
        <mxCell id="97" value="" style="ellipse;allowArrows=1;editable=0;movable=0;resizable=0;rotatable=0;cloneable=0;deletable=0;fillColor=none;strokeColor=none;connectable=1;part=1;perimeter=none;points=[[0,0,0]];snapToPoint=1;" parent="88" vertex="1">
          <mxGeometry x="151" y="121" width="1" height="1" as="geometry" />
        </mxCell>
        <mxCell id="98" value="" style="ellipse;allowArrows=1;editable=0;movable=0;resizable=0;rotatable=0;cloneable=0;deletable=0;fillColor=none;strokeColor=none;connectable=1;part=1;perimeter=none;points=[[0,0,0]];snapToPoint=1;" parent="88" vertex="1">
          <mxGeometry x="194" y="30" width="1" height="1" as="geometry" />
        </mxCell>
        <mxCell id="99" value="" style="ellipse;allowArrows=1;editable=0;movable=0;resizable=0;rotatable=0;cloneable=0;deletable=0;fillColor=none;strokeColor=none;connectable=1;part=1;perimeter=none;points=[[0,0,0]];snapToPoint=1;" parent="88" vertex="1">
          <mxGeometry x="194" y="60" width="1" height="1" as="geometry" />
        </mxCell>
        <mxCell id="100" value="" style="ellipse;allowArrows=1;editable=0;movable=0;resizable=0;rotatable=0;cloneable=0;deletable=0;fillColor=none;strokeColor=none;connectable=1;part=1;perimeter=none;points=[[0,0,0]];snapToPoint=1;" parent="88" vertex="1">
          <mxGeometry x="194" y="90" width="1" height="1" as="geometry" />
        </mxCell>
        <mxCell id="101" value="&lt;font style=&quot;font-size: 15px;&quot;&gt;Compute (Baremetal)&lt;/font&gt;" style="rounded=0;shadow=0;fillColor=#e6e6e6;strokeColor=default;fillOpacity=100;strokeOpacity=100;html=1;fontColor=#4C4C4C;fontStyle=1;whiteSpace=wrap;align=left;verticalAlign=top;spacingTop=5;spacingLeft=10;spacingRight=10;spacingBottom=10;fontFamily=Red Hat Text;fontSize=10;editable=1;movable=1;rotatable=0;cloneable=0;deletable=1;connectable=0;recursiveResize=0;dashed=1;dashPattern=12 12;perimeterSpacing=2;" parent="1" vertex="1">
          <mxGeometry x="1260" y="146" width="500" height="664" as="geometry" />
        </mxCell>
        <mxCell id="102" value="" style="group;allowArrows=0;dropTarget=0;recursiveResize=0;expand=0;editable=1;resizable=1;rotatable=1;cloneable=0;movable=1;deletable=1;connectable=1;" parent="1" vertex="1" connectable="0">
          <mxGeometry x="1040" y="660" width="204" height="125" as="geometry" />
        </mxCell>
        <mxCell id="103" value="" style="shape=image;image=data:image/svg+xml,PHN2ZyB4bWxucz0iaHR0cDovL3d3dy53My5vcmcvMjAwMC9zdmciIHdpZHRoPSIyMDBweCIgdmlld0JveD0iLTQgMCAyMDQgMTI1Ij48ZWxsaXBzZSBjeD0iMCIgY3k9IjMwIiByeD0iNCIgcnk9IjQiIGZpbGw9IiNmZmZmZmYiIHN0cm9rZT0ibm9uZSIvPjxlbGxpcHNlIGN4PSIwIiBjeT0iNjAiIHJ4PSI0IiByeT0iNCIgZmlsbD0iI2ZmZmZmZiIgc3Ryb2tlPSJub25lIi8+PGVsbGlwc2UgY3g9IjAiIGN5PSI5MCIgcng9IjQiIHJ5PSI0IiBmaWxsPSIjZmZmZmZmIiBzdHJva2U9Im5vbmUiLz48ZWxsaXBzZSBjeD0iMzMiIGN5PSIxMjEiIHJ4PSI0IiByeT0iNCIgZmlsbD0iI2NkY2VjZSIgc3Ryb2tlPSJub25lIi8+PGVsbGlwc2UgY3g9IjkwIiBjeT0iMTIxIiByeD0iNCIgcnk9IjQiIGZpbGw9IiNjZGNlY2UiIHN0cm9rZT0ibm9uZSIvPjxlbGxpcHNlIGN4PSIxNDciIGN5PSIxMjEiIHJ4PSI0IiByeT0iNCIgZmlsbD0iI2NkY2VjZSIgc3Ryb2tlPSJub25lIi8+PGc+PHJlY3QgeD0iNCIgeT0iNCIgd2lkdGg9IjE5NiIgaGVpZ2h0PSIxMTYiIGZpbGw9IiNjZGNlY2UiIHN0cm9rZT0ibm9uZSIvPjxyZWN0IHg9IjAiIHk9IjAiIHdpZHRoPSIxODAiIGhlaWdodD0iMTE2IiBmaWxsPSIjZmZmZmZmIiBzdHJva2U9Im5vbmUiLz48cmVjdCB4PSIzIiB5PSIzIiB3aWR0aD0iMTc0IiBoZWlnaHQ9IjExMCIgZmlsbD0ibm9uZSIgc3Ryb2tlPSIjY2RjZWNlIi8+PGVsbGlwc2UgY3g9IjE5MCIgY3k9IjMwIiByeD0iNCIgcnk9IjQiIGZpbGw9IiNhZWFlYWUiIHN0cm9rZT0ibm9uZSIvPjxlbGxpcHNlIGN4PSIxOTAiIGN5PSI2MCIgcng9IjQiIHJ5PSI0IiBmaWxsPSIjYWVhZWFlIiBzdHJva2U9Im5vbmUiLz48ZWxsaXBzZSBjeD0iMTkwIiBjeT0iOTAiIHJ4PSI0IiByeT0iNCIgZmlsbD0iI2FlYWVhZSIgc3Ryb2tlPSJub25lIi8+PC9nPjwvc3ZnPg==;connectable=1;allowArrows=0;recursiveResize=0;expand=0;rotatable=1;cloneable=0;editable=1;movable=1;resizable=1;deletable=1;part=1;locked=0;" parent="102" vertex="1">
          <mxGeometry width="204" height="125" as="geometry" />
        </mxCell>
        <mxCell id="104" value="" style="shape=image;image=data:image/svg+xml,PHN2ZyBpZD0iYjA3OWY5YjItNTZiOC00NWI5LTliMzItMTY1ZDYwZWQ4YWZiIiBkYXRhLW5hbWU9Ikljb24iIHhtbG5zPSJodHRwOi8vd3d3LnczLm9yZy8yMDAwL3N2ZyIgdmlld0JveD0iMCAwIDM2IDM2Ij48ZGVmcz48c3R5bGU+LmFkOTc1MWY3LTEyM2UtNGNlNC1hOTQ5LTA1OTM1NDc4NTE5NSB7ZmlsbDogI2ZmZjt9PC9zdHlsZT48L2RlZnM+PGc+PHJlY3Qgd2lkdGg9IjEwMCUiIGhlaWdodD0iMTAwJSIgZmlsbD0iIzQzYWRhZiIvPjxwYXRoIGNsYXNzPSJhZDk3NTFmNy0xMjNlLTRjZTQtYTk0OS0wNTkzNTQ3ODUxOTUiIGQ9Ik0zMSwxMi4zOEg1YS42My42MywwLDAsMC0uNjMuNjJWMjNhLjYzLjYzLDAsMCwwLC42My42MkgzMWEuNjIuNjIsMCwwLDAsLjYyLS42MlYxM0EuNjIuNjIsMCwwLDAsMzEsMTIuMzhabS0uNjMsMTBINS42MlYxMy42MkgzMC4zN1oiLz48cGF0aCBjbGFzcz0iYWQ5NzUxZjctMTIzZS00Y2U0LWE5NDktMDU5MzU0Nzg1MTk1IiBkPSJNOSwxOC42Mmg2YS42Mi42MiwwLDAsMCwwLTEuMjRIOWEuNjIuNjIsMCwxLDAsMCwxLjI0WiIvPjxwYXRoIGNsYXNzPSJhZDk3NTFmNy0xMjNlLTRjZTQtYTk0OS0wNTkzNTQ3ODUxOTUiIGQ9Ik0yNC4yLDI0Ljg5YS42My42MywwLDEsMCwuNjMuNjJBLjYyLjYyLDAsMCwwLDI0LjIsMjQuODlaIi8+PHBhdGggY2xhc3M9ImFkOTc1MWY3LTEyM2UtNGNlNC1hOTQ5LTA1OTM1NDc4NTE5NSIgZD0iTTguNywyNC44OWEuNjMuNjMsMCwxLDAsLjYyLjYyQS42My42MywwLDAsMCw4LjcsMjQuODlaIi8+PHBhdGggY2xhc3M9ImFkOTc1MWY3LTEyM2UtNGNlNC1hOTQ5LTA1OTM1NDc4NTE5NSIgZD0iTTE4LDI0Ljg5YS42My42MywwLDAsMCwwLDEuMjUuNjMuNjMsMCwwLDAsMC0xLjI1WiIvPjxwYXRoIGNsYXNzPSJhZDk3NTFmNy0xMjNlLTRjZTQtYTk0OS0wNTkzNTQ3ODUxOTUiIGQ9Ik0yNy4zLDI0Ljg5YS42My42MywwLDEsMCwuNjMuNjJBLjYyLjYyLDAsMCwwLDI3LjMsMjQuODlaIi8+PHBhdGggY2xhc3M9ImFkOTc1MWY3LTEyM2UtNGNlNC1hOTQ5LTA1OTM1NDc4NTE5NSIgZD0iTTIxLjEsMjQuODlhLjYzLjYzLDAsMSwwLC42My42MkEuNjMuNjMsMCwwLDAsMjEuMSwyNC44OVoiLz48cGF0aCBjbGFzcz0iYWQ5NzUxZjctMTIzZS00Y2U0LWE5NDktMDU5MzU0Nzg1MTk1IiBkPSJNNS42LDI0Ljg5YS42My42MywwLDEsMCwuNjIuNjJBLjYzLjYzLDAsMCwwLDUuNiwyNC44OVoiLz48cGF0aCBjbGFzcz0iYWQ5NzUxZjctMTIzZS00Y2U0LWE5NDktMDU5MzU0Nzg1MTk1IiBkPSJNMzAuNCwyNC44OWEuNjMuNjMsMCwxLDAsLjYzLjYyQS42Mi42MiwwLDAsMCwzMC40LDI0Ljg5WiIvPjxwYXRoIGNsYXNzPSJhZDk3NTFmNy0xMjNlLTRjZTQtYTk0OS0wNTkzNTQ3ODUxOTUiIGQ9Ik0xMS44LDI0Ljg5YS42My42MywwLDEsMCwuNjIuNjJBLjYzLjYzLDAsMCwwLDExLjgsMjQuODlaIi8+PHBhdGggY2xhc3M9ImFkOTc1MWY3LTEyM2UtNGNlNC1hOTQ5LTA1OTM1NDc4NTE5NSIgZD0iTTE0LjksMjQuODlhLjYzLjYzLDAsMSwwLC42Mi42MkEuNjMuNjMsMCwwLDAsMTQuOSwyNC44OVoiLz48cGF0aCBjbGFzcz0iYWQ5NzUxZjctMTIzZS00Y2U0LWE5NDktMDU5MzU0Nzg1MTk1IiBkPSJNMi41LDEyLjg3YS42My42MywwLDEsMCwuNjIuNjJBLjYzLjYzLDAsMCwwLDIuNSwxMi44N1oiLz48cGF0aCBjbGFzcz0iYWQ5NzUxZjctMTIzZS00Y2U0LWE5NDktMDU5MzU0Nzg1MTk1IiBkPSJNMi41LDIxLjg4YS42My42MywwLDEsMCwuNjIuNjNBLjYzLjYzLDAsMCwwLDIuNSwyMS44OFoiLz48cGF0aCBjbGFzcz0iYWQ5NzUxZjctMTIzZS00Y2U0LWE5NDktMDU5MzU0Nzg1MTk1IiBkPSJNMi41LDE1Ljg3YS42My42MywwLDEsMCwuNjIuNjNBLjYzLjYzLDAsMCwwLDIuNSwxNS44N1oiLz48cGF0aCBjbGFzcz0iYWQ5NzUxZjctMTIzZS00Y2U0LWE5NDktMDU5MzU0Nzg1MTk1IiBkPSJNMi41LDE4Ljg4YS42My42MywwLDEsMCwuNjIuNjJBLjYzLjYzLDAsMCwwLDIuNSwxOC44OFoiLz48cGF0aCBjbGFzcz0iYWQ5NzUxZjctMTIzZS00Y2U0LWE5NDktMDU5MzU0Nzg1MTk1IiBkPSJNOC43LDExLjExYS42My42MywwLDEsMC0uNjMtLjYyQS42Mi42MiwwLDAsMCw4LjcsMTEuMTFaIi8+PHBhdGggY2xhc3M9ImFkOTc1MWY3LTEyM2UtNGNlNC1hOTQ5LTA1OTM1NDc4NTE5NSIgZD0iTTExLjgsMTEuMTFhLjYzLjYzLDAsMSwwLS42My0uNjJBLjYyLjYyLDAsMCwwLDExLjgsMTEuMTFaIi8+PHBhdGggY2xhc3M9ImFkOTc1MWY3LTEyM2UtNGNlNC1hOTQ5LTA1OTM1NDc4NTE5NSIgZD0iTTE0LjksMTEuMTFhLjYzLjYzLDAsMSwwLS42My0uNjJBLjYyLjYyLDAsMCwwLDE0LjksMTEuMTFaIi8+PHBhdGggY2xhc3M9ImFkOTc1MWY3LTEyM2UtNGNlNC1hOTQ5LTA1OTM1NDc4NTE5NSIgZD0iTTI0LjIsMTEuMTFhLjYzLjYzLDAsMSwwLS42Mi0uNjJBLjYzLjYzLDAsMCwwLDI0LjIsMTEuMTFaIi8+PHBhdGggY2xhc3M9ImFkOTc1MWY3LTEyM2UtNGNlNC1hOTQ5LTA1OTM1NDc4NTE5NSIgZD0iTTIxLjEsMTEuMTFhLjYzLjYzLDAsMSwwLS42Mi0uNjJBLjYzLjYzLDAsMCwwLDIxLjEsMTEuMTFaIi8+PHBhdGggY2xhc3M9ImFkOTc1MWY3LTEyM2UtNGNlNC1hOTQ5LTA1OTM1NDc4NTE5NSIgZD0iTTE4LDExLjExYS42My42MywwLDEsMC0uNjMtLjYyQS42My42MywwLDAsMCwxOCwxMS4xMVoiLz48cGF0aCBjbGFzcz0iYWQ5NzUxZjctMTIzZS00Y2U0LWE5NDktMDU5MzU0Nzg1MTk1IiBkPSJNMjcuMywxMS4xMWEuNjMuNjMsMCwxLDAtLjYyLS42MkEuNjMuNjMsMCwwLDAsMjcuMywxMS4xMVoiLz48cGF0aCBjbGFzcz0iYWQ5NzUxZjctMTIzZS00Y2U0LWE5NDktMDU5MzU0Nzg1MTk1IiBkPSJNMzAuNCwxMS4xMWEuNjMuNjMsMCwxLDAtLjYyLS42MkEuNjMuNjMsMCwwLDAsMzAuNCwxMS4xMVoiLz48cGF0aCBjbGFzcz0iYWQ5NzUxZjctMTIzZS00Y2U0LWE5NDktMDU5MzU0Nzg1MTk1IiBkPSJNNS42LDExLjExQS42My42MywwLDEsMCw1LDEwLjQ5LjYyLjYyLDAsMCwwLDUuNiwxMS4xMVoiLz48cGF0aCBjbGFzcz0iYWQ5NzUxZjctMTIzZS00Y2U0LWE5NDktMDU5MzU0Nzg1MTk1IiBkPSJNMzMuNSwxOC44OGEuNjIuNjIsMCwwLDAtLjYyLjYyLjYzLjYzLDAsMSwwLDEuMjUsMEEuNjIuNjIsMCwwLDAsMzMuNSwxOC44OFoiLz48cGF0aCBjbGFzcz0iYWQ5NzUxZjctMTIzZS00Y2U0LWE5NDktMDU5MzU0Nzg1MTk1IiBkPSJNMzMuNSwyMS44OGEuNjMuNjMsMCwxLDAsLjYzLjYzQS42My42MywwLDAsMCwzMy41LDIxLjg4WiIvPjxwYXRoIGNsYXNzPSJhZDk3NTFmNy0xMjNlLTRjZTQtYTk0OS0wNTkzNTQ3ODUxOTUiIGQ9Ik0zMy41LDEyLjg3YS42My42MywwLDEsMCwuNjMuNjJBLjYyLjYyLDAsMCwwLDMzLjUsMTIuODdaIi8+PHBhdGggY2xhc3M9ImFkOTc1MWY3LTEyM2UtNGNlNC1hOTQ5LTA1OTM1NDc4NTE5NSIgZD0iTTMzLjUsMTUuODdhLjYzLjYzLDAsMSwwLC42My42M0EuNjMuNjMsMCwwLDAsMzMuNSwxNS44N1oiLz48cGF0aCBjbGFzcz0iYWQ5NzUxZjctMTIzZS00Y2U0LWE5NDktMDU5MzU0Nzg1MTk1IiBkPSJNMzMuNSw5Ljg2YS42My42MywwLDEsMCwuNjMuNjJBLjYyLjYyLDAsMCwwLDMzLjUsOS44NloiLz48cGF0aCBjbGFzcz0iYWQ5NzUxZjctMTIzZS00Y2U0LWE5NDktMDU5MzU0Nzg1MTk1IiBkPSJNMi40OSw5Ljg2YS42My42MywwLDEsMCwuNjMuNjJBLjYyLjYyLDAsMCwwLDIuNDksOS44NloiLz48cGF0aCBjbGFzcz0iYWQ5NzUxZjctMTIzZS00Y2U0LWE5NDktMDU5MzU0Nzg1MTk1IiBkPSJNMi40OSwyNC44OWEuNjMuNjMsMCwxLDAsLjYzLjYyQS42Mi42MiwwLDAsMCwyLjQ5LDI0Ljg5WiIvPjxwYXRoIGNsYXNzPSJhZDk3NTFmNy0xMjNlLTRjZTQtYTk0OS0wNTkzNTQ3ODUxOTUiIGQ9Ik0zMy41LDI0Ljg5YS42My42MywwLDEsMCwuNjMuNjJBLjYyLjYyLDAsMCwwLDMzLjUsMjQuODlaIi8+PHBhdGggY2xhc3M9ImFkOTc1MWY3LTEyM2UtNGNlNC1hOTQ5LTA1OTM1NDc4NTE5NSIgZD0iTTI3LDE3LjM3YS42My42MywwLDEsMCwuNjMuNjJBLjYyLjYyLDAsMCwwLDI3LDE3LjM3WiIvPjwvZz48L3N2Zz4=;recursiveResize=0;editable=0;resizable=0;rotatable=0;cloneable=0;imageAspect=0;connectable=0;movable=1;fontFamily=Helvetica;fontSize=12;fontColor=#000000;align=center;strokeColor=#000000;fillColor=#ffffff;part=1;" parent="102" vertex="1">
          <mxGeometry x="134" y="10" width="40" height="40" as="geometry" />
        </mxCell>
        <mxCell id="105" value="RHCOS" style="whiteSpace=wrap;html=1;fillColor=none;strokeColor=none;align=left;fontFamily=Red Hat Text;fontSize=11;fontStyle=0;verticalAlign=bottom;fontColor=#595959;movable=0;rotatable=0;cloneable=0;deletable=1;connectable=0;imageAspect=0;recursiveResize=0;resizable=0;allowArrows=0;expand=0;part=1;" parent="102" vertex="1">
          <mxGeometry x="14" y="58" width="130" height="48" as="geometry" />
        </mxCell>
        <mxCell id="106" value="" style="ellipse;allowArrows=1;editable=0;movable=0;resizable=0;rotatable=0;cloneable=0;deletable=0;fillColor=none;strokeColor=none;connectable=1;part=1;perimeter=none;points=[[0,0,0]];snapToPoint=1;" parent="102" vertex="1">
          <mxGeometry x="4" y="30" width="1" height="1" as="geometry" />
        </mxCell>
        <mxCell id="107" value="" style="ellipse;allowArrows=1;editable=0;movable=0;resizable=0;rotatable=0;cloneable=0;deletable=0;fillColor=none;strokeColor=none;connectable=1;part=1;perimeter=none;points=[[0,0,0]];snapToPoint=1;" parent="102" vertex="1">
          <mxGeometry x="4" y="60" width="1" height="1" as="geometry" />
        </mxCell>
        <mxCell id="108" value="" style="ellipse;allowArrows=1;editable=0;movable=0;resizable=0;rotatable=0;cloneable=0;deletable=0;fillColor=none;strokeColor=none;connectable=1;part=1;perimeter=none;points=[[0,0,0]];snapToPoint=1;" parent="102" vertex="1">
          <mxGeometry x="4" y="90" width="1" height="1" as="geometry" />
        </mxCell>
        <mxCell id="109" value="" style="ellipse;allowArrows=1;editable=0;movable=0;resizable=0;rotatable=0;cloneable=0;deletable=0;fillColor=none;strokeColor=none;connectable=1;part=1;perimeter=none;points=[[0,0,0]];snapToPoint=1;" parent="102" vertex="1">
          <mxGeometry x="37" y="121" width="1" height="1" as="geometry" />
        </mxCell>
        <mxCell id="110" value="" style="ellipse;allowArrows=1;editable=0;movable=0;resizable=0;rotatable=0;cloneable=0;deletable=0;fillColor=none;strokeColor=none;connectable=1;part=1;perimeter=none;points=[[0,0,0]];snapToPoint=1;" parent="102" vertex="1">
          <mxGeometry x="94" y="121" width="1" height="1" as="geometry" />
        </mxCell>
        <mxCell id="111" value="" style="ellipse;allowArrows=1;editable=0;movable=0;resizable=0;rotatable=0;cloneable=0;deletable=0;fillColor=none;strokeColor=none;connectable=1;part=1;perimeter=none;points=[[0,0,0]];snapToPoint=1;" parent="102" vertex="1">
          <mxGeometry x="151" y="121" width="1" height="1" as="geometry" />
        </mxCell>
        <mxCell id="112" value="" style="ellipse;allowArrows=1;editable=0;movable=0;resizable=0;rotatable=0;cloneable=0;deletable=0;fillColor=none;strokeColor=none;connectable=1;part=1;perimeter=none;points=[[0,0,0]];snapToPoint=1;" parent="102" vertex="1">
          <mxGeometry x="194" y="30" width="1" height="1" as="geometry" />
        </mxCell>
        <mxCell id="113" value="" style="ellipse;allowArrows=1;editable=0;movable=0;resizable=0;rotatable=0;cloneable=0;deletable=0;fillColor=none;strokeColor=none;connectable=1;part=1;perimeter=none;points=[[0,0,0]];snapToPoint=1;" parent="102" vertex="1">
          <mxGeometry x="194" y="60" width="1" height="1" as="geometry" />
        </mxCell>
        <mxCell id="114" value="" style="ellipse;allowArrows=1;editable=0;movable=0;resizable=0;rotatable=0;cloneable=0;deletable=0;fillColor=none;strokeColor=none;connectable=1;part=1;perimeter=none;points=[[0,0,0]];snapToPoint=1;" parent="102" vertex="1">
          <mxGeometry x="194" y="90" width="1" height="1" as="geometry" />
        </mxCell>
        <mxCell id="115" value="Compute Node" style="whiteSpace=wrap;html=1;fillColor=#43ADAF;strokeColor=#43ADAF;fontColor=#FFFFFF;movable=0;resizable=0;rotatable=0;cloneable=0;deletable=0;imageAspect=0;connectable=0;recursiveResize=0;fontFamily=Red Hat Text;fontStyle=1;align=left;fontSize=12;spacingLeft=10;spacingRight=50;allowArrows=0;expand=0;part=1;" parent="102" vertex="1">
          <mxGeometry x="14" y="10" width="160" height="40" as="geometry" />
        </mxCell>
        <mxCell id="116" value="" style="group;allowArrows=0;dropTarget=0;recursiveResize=0;expand=0;editable=1;resizable=1;rotatable=1;cloneable=0;movable=1;deletable=1;locked=0;connectable=1;" parent="1" vertex="1" connectable="0">
          <mxGeometry x="1350" y="185" width="204" height="125" as="geometry" />
        </mxCell>
        <mxCell id="117" value="" style="shape=image;image=data:image/svg+xml,PHN2ZyB4bWxucz0iaHR0cDovL3d3dy53My5vcmcvMjAwMC9zdmciIHdpZHRoPSIyMDBweCIgdmlld0JveD0iLTQgMCAyMDQgMTI1Ij48ZWxsaXBzZSBjeD0iMCIgY3k9IjMwIiByeD0iNCIgcnk9IjQiIGZpbGw9IiNmZmZmZmYiIHN0cm9rZT0ibm9uZSIvPjxlbGxpcHNlIGN4PSIwIiBjeT0iNjAiIHJ4PSI0IiByeT0iNCIgZmlsbD0iI2ZmZmZmZiIgc3Ryb2tlPSJub25lIi8+PGVsbGlwc2UgY3g9IjAiIGN5PSI5MCIgcng9IjQiIHJ5PSI0IiBmaWxsPSIjZmZmZmZmIiBzdHJva2U9Im5vbmUiLz48ZWxsaXBzZSBjeD0iMzMiIGN5PSIxMjEiIHJ4PSI0IiByeT0iNCIgZmlsbD0iI2NkY2VjZSIgc3Ryb2tlPSJub25lIi8+PGVsbGlwc2UgY3g9IjkwIiBjeT0iMTIxIiByeD0iNCIgcnk9IjQiIGZpbGw9IiNjZGNlY2UiIHN0cm9rZT0ibm9uZSIvPjxlbGxpcHNlIGN4PSIxNDciIGN5PSIxMjEiIHJ4PSI0IiByeT0iNCIgZmlsbD0iI2NkY2VjZSIgc3Ryb2tlPSJub25lIi8+PGc+PHJlY3QgeD0iNCIgeT0iNCIgd2lkdGg9IjE5NiIgaGVpZ2h0PSIxMTYiIGZpbGw9IiNjZGNlY2UiIHN0cm9rZT0ibm9uZSIvPjxyZWN0IHg9IjAiIHk9IjAiIHdpZHRoPSIxODAiIGhlaWdodD0iMTE2IiBmaWxsPSIjZmZmZmZmIiBzdHJva2U9Im5vbmUiLz48cmVjdCB4PSIzIiB5PSIzIiB3aWR0aD0iMTc0IiBoZWlnaHQ9IjExMCIgZmlsbD0ibm9uZSIgc3Ryb2tlPSIjY2RjZWNlIi8+PGVsbGlwc2UgY3g9IjE5MCIgY3k9IjMwIiByeD0iNCIgcnk9IjQiIGZpbGw9IiNhZWFlYWUiIHN0cm9rZT0ibm9uZSIvPjxlbGxpcHNlIGN4PSIxOTAiIGN5PSI2MCIgcng9IjQiIHJ5PSI0IiBmaWxsPSIjYWVhZWFlIiBzdHJva2U9Im5vbmUiLz48ZWxsaXBzZSBjeD0iMTkwIiBjeT0iOTAiIHJ4PSI0IiByeT0iNCIgZmlsbD0iI2FlYWVhZSIgc3Ryb2tlPSJub25lIi8+PC9nPjwvc3ZnPg==;connectable=1;allowArrows=0;recursiveResize=0;expand=0;rotatable=1;cloneable=0;editable=1;movable=1;resizable=1;deletable=1;part=1;locked=0;" parent="116" vertex="1">
          <mxGeometry width="204" height="125" as="geometry" />
        </mxCell>
        <mxCell id="118" value="Virtual Machine" style="whiteSpace=wrap;html=1;fillColor=#4C4C4C;strokeColor=#4C4C4C;fontColor=#FFFFFF;movable=0;resizable=0;rotatable=0;cloneable=0;deletable=0;imageAspect=0;connectable=0;recursiveResize=0;fontFamily=Red Hat Text;fontStyle=1;align=left;fontSize=12;spacingLeft=10;spacingRight=50;allowArrows=0;expand=0;part=1;" parent="116" vertex="1">
          <mxGeometry x="14" y="10" width="160" height="40" as="geometry" />
        </mxCell>
        <mxCell id="119" value="" style="shape=image;image=data:image/svg+xml,PHN2ZyB4bWxucz0iaHR0cDovL3d3dy53My5vcmcvMjAwMC9zdmciIHZpZXdCb3g9IjAgMCA0MCA0MCI+PHRpdGxlPkJsYW5rPC90aXRsZT48ZyBpZD0iZGlhZ3JhbSI+PHJlY3Qgd2lkdGg9IjEwMCUiIGhlaWdodD0iMTAwJSIgZmlsbD0iIzRjNGM0YyIvPjwvZz48L3N2Zz4=;recursiveResize=0;editable=0;resizable=0;rotatable=0;cloneable=0;imageAspect=0;connectable=0;movable=1;fontFamily=Helvetica;fontSize=12;fontColor=#000000;align=center;strokeColor=#000000;fillColor=#ffffff;part=1;" parent="116" vertex="1">
          <mxGeometry x="134" y="10" width="40" height="40" as="geometry" />
        </mxCell>
        <mxCell id="120" value="x2" style="whiteSpace=wrap;html=1;fillColor=none;strokeColor=none;align=right;fontFamily=Red Hat Text;fontSize=10;fontStyle=1;verticalAlign=bottom;fontColor=#595959;movable=0;resizable=0;rotatable=0;cloneable=0;deletable=1;connectable=0;recursiveResize=0;allowArrows=0;expand=0;part=1;" parent="116" vertex="1">
          <mxGeometry x="144" y="76" width="30" height="30" as="geometry" />
        </mxCell>
        <mxCell id="121" value="OSCP" style="whiteSpace=wrap;html=1;fillColor=none;strokeColor=none;align=left;fontFamily=Red Hat Text;fontSize=11;fontStyle=0;verticalAlign=bottom;fontColor=#595959;movable=0;rotatable=0;cloneable=0;deletable=1;connectable=0;imageAspect=0;recursiveResize=0;resizable=0;allowArrows=0;expand=0;part=1;" parent="116" vertex="1">
          <mxGeometry x="14" y="58" width="130" height="48" as="geometry" />
        </mxCell>
        <mxCell id="122" value="" style="ellipse;allowArrows=1;editable=0;movable=0;resizable=0;rotatable=0;cloneable=0;deletable=0;fillColor=none;strokeColor=none;connectable=1;part=1;perimeter=none;points=[[0,0,0]];snapToPoint=1;" parent="116" vertex="1">
          <mxGeometry x="4" y="30" width="1" height="1" as="geometry" />
        </mxCell>
        <mxCell id="123" value="" style="ellipse;allowArrows=1;editable=0;movable=0;resizable=0;rotatable=0;cloneable=0;deletable=0;fillColor=none;strokeColor=none;connectable=1;part=1;perimeter=none;points=[[0,0,0]];snapToPoint=1;" parent="116" vertex="1">
          <mxGeometry x="4" y="60" width="1" height="1" as="geometry" />
        </mxCell>
        <mxCell id="124" value="" style="ellipse;allowArrows=1;editable=0;movable=0;resizable=0;rotatable=0;cloneable=0;deletable=0;fillColor=none;strokeColor=none;connectable=1;part=1;perimeter=none;points=[[0,0,0]];snapToPoint=1;" parent="116" vertex="1">
          <mxGeometry x="4" y="90" width="1" height="1" as="geometry" />
        </mxCell>
        <mxCell id="125" value="" style="ellipse;allowArrows=1;editable=0;movable=0;resizable=0;rotatable=0;cloneable=0;deletable=0;fillColor=none;strokeColor=none;connectable=1;part=1;perimeter=none;points=[[0,0,0]];snapToPoint=1;" parent="116" vertex="1">
          <mxGeometry x="37" y="121" width="1" height="1" as="geometry" />
        </mxCell>
        <mxCell id="126" value="" style="ellipse;allowArrows=1;editable=0;movable=0;resizable=0;rotatable=0;cloneable=0;deletable=0;fillColor=none;strokeColor=none;connectable=1;part=1;perimeter=none;points=[[0,0,0]];snapToPoint=1;" parent="116" vertex="1">
          <mxGeometry x="94" y="121" width="1" height="1" as="geometry" />
        </mxCell>
        <mxCell id="127" value="" style="ellipse;allowArrows=1;editable=0;movable=0;resizable=0;rotatable=0;cloneable=0;deletable=0;fillColor=none;strokeColor=none;connectable=1;part=1;perimeter=none;points=[[0,0,0]];snapToPoint=1;" parent="116" vertex="1">
          <mxGeometry x="151" y="121" width="1" height="1" as="geometry" />
        </mxCell>
        <mxCell id="128" value="" style="ellipse;allowArrows=1;editable=0;movable=0;resizable=0;rotatable=0;cloneable=0;deletable=0;fillColor=none;strokeColor=none;connectable=1;part=1;perimeter=none;points=[[0,0,0]];snapToPoint=1;" parent="116" vertex="1">
          <mxGeometry x="194" y="30" width="1" height="1" as="geometry" />
        </mxCell>
        <mxCell id="129" value="" style="ellipse;allowArrows=1;editable=1;movable=1;resizable=1;rotatable=1;cloneable=0;deletable=1;fillColor=none;strokeColor=none;connectable=1;part=1;perimeter=none;points=[[0,0,0]];snapToPoint=1;locked=0;" parent="116" vertex="1">
          <mxGeometry x="194" y="60" width="1" height="1" as="geometry" />
        </mxCell>
        <mxCell id="130" value="" style="ellipse;allowArrows=1;editable=0;movable=0;resizable=0;rotatable=0;cloneable=0;deletable=0;fillColor=none;strokeColor=none;connectable=1;part=1;perimeter=none;points=[[0,0,0]];snapToPoint=1;" parent="116" vertex="1">
          <mxGeometry x="194" y="90" width="1" height="1" as="geometry" />
        </mxCell>
        <mxCell id="131" value="" style="group;allowArrows=0;dropTarget=0;recursiveResize=0;expand=0;editable=1;resizable=1;rotatable=1;cloneable=0;movable=1;deletable=1;connectable=1;" parent="1" vertex="1" connectable="0">
          <mxGeometry x="1530" y="660" width="204" height="125" as="geometry" />
        </mxCell>
        <mxCell id="132" value="" style="shape=image;image=data:image/svg+xml,PHN2ZyB4bWxucz0iaHR0cDovL3d3dy53My5vcmcvMjAwMC9zdmciIHdpZHRoPSIyMDBweCIgdmlld0JveD0iLTQgMCAyMDQgMTI1Ij48ZWxsaXBzZSBjeD0iMCIgY3k9IjMwIiByeD0iNCIgcnk9IjQiIGZpbGw9IiNmZmZmZmYiIHN0cm9rZT0ibm9uZSIvPjxlbGxpcHNlIGN4PSIwIiBjeT0iNjAiIHJ4PSI0IiByeT0iNCIgZmlsbD0iI2ZmZmZmZiIgc3Ryb2tlPSJub25lIi8+PGVsbGlwc2UgY3g9IjAiIGN5PSI5MCIgcng9IjQiIHJ5PSI0IiBmaWxsPSIjZmZmZmZmIiBzdHJva2U9Im5vbmUiLz48ZWxsaXBzZSBjeD0iMzMiIGN5PSIxMjEiIHJ4PSI0IiByeT0iNCIgZmlsbD0iI2NkY2VjZSIgc3Ryb2tlPSJub25lIi8+PGVsbGlwc2UgY3g9IjkwIiBjeT0iMTIxIiByeD0iNCIgcnk9IjQiIGZpbGw9IiNjZGNlY2UiIHN0cm9rZT0ibm9uZSIvPjxlbGxpcHNlIGN4PSIxNDciIGN5PSIxMjEiIHJ4PSI0IiByeT0iNCIgZmlsbD0iI2NkY2VjZSIgc3Ryb2tlPSJub25lIi8+PGc+PHJlY3QgeD0iNCIgeT0iNCIgd2lkdGg9IjE5NiIgaGVpZ2h0PSIxMTYiIGZpbGw9IiNjZGNlY2UiIHN0cm9rZT0ibm9uZSIvPjxyZWN0IHg9IjAiIHk9IjAiIHdpZHRoPSIxODAiIGhlaWdodD0iMTE2IiBmaWxsPSIjZmZmZmZmIiBzdHJva2U9Im5vbmUiLz48cmVjdCB4PSIzIiB5PSIzIiB3aWR0aD0iMTc0IiBoZWlnaHQ9IjExMCIgZmlsbD0ibm9uZSIgc3Ryb2tlPSIjY2RjZWNlIi8+PGVsbGlwc2UgY3g9IjE5MCIgY3k9IjMwIiByeD0iNCIgcnk9IjQiIGZpbGw9IiNhZWFlYWUiIHN0cm9rZT0ibm9uZSIvPjxlbGxpcHNlIGN4PSIxOTAiIGN5PSI2MCIgcng9IjQiIHJ5PSI0IiBmaWxsPSIjYWVhZWFlIiBzdHJva2U9Im5vbmUiLz48ZWxsaXBzZSBjeD0iMTkwIiBjeT0iOTAiIHJ4PSI0IiByeT0iNCIgZmlsbD0iI2FlYWVhZSIgc3Ryb2tlPSJub25lIi8+PC9nPjwvc3ZnPg==;connectable=1;allowArrows=0;recursiveResize=0;expand=0;rotatable=1;cloneable=0;editable=1;movable=1;resizable=1;deletable=1;part=1;locked=0;" parent="131" vertex="1">
          <mxGeometry width="204" height="125" as="geometry" />
        </mxCell>
        <mxCell id="133" value="" style="shape=image;image=data:image/svg+xml,PHN2ZyBpZD0iYjA3OWY5YjItNTZiOC00NWI5LTliMzItMTY1ZDYwZWQ4YWZiIiBkYXRhLW5hbWU9Ikljb24iIHhtbG5zPSJodHRwOi8vd3d3LnczLm9yZy8yMDAwL3N2ZyIgdmlld0JveD0iMCAwIDM2IDM2Ij48ZGVmcz48c3R5bGU+LmFkOTc1MWY3LTEyM2UtNGNlNC1hOTQ5LTA1OTM1NDc4NTE5NSB7ZmlsbDogI2ZmZjt9PC9zdHlsZT48L2RlZnM+PGc+PHJlY3Qgd2lkdGg9IjEwMCUiIGhlaWdodD0iMTAwJSIgZmlsbD0iIzQzYWRhZiIvPjxwYXRoIGNsYXNzPSJhZDk3NTFmNy0xMjNlLTRjZTQtYTk0OS0wNTkzNTQ3ODUxOTUiIGQ9Ik0zMSwxMi4zOEg1YS42My42MywwLDAsMC0uNjMuNjJWMjNhLjYzLjYzLDAsMCwwLC42My42MkgzMWEuNjIuNjIsMCwwLDAsLjYyLS42MlYxM0EuNjIuNjIsMCwwLDAsMzEsMTIuMzhabS0uNjMsMTBINS42MlYxMy42MkgzMC4zN1oiLz48cGF0aCBjbGFzcz0iYWQ5NzUxZjctMTIzZS00Y2U0LWE5NDktMDU5MzU0Nzg1MTk1IiBkPSJNOSwxOC42Mmg2YS42Mi42MiwwLDAsMCwwLTEuMjRIOWEuNjIuNjIsMCwxLDAsMCwxLjI0WiIvPjxwYXRoIGNsYXNzPSJhZDk3NTFmNy0xMjNlLTRjZTQtYTk0OS0wNTkzNTQ3ODUxOTUiIGQ9Ik0yNC4yLDI0Ljg5YS42My42MywwLDEsMCwuNjMuNjJBLjYyLjYyLDAsMCwwLDI0LjIsMjQuODlaIi8+PHBhdGggY2xhc3M9ImFkOTc1MWY3LTEyM2UtNGNlNC1hOTQ5LTA1OTM1NDc4NTE5NSIgZD0iTTguNywyNC44OWEuNjMuNjMsMCwxLDAsLjYyLjYyQS42My42MywwLDAsMCw4LjcsMjQuODlaIi8+PHBhdGggY2xhc3M9ImFkOTc1MWY3LTEyM2UtNGNlNC1hOTQ5LTA1OTM1NDc4NTE5NSIgZD0iTTE4LDI0Ljg5YS42My42MywwLDAsMCwwLDEuMjUuNjMuNjMsMCwwLDAsMC0xLjI1WiIvPjxwYXRoIGNsYXNzPSJhZDk3NTFmNy0xMjNlLTRjZTQtYTk0OS0wNTkzNTQ3ODUxOTUiIGQ9Ik0yNy4zLDI0Ljg5YS42My42MywwLDEsMCwuNjMuNjJBLjYyLjYyLDAsMCwwLDI3LjMsMjQuODlaIi8+PHBhdGggY2xhc3M9ImFkOTc1MWY3LTEyM2UtNGNlNC1hOTQ5LTA1OTM1NDc4NTE5NSIgZD0iTTIxLjEsMjQuODlhLjYzLjYzLDAsMSwwLC42My42MkEuNjMuNjMsMCwwLDAsMjEuMSwyNC44OVoiLz48cGF0aCBjbGFzcz0iYWQ5NzUxZjctMTIzZS00Y2U0LWE5NDktMDU5MzU0Nzg1MTk1IiBkPSJNNS42LDI0Ljg5YS42My42MywwLDEsMCwuNjIuNjJBLjYzLjYzLDAsMCwwLDUuNiwyNC44OVoiLz48cGF0aCBjbGFzcz0iYWQ5NzUxZjctMTIzZS00Y2U0LWE5NDktMDU5MzU0Nzg1MTk1IiBkPSJNMzAuNCwyNC44OWEuNjMuNjMsMCwxLDAsLjYzLjYyQS42Mi42MiwwLDAsMCwzMC40LDI0Ljg5WiIvPjxwYXRoIGNsYXNzPSJhZDk3NTFmNy0xMjNlLTRjZTQtYTk0OS0wNTkzNTQ3ODUxOTUiIGQ9Ik0xMS44LDI0Ljg5YS42My42MywwLDEsMCwuNjIuNjJBLjYzLjYzLDAsMCwwLDExLjgsMjQuODlaIi8+PHBhdGggY2xhc3M9ImFkOTc1MWY3LTEyM2UtNGNlNC1hOTQ5LTA1OTM1NDc4NTE5NSIgZD0iTTE0LjksMjQuODlhLjYzLjYzLDAsMSwwLC42Mi42MkEuNjMuNjMsMCwwLDAsMTQuOSwyNC44OVoiLz48cGF0aCBjbGFzcz0iYWQ5NzUxZjctMTIzZS00Y2U0LWE5NDktMDU5MzU0Nzg1MTk1IiBkPSJNMi41LDEyLjg3YS42My42MywwLDEsMCwuNjIuNjJBLjYzLjYzLDAsMCwwLDIuNSwxMi44N1oiLz48cGF0aCBjbGFzcz0iYWQ5NzUxZjctMTIzZS00Y2U0LWE5NDktMDU5MzU0Nzg1MTk1IiBkPSJNMi41LDIxLjg4YS42My42MywwLDEsMCwuNjIuNjNBLjYzLjYzLDAsMCwwLDIuNSwyMS44OFoiLz48cGF0aCBjbGFzcz0iYWQ5NzUxZjctMTIzZS00Y2U0LWE5NDktMDU5MzU0Nzg1MTk1IiBkPSJNMi41LDE1Ljg3YS42My42MywwLDEsMCwuNjIuNjNBLjYzLjYzLDAsMCwwLDIuNSwxNS44N1oiLz48cGF0aCBjbGFzcz0iYWQ5NzUxZjctMTIzZS00Y2U0LWE5NDktMDU5MzU0Nzg1MTk1IiBkPSJNMi41LDE4Ljg4YS42My42MywwLDEsMCwuNjIuNjJBLjYzLjYzLDAsMCwwLDIuNSwxOC44OFoiLz48cGF0aCBjbGFzcz0iYWQ5NzUxZjctMTIzZS00Y2U0LWE5NDktMDU5MzU0Nzg1MTk1IiBkPSJNOC43LDExLjExYS42My42MywwLDEsMC0uNjMtLjYyQS42Mi42MiwwLDAsMCw4LjcsMTEuMTFaIi8+PHBhdGggY2xhc3M9ImFkOTc1MWY3LTEyM2UtNGNlNC1hOTQ5LTA1OTM1NDc4NTE5NSIgZD0iTTExLjgsMTEuMTFhLjYzLjYzLDAsMSwwLS42My0uNjJBLjYyLjYyLDAsMCwwLDExLjgsMTEuMTFaIi8+PHBhdGggY2xhc3M9ImFkOTc1MWY3LTEyM2UtNGNlNC1hOTQ5LTA1OTM1NDc4NTE5NSIgZD0iTTE0LjksMTEuMTFhLjYzLjYzLDAsMSwwLS42My0uNjJBLjYyLjYyLDAsMCwwLDE0LjksMTEuMTFaIi8+PHBhdGggY2xhc3M9ImFkOTc1MWY3LTEyM2UtNGNlNC1hOTQ5LTA1OTM1NDc4NTE5NSIgZD0iTTI0LjIsMTEuMTFhLjYzLjYzLDAsMSwwLS42Mi0uNjJBLjYzLjYzLDAsMCwwLDI0LjIsMTEuMTFaIi8+PHBhdGggY2xhc3M9ImFkOTc1MWY3LTEyM2UtNGNlNC1hOTQ5LTA1OTM1NDc4NTE5NSIgZD0iTTIxLjEsMTEuMTFhLjYzLjYzLDAsMSwwLS42Mi0uNjJBLjYzLjYzLDAsMCwwLDIxLjEsMTEuMTFaIi8+PHBhdGggY2xhc3M9ImFkOTc1MWY3LTEyM2UtNGNlNC1hOTQ5LTA1OTM1NDc4NTE5NSIgZD0iTTE4LDExLjExYS42My42MywwLDEsMC0uNjMtLjYyQS42My42MywwLDAsMCwxOCwxMS4xMVoiLz48cGF0aCBjbGFzcz0iYWQ5NzUxZjctMTIzZS00Y2U0LWE5NDktMDU5MzU0Nzg1MTk1IiBkPSJNMjcuMywxMS4xMWEuNjMuNjMsMCwxLDAtLjYyLS42MkEuNjMuNjMsMCwwLDAsMjcuMywxMS4xMVoiLz48cGF0aCBjbGFzcz0iYWQ5NzUxZjctMTIzZS00Y2U0LWE5NDktMDU5MzU0Nzg1MTk1IiBkPSJNMzAuNCwxMS4xMWEuNjMuNjMsMCwxLDAtLjYyLS42MkEuNjMuNjMsMCwwLDAsMzAuNCwxMS4xMVoiLz48cGF0aCBjbGFzcz0iYWQ5NzUxZjctMTIzZS00Y2U0LWE5NDktMDU5MzU0Nzg1MTk1IiBkPSJNNS42LDExLjExQS42My42MywwLDEsMCw1LDEwLjQ5LjYyLjYyLDAsMCwwLDUuNiwxMS4xMVoiLz48cGF0aCBjbGFzcz0iYWQ5NzUxZjctMTIzZS00Y2U0LWE5NDktMDU5MzU0Nzg1MTk1IiBkPSJNMzMuNSwxOC44OGEuNjIuNjIsMCwwLDAtLjYyLjYyLjYzLjYzLDAsMSwwLDEuMjUsMEEuNjIuNjIsMCwwLDAsMzMuNSwxOC44OFoiLz48cGF0aCBjbGFzcz0iYWQ5NzUxZjctMTIzZS00Y2U0LWE5NDktMDU5MzU0Nzg1MTk1IiBkPSJNMzMuNSwyMS44OGEuNjMuNjMsMCwxLDAsLjYzLjYzQS42My42MywwLDAsMCwzMy41LDIxLjg4WiIvPjxwYXRoIGNsYXNzPSJhZDk3NTFmNy0xMjNlLTRjZTQtYTk0OS0wNTkzNTQ3ODUxOTUiIGQ9Ik0zMy41LDEyLjg3YS42My42MywwLDEsMCwuNjMuNjJBLjYyLjYyLDAsMCwwLDMzLjUsMTIuODdaIi8+PHBhdGggY2xhc3M9ImFkOTc1MWY3LTEyM2UtNGNlNC1hOTQ5LTA1OTM1NDc4NTE5NSIgZD0iTTMzLjUsMTUuODdhLjYzLjYzLDAsMSwwLC42My42M0EuNjMuNjMsMCwwLDAsMzMuNSwxNS44N1oiLz48cGF0aCBjbGFzcz0iYWQ5NzUxZjctMTIzZS00Y2U0LWE5NDktMDU5MzU0Nzg1MTk1IiBkPSJNMzMuNSw5Ljg2YS42My42MywwLDEsMCwuNjMuNjJBLjYyLjYyLDAsMCwwLDMzLjUsOS44NloiLz48cGF0aCBjbGFzcz0iYWQ5NzUxZjctMTIzZS00Y2U0LWE5NDktMDU5MzU0Nzg1MTk1IiBkPSJNMi40OSw5Ljg2YS42My42MywwLDEsMCwuNjMuNjJBLjYyLjYyLDAsMCwwLDIuNDksOS44NloiLz48cGF0aCBjbGFzcz0iYWQ5NzUxZjctMTIzZS00Y2U0LWE5NDktMDU5MzU0Nzg1MTk1IiBkPSJNMi40OSwyNC44OWEuNjMuNjMsMCwxLDAsLjYzLjYyQS42Mi42MiwwLDAsMCwyLjQ5LDI0Ljg5WiIvPjxwYXRoIGNsYXNzPSJhZDk3NTFmNy0xMjNlLTRjZTQtYTk0OS0wNTkzNTQ3ODUxOTUiIGQ9Ik0zMy41LDI0Ljg5YS42My42MywwLDEsMCwuNjMuNjJBLjYyLjYyLDAsMCwwLDMzLjUsMjQuODlaIi8+PHBhdGggY2xhc3M9ImFkOTc1MWY3LTEyM2UtNGNlNC1hOTQ5LTA1OTM1NDc4NTE5NSIgZD0iTTI3LDE3LjM3YS42My42MywwLDEsMCwuNjMuNjJBLjYyLjYyLDAsMCwwLDI3LDE3LjM3WiIvPjwvZz48L3N2Zz4=;recursiveResize=0;editable=0;resizable=0;rotatable=0;cloneable=0;imageAspect=0;connectable=0;movable=1;fontFamily=Helvetica;fontSize=12;fontColor=#000000;align=center;strokeColor=#000000;fillColor=#ffffff;part=1;" parent="131" vertex="1">
          <mxGeometry x="134" y="10" width="40" height="40" as="geometry" />
        </mxCell>
        <mxCell id="134" value="RHCOS" style="whiteSpace=wrap;html=1;fillColor=none;strokeColor=none;align=left;fontFamily=Red Hat Text;fontSize=11;fontStyle=0;verticalAlign=bottom;fontColor=#595959;movable=0;rotatable=0;cloneable=0;deletable=1;connectable=0;imageAspect=0;recursiveResize=0;resizable=0;allowArrows=0;expand=0;part=1;" parent="131" vertex="1">
          <mxGeometry x="14" y="58" width="130" height="48" as="geometry" />
        </mxCell>
        <mxCell id="135" value="" style="ellipse;allowArrows=1;editable=0;movable=0;resizable=0;rotatable=0;cloneable=0;deletable=0;fillColor=none;strokeColor=none;connectable=1;part=1;perimeter=none;points=[[0,0,0]];snapToPoint=1;" parent="131" vertex="1">
          <mxGeometry x="4" y="30" width="1" height="1" as="geometry" />
        </mxCell>
        <mxCell id="136" value="" style="ellipse;allowArrows=1;editable=0;movable=0;resizable=0;rotatable=0;cloneable=0;deletable=0;fillColor=none;strokeColor=none;connectable=1;part=1;perimeter=none;points=[[0,0,0]];snapToPoint=1;" parent="131" vertex="1">
          <mxGeometry x="4" y="60" width="1" height="1" as="geometry" />
        </mxCell>
        <mxCell id="137" value="" style="ellipse;allowArrows=1;editable=0;movable=0;resizable=0;rotatable=0;cloneable=0;deletable=0;fillColor=none;strokeColor=none;connectable=1;part=1;perimeter=none;points=[[0,0,0]];snapToPoint=1;" parent="131" vertex="1">
          <mxGeometry x="4" y="90" width="1" height="1" as="geometry" />
        </mxCell>
        <mxCell id="138" value="" style="ellipse;allowArrows=1;editable=0;movable=0;resizable=0;rotatable=0;cloneable=0;deletable=0;fillColor=none;strokeColor=none;connectable=1;part=1;perimeter=none;points=[[0,0,0]];snapToPoint=1;" parent="131" vertex="1">
          <mxGeometry x="37" y="121" width="1" height="1" as="geometry" />
        </mxCell>
        <mxCell id="139" value="" style="ellipse;allowArrows=1;editable=0;movable=0;resizable=0;rotatable=0;cloneable=0;deletable=0;fillColor=none;strokeColor=none;connectable=1;part=1;perimeter=none;points=[[0,0,0]];snapToPoint=1;" parent="131" vertex="1">
          <mxGeometry x="94" y="121" width="1" height="1" as="geometry" />
        </mxCell>
        <mxCell id="140" value="" style="ellipse;allowArrows=1;editable=0;movable=0;resizable=0;rotatable=0;cloneable=0;deletable=0;fillColor=none;strokeColor=none;connectable=1;part=1;perimeter=none;points=[[0,0,0]];snapToPoint=1;" parent="131" vertex="1">
          <mxGeometry x="151" y="121" width="1" height="1" as="geometry" />
        </mxCell>
        <mxCell id="141" value="" style="ellipse;allowArrows=1;editable=0;movable=0;resizable=0;rotatable=0;cloneable=0;deletable=0;fillColor=none;strokeColor=none;connectable=1;part=1;perimeter=none;points=[[0,0,0]];snapToPoint=1;" parent="131" vertex="1">
          <mxGeometry x="194" y="30" width="1" height="1" as="geometry" />
        </mxCell>
        <mxCell id="142" value="" style="ellipse;allowArrows=1;editable=0;movable=0;resizable=0;rotatable=0;cloneable=0;deletable=0;fillColor=none;strokeColor=none;connectable=1;part=1;perimeter=none;points=[[0,0,0]];snapToPoint=1;" parent="131" vertex="1">
          <mxGeometry x="194" y="60" width="1" height="1" as="geometry" />
        </mxCell>
        <mxCell id="143" value="" style="ellipse;allowArrows=1;editable=0;movable=0;resizable=0;rotatable=0;cloneable=0;deletable=0;fillColor=none;strokeColor=none;connectable=1;part=1;perimeter=none;points=[[0,0,0]];snapToPoint=1;" parent="131" vertex="1">
          <mxGeometry x="194" y="90" width="1" height="1" as="geometry" />
        </mxCell>
        <mxCell id="144" value="Compute Node" style="whiteSpace=wrap;html=1;fillColor=#43ADAF;strokeColor=#43ADAF;fontColor=#FFFFFF;movable=0;resizable=0;rotatable=0;cloneable=0;deletable=0;imageAspect=0;connectable=0;recursiveResize=0;fontFamily=Red Hat Text;fontStyle=1;align=left;fontSize=12;spacingLeft=10;spacingRight=50;allowArrows=0;expand=0;part=1;" parent="131" vertex="1">
          <mxGeometry x="14" y="10" width="160" height="40" as="geometry" />
        </mxCell>
        <mxCell id="145" value="" style="rounded=0;shadow=0;fillColor=#4cb6d6;strokeColor=#4cb6d6;fillOpacity=10;strokeOpacity=20;html=1;fontColor=#4C4C4C;fontStyle=1;whiteSpace=wrap;align=left;verticalAlign=top;spacingTop=5;spacingLeft=10;spacingRight=10;spacingBottom=10;fontFamily=Red Hat Text;fontSize=10;editable=1;movable=1;rotatable=0;cloneable=0;deletable=1;connectable=0;recursiveResize=0;gradientColor=default;" parent="1" vertex="1">
          <mxGeometry x="1295" y="370" width="430" height="280" as="geometry" />
        </mxCell>
        <mxCell id="146" value="Virtual server" style="shape=image;image=data:image/svg+xml,PHN2ZyB4bWxucz0iaHR0cDovL3d3dy53My5vcmcvMjAwMC9zdmciIHZpZXdCb3g9IjAgMCA1Ny43OCAyNy41NCI+PHRpdGxlPkFzc2V0IDg5PC90aXRsZT48ZyBpZD0iTGF5ZXJfMiIgZGF0YS1uYW1lPSJMYXllciAyIj48ZyBpZD0iZGlhZ3JhbSI+PHBhdGggZD0iTTExLDJhLjY5LjY5LDAsMCwwLC4yNCwwbDEtLjQzYTIuNiwyLjYsMCwwLDEsLjQ3LS4xNkEuNjMuNjMsMCwwLDAsMTIuMzguMTRhMy42NSwzLjY1LDAsMCwwLS42Ni4yMmwtMSwuNDNBLjYzLjYzLDAsMCwwLDExLDJabTQuMTEtLjc0aDEuN0EuNjMuNjMsMCwwLDAsMTcuNC42NC42My42MywwLDAsMCwxNi43NywwaC0xLjdhLjYzLjYzLDAsMCwwLS42My42NEEuNjMuNjMsMCwwLDAsMTUuMDcsMS4yN1ptOC40OSwwaDEuN2EuNjQuNjQsMCwxLDAsMC0xLjI3aC0xLjdhLjYzLjYzLDAsMCwwLS42My42NEEuNjMuNjMsMCwwLDAsMjMuNTYsMS4yN1ptLTQuMjQsMEgyMWEuNjMuNjMsMCwwLDAsLjYzLS42M0EuNjMuNjMsMCwwLDAsMjEsMGgtMS43YS42NC42NCwwLDEsMCwwLDEuMjdaTTQuMiw3LjU2YS44NC44NCwwLDAsMC0uNDcsMSwuNzkuNzksMCwwLDAsMCwuMjJWMjNhLjg1Ljg1LDAsMCwwLC44NS44NUg1My4yNUEuODUuODUsMCwwLDAsNTQuMSwyM1Y4Ljc4YS43OS43OSwwLDAsMC0uMDUtLjIyLjgzLjgzLDAsMCwwLS40My0xTDQ1Ljg0LDMuNzdhLjg0Ljg0LDAsMCwwLS4zNy0uMDloLTMyYTEsMSwwLDAsMC0uMzMuMDdaTS42NCwxN2EuNjQuNjQsMCwwLDAsLjYzLS42NHYtMS43YS42My42MywwLDAsMC0uNjMtLjYzLjYzLjYzLDAsMCwwLS42NC42M3YxLjdBLjY0LjY0LDAsMCwwLC42NCwxN1ptMC00LjI1YS42My42MywwLDAsMCwuNjMtLjYzdi0xLjdhLjY0LjY0LDAsMSwwLTEuMjcsMHYxLjdBLjYzLjYzLDAsMCwwLC42NCwxMi43OFpNNy4wNSwzLjY3YS41OS41OSwwLDAsMCwuMjUsMEw4Ljg2LDNhLjY0LjY0LDAsMCwwLC4zMy0uODQuNjMuNjMsMCwwLDAtLjgzLS4zM0w2LjgsMi40NWEuNjUuNjUsMCwwLDAtLjM0Ljg0QS42NC42NCwwLDAsMCw3LjA1LDMuNjdaTTMuMTQsNS4zM2EuNTYuNTYsMCwwLDAsLjI1LDBMNSw0LjYyYS42NC42NCwwLDAsMCwuMzQtLjgzLjY0LjY0LDAsMCwwLS44NC0uMzRsLTEuNTYuNjdBLjYzLjYzLDAsMCwwLDIuNTYsNSwuNjIuNjIsMCwwLDAsMy4xNCw1LjMzWk00MC41NSwxLjI3aDEuN2EuNjMuNjMsMCwwLDAsLjYzLS42M0EuNjMuNjMsMCwwLDAsNDIuMjUsMGgtMS43YS42NC42NCwwLDEsMCwwLDEuMjdabTExLjc4LDNMNTMuODYsNWEuNjcuNjcsMCwwLDAsLjI4LjA2LjYzLjYzLDAsMCwwLC4yOC0xLjJsLTEuNTMtLjc1YS42NC42NCwwLDEsMC0uNTYsMS4xNFpNNDguNTIsMi4zOSw1MCwzLjE0YS43Mi43MiwwLDAsMCwuMjguMDcuNjQuNjQsMCwwLDAsLjU3LS4zNkEuNjIuNjIsMCwwLDAsNTAuNiwybC0xLjUyLS43NWEuNjQuNjQsMCwwLDAtLjg1LjI5QS42Mi42MiwwLDAsMCw0OC41MiwyLjM5Wk00NC43OSwxLjI3aC42OGEzLjU0LDMuNTQsMCwwLDEsLjg1LjExLjQ1LjQ1LDAsMCwwLC4xNiwwLC42My42MywwLDAsMCwuNjEtLjQ3LjYyLjYyLDAsMCwwLS40NC0uNzhBNC4zNiw0LjM2LDAsMCwwLDQ1LjQ3LDBoLS42OGEuNjMuNjMsMCwwLDAtLjYzLjY0QS42My42MywwLDAsMCw0NC43OSwxLjI3Wk01Ni4zOSw3LjVBLjYyLjYyLDAsMCwwLDU3LDhhLjQxLjQxLDAsMCwwLC4xNiwwLC42My42MywwLDAsMCwuNDYtLjc3LDQuNjMsNC42MywwLDAsMC0uOS0xLjc1LjYzLjYzLDAsMCwwLS44OS0uMDguNjUuNjUsMCwwLDAtLjA5LjlBMy4yNSwzLjI1LDAsMCwxLDU2LjM5LDcuNVpNLjY0LDIxLjI3YS42My42MywwLDAsMCwuNjMtLjYzdi0xLjdhLjY0LjY0LDAsMSwwLTEuMjcsMHYxLjdBLjYzLjYzLDAsMCwwLC42NCwyMS4yN1ptMjcuMTctMjBoMS43YS42My42MywwLDAsMCwuNjMtLjYzQS42My42MywwLDAsMCwyOS41MSwwaC0xLjdhLjY0LjY0LDAsMSwwLDAsMS4yN1ptNC4yNSwwaDEuNjlhLjY0LjY0LDAsMSwwLDAtMS4yN0gzMi4wNmEuNjQuNjQsMCwxLDAsMCwxLjI3Wm00LjI0LDBIMzhBLjY0LjY0LDAsMSwwLDM4LDBIMzYuM2EuNjMuNjMsMCwwLDAtLjYzLjY0QS42My42MywwLDAsMCwzNi4zLDEuMjdabTIuMjQsMjVoLTEuN2EuNjQuNjQsMCwxLDAsMCwxLjI3aDEuN2EuNjQuNjQsMCwwLDAsMC0xLjI3Wm04LjQ5LDBoLTEuN2EuNjQuNjQsMCwwLDAsMCwxLjI3SDQ3YS42NC42NCwwLDEsMCwwLTEuMjdabTQuMjUsMGgtMS43YS42NC42NCwwLDEsMCwwLDEuMjdoMS43YS42NC42NCwwLDAsMCwwLTEuMjdaTTU1LDI1LjczYTMuMTMsMy4xMywwLDAsMS0xLjMxLjUuNjQuNjQsMCwwLDAsLjA5LDEuMjdoLjA5YTQuNDQsNC40NCwwLDAsMCwxLjgzLS43LjYyLjYyLDAsMCwwLC4xOC0uODhBLjY0LjY0LDAsMCwwLDU1LDI1LjczWm0tMTIuMjYuNTRINDEuMDlhLjY0LjY0LDAsMSwwLDAsMS4yN2gxLjY5YS42NC42NCwwLDEsMCwwLTEuMjdabTE0LjM3LTguNTRhLjY0LjY0LDAsMCwwLS42NC42NHYxLjdhLjY0LjY0LDAsMCwwLC42NC42My42My42MywwLDAsMCwuNjMtLjYzdi0xLjdBLjY0LjY0LDAsMCwwLDU3LjE1LDE3LjczWm0wLTQuMjRhLjY0LjY0LDAsMCwwLS42NC42M3YxLjdhLjY0LjY0LDAsMCwwLC42NC42NC42NC42NCwwLDAsMCwuNjMtLjY0di0xLjdBLjYzLjYzLDAsMCwwLDU3LjE1LDEzLjQ5Wk0xLjI3LDIzLjE2YS42Mi42MiwwLDAsMC0uNjYtLjYxLjY0LjY0LDAsMCwwLS42MS42Niw0LjY0LDQuNjQsMCwwLDAsLjUxLDEuOS42Ni42NiwwLDAsMCwuNTcuMzQuNi42LDAsMCwwLC4yOS0uMDguNjMuNjMsMCwwLDAsLjI3LS44NUEzLjQxLDMuNDEsMCwwLDEsMS4yNywyMy4xNlpNNTcuMTUsMjJhLjY0LjY0LDAsMCwwLS42NC42M1YyM2EzLjIxLDMuMjEsMCwwLDEtLjE4LDEuMDcuNjQuNjQsMCwwLDAsLjM5LjgxLjc2Ljc2LDAsMCwwLC4yMSwwLC42Mi42MiwwLDAsMCwuNi0uNDJBNC40NCw0LjQ0LDAsMCwwLDU3Ljc4LDIzdi0uNEEuNjMuNjMsMCwwLDAsNTcuMTUsMjJaTTM0LjI5LDI2LjI3aC0xLjdhLjY0LjY0LDAsMCwwLDAsMS4yN2gxLjdhLjY0LjY0LDAsMSwwLDAtMS4yN1ptMjIuODYtMTdhLjY0LjY0LDAsMCwwLS42NC42NHYxLjY5YS42NC42NCwwLDAsMCwuNjQuNjQuNjQuNjQsMCwwLDAsLjYzLS42NFY5Ljg4QS42My42MywwLDAsMCw1Ny4xNSw5LjI0Wm0tNTIuNjIsMTdBMy4yMiwzLjIyLDAsMCwxLDMuMTYsMjZhLjY0LjY0LDAsMSwwLS41NCwxLjE1LDQuNDcsNC40NywwLDAsMCwxLjkxLjQyaDBhLjYyLjYyLDAsMCwwLC42Mi0uNjNBLjY2LjY2LDAsMCwwLDQuNTMsMjYuMjdabTI1LjUyLDBoLTEuN2EuNjQuNjQsMCwxLDAsMCwxLjI3aDEuN2EuNjQuNjQsMCwwLDAsMC0xLjI3Wm0tMTcsMGgtMS43YS42NC42NCwwLDAsMCwwLDEuMjdoMS43YS42NC42NCwwLDEsMCwwLTEuMjdaTTEuNTUsNS43NkEuNjQuNjQsMCwwLDAsLjY4LDYsNC42OSw0LjY5LDAsMCwwLDAsNy44M2EuNjMuNjMsMCwwLDAsLjU2LjdILjY4QS42NC42NCwwLDAsMCwxLjMxLDhhMy4yOCwzLjI4LDAsMCwxLC40NS0xLjMzQS42NC42NCwwLDAsMCwxLjU1LDUuNzZaTTguODEsMjYuMjdINy4xMmEuNjQuNjQsMCwxLDAsMCwxLjI3SDguODFhLjY0LjY0LDAsMSwwLDAtMS4yN1ptOC41LDBoLTEuN2EuNjQuNjQsMCwxLDAsMCwxLjI3aDEuN2EuNjQuNjQsMCwwLDAsMC0xLjI3Wm04LjQ5LDBIMjQuMWEuNjQuNjQsMCwwLDAsMCwxLjI3aDEuN2EuNjQuNjQsMCwwLDAsMC0xLjI3Wm0tNC4yNSwwaC0xLjdhLjY0LjY0LDAsMCwwLDAsMS4yN2gxLjdhLjY0LjY0LDAsMSwwLDAtMS4yN1oiIGZpbGw9IiNmZmYiLz48cGF0aCBkPSJNMy43Myw4LjU2YS43OS43OSwwLDAsMCwwLC4yMlYyM2EuODUuODUsMCwwLDAsLjg1Ljg1SDUzLjI1QS44NS44NSwwLDAsMCw1NC4xLDIzVjguNzhhLjc5Ljc5LDAsMCwwLS4wNS0uMjIuODMuODMsMCwwLDAtLjQzLTFMNDUuODQsMy43N2EuODQuODQsMCwwLDAtLjM3LS4wOWgtMzJhMSwxLDAsMCwwLS4zMy4wN2wtOSwzLjgxQS44NC44NCwwLDAsMCwzLjczLDguNTZabTkuOTMtMy4xOEg0NS4yN2w1LjIyLDIuNTVINy42NlpNNS4zOCw5LjgzaDQ3VjIyLjE2aC00N1oiIGZpbGw9ImdyYXkiLz48cGF0aCBkPSJNOS42NiwxNC43OUExLjE3LDEuMTcsMCwxLDAsMTAuODIsMTYsMS4xNiwxLjE2LDAsMCwwLDkuNjYsMTQuNzlaIiBmaWxsPSJncmF5Ii8+PGNpcmNsZSBjeD0iMTMuNzkiIGN5PSIxNS45NSIgcj0iMS4xNiIgZmlsbD0iZ3JheSIvPjxwYXRoIGQ9Ik00OS42NCwxMi4wOEg0Ny4xYS40Mi40MiwwLDAsMC0uNDIuNDJ2Ni43OGEuNDIuNDIsMCwwLDAsLjQyLjQyaDIuNTRhLjQyLjQyLDAsMCwwLC40Mi0uNDJWMTIuNUEuNDIuNDIsMCwwLDAsNDkuNjQsMTIuMDhabS0uNDIsNi43N2gtMS43VjEyLjkyaDEuN1oiIGZpbGw9ImdyYXkiLz48cGF0aCBkPSJNNDQuNTYsMTIuMDhINDJhLjQyLjQyLDAsMCwwLS40Mi40MnY2Ljc4YS40Mi40MiwwLDAsMCwuNDIuNDJoMi41NGEuNDIuNDIsMCwwLDAsLjQyLS40MlYxMi41QS40Mi40MiwwLDAsMCw0NC41NiwxMi4wOFptLS40Miw2Ljc3aC0xLjdWMTIuOTJoMS43WiIgZmlsbD0iZ3JheSIvPjxwYXRoIGQ9Ik0zMC4wNSwyNi4yN2gtMS43YS42NC42NCwwLDEsMCwwLDEuMjdoMS43YS42NC42NCwwLDAsMCwwLTEuMjdaIiBmaWxsPSJncmF5Ii8+PHBhdGggZD0iTTM0LjI5LDI2LjI3aC0xLjdhLjY0LjY0LDAsMCwwLDAsMS4yN2gxLjdhLjY0LjY0LDAsMSwwLDAtMS4yN1oiIGZpbGw9ImdyYXkiLz48cGF0aCBkPSJNMS41NSw1Ljc2QS42NC42NCwwLDAsMCwuNjgsNiw0LjY5LDQuNjksMCwwLDAsMCw3LjgzYS42My42MywwLDAsMCwuNTYuN0guNjhBLjY0LjY0LDAsMCwwLDEuMzEsOGEzLjI4LDMuMjgsMCwwLDEsLjQ1LTEuMzNBLjY0LjY0LDAsMCwwLDEuNTUsNS43NloiIGZpbGw9ImdyYXkiLz48cGF0aCBkPSJNMTcuMzEsMjYuMjdoLTEuN2EuNjQuNjQsMCwxLDAsMCwxLjI3aDEuN2EuNjQuNjQsMCwwLDAsMC0xLjI3WiIgZmlsbD0iZ3JheSIvPjxwYXRoIGQ9Ik04LjgxLDI2LjI3SDcuMTJhLjY0LjY0LDAsMSwwLDAsMS4yN0g4LjgxYS42NC42NCwwLDEsMCwwLTEuMjdaIiBmaWxsPSJncmF5Ii8+PHBhdGggZD0iTTQuNTMsMjYuMjdBMy4yMiwzLjIyLDAsMCwxLDMuMTYsMjZhLjY0LjY0LDAsMSwwLS41NCwxLjE1LDQuNDcsNC40NywwLDAsMCwxLjkxLjQyaDBhLjYyLjYyLDAsMCwwLC42Mi0uNjNBLjY2LjY2LDAsMCwwLDQuNTMsMjYuMjdaIiBmaWxsPSJncmF5Ii8+PHBhdGggZD0iTTM4LjU0LDI2LjI3aC0xLjdhLjY0LjY0LDAsMSwwLDAsMS4yN2gxLjdhLjY0LjY0LDAsMCwwLDAtMS4yN1oiIGZpbGw9ImdyYXkiLz48cGF0aCBkPSJNMTMuMDYsMjYuMjdoLTEuN2EuNjQuNjQsMCwwLDAsMCwxLjI3aDEuN2EuNjQuNjQsMCwxLDAsMC0xLjI3WiIgZmlsbD0iZ3JheSIvPjxwYXRoIGQ9Ik0yMS41NSwyNi4yN0gxOS44NmEuNjQuNjQsMCwxLDAsMCwxLjI3aDEuNjlhLjY0LjY0LDAsMSwwLDAtMS4yN1oiIGZpbGw9ImdyYXkiLz48cGF0aCBkPSJNNTcuMTUsMjJhLjY0LjY0LDAsMCwwLS42NC42M1YyM2EzLjIxLDMuMjEsMCwwLDEtLjE4LDEuMDcuNjQuNjQsMCwwLDAsLjM5LjgxLjc2Ljc2LDAsMCwwLC4yMSwwLC42Mi42MiwwLDAsMCwuNi0uNDJBNC40NCw0LjQ0LDAsMCwwLDU3Ljc4LDIzdi0uNEEuNjMuNjMsMCwwLDAsNTcuMTUsMjJaIiBmaWxsPSJncmF5Ii8+PHBhdGggZD0iTTQyLjc4LDI2LjI3SDQxLjA5YS42NC42NCwwLDEsMCwwLDEuMjdoMS42OWEuNjQuNjQsMCwxLDAsMC0xLjI3WiIgZmlsbD0iZ3JheSIvPjxwYXRoIGQ9Ik01Ny4xNSwxMy40OWEuNjQuNjQsMCwwLDAtLjY0LjYzdjEuN2EuNjQuNjQsMCwwLDAsLjY0LjY0LjY0LjY0LDAsMCwwLC42My0uNjR2LTEuN0EuNjMuNjMsMCwwLDAsNTcuMTUsMTMuNDlaIiBmaWxsPSJncmF5Ii8+PHBhdGggZD0iTTU3LjE1LDkuMjRhLjY0LjY0LDAsMCwwLS42NC42NHYxLjY5YS42NC42NCwwLDAsMCwuNjQuNjQuNjQuNjQsMCwwLDAsLjYzLS42NFY5Ljg4QS42My42MywwLDAsMCw1Ny4xNSw5LjI0WiIgZmlsbD0iZ3JheSIvPjxwYXRoIGQ9Ik01Ny4xNSwxNy43M2EuNjQuNjQsMCwwLDAtLjY0LjY0djEuN2EuNjQuNjQsMCwwLDAsLjY0LjYzLjYzLjYzLDAsMCwwLC42My0uNjN2LTEuN0EuNjQuNjQsMCwwLDAsNTcuMTUsMTcuNzNaIiBmaWxsPSJncmF5Ii8+PHBhdGggZD0iTTQ3LDI2LjI3aC0xLjdhLjY0LjY0LDAsMCwwLDAsMS4yN0g0N2EuNjQuNjQsMCwxLDAsMC0xLjI3WiIgZmlsbD0iZ3JheSIvPjxwYXRoIGQ9Ik01MS4yOCwyNi4yN2gtMS43YS42NC42NCwwLDEsMCwwLDEuMjdoMS43YS42NC42NCwwLDAsMCwwLTEuMjdaIiBmaWxsPSJncmF5Ii8+PHBhdGggZD0iTTU1LDI1LjczYTMuMTMsMy4xMywwLDAsMS0xLjMxLjUuNjQuNjQsMCwwLDAsLjA5LDEuMjdoLjA5YTQuNDQsNC40NCwwLDAsMCwxLjgzLS43LjYyLjYyLDAsMCwwLC4xOC0uODhBLjY0LjY0LDAsMCwwLDU1LDI1LjczWiIgZmlsbD0iZ3JheSIvPjxwYXRoIGQ9Ik0yNS44LDI2LjI3SDI0LjFhLjY0LjY0LDAsMCwwLDAsMS4yN2gxLjdhLjY0LjY0LDAsMCwwLDAtMS4yN1oiIGZpbGw9ImdyYXkiLz48cGF0aCBkPSJNMzIuMDYsMS4yN2gxLjY5YS42NC42NCwwLDEsMCwwLTEuMjdIMzIuMDZhLjY0LjY0LDAsMSwwLDAsMS4yN1oiIGZpbGw9ImdyYXkiLz48cGF0aCBkPSJNNDAuNTUsMS4yN2gxLjdhLjYzLjYzLDAsMCwwLC42My0uNjNBLjYzLjYzLDAsMCwwLDQyLjI1LDBoLTEuN2EuNjQuNjQsMCwxLDAsMCwxLjI3WiIgZmlsbD0iZ3JheSIvPjxwYXRoIGQ9Ik0yMy41NiwxLjI3aDEuN2EuNjQuNjQsMCwxLDAsMC0xLjI3aC0xLjdhLjYzLjYzLDAsMCwwLS42My42NEEuNjMuNjMsMCwwLDAsMjMuNTYsMS4yN1oiIGZpbGw9ImdyYXkiLz48cGF0aCBkPSJNMjcuODEsMS4yN2gxLjdhLjYzLjYzLDAsMCwwLC42My0uNjNBLjYzLjYzLDAsMCwwLDI5LjUxLDBoLTEuN2EuNjQuNjQsMCwxLDAsMCwxLjI3WiIgZmlsbD0iZ3JheSIvPjxwYXRoIGQ9Ik0zNi4zLDEuMjdIMzhBLjY0LjY0LDAsMSwwLDM4LDBIMzYuM2EuNjMuNjMsMCwwLDAtLjYzLjY0QS42My42MywwLDAsMCwzNi4zLDEuMjdaIiBmaWxsPSJncmF5Ii8+PHBhdGggZD0iTTUyLjMzLDQuMjYsNTMuODYsNWEuNjcuNjcsMCwwLDAsLjI4LjA2LjYzLjYzLDAsMCwwLC4yOC0xLjJsLTEuNTMtLjc1YS42NC42NCwwLDEsMC0uNTYsMS4xNFoiIGZpbGw9ImdyYXkiLz48cGF0aCBkPSJNNDQuNzksMS4yN2guNjhhMy41NCwzLjU0LDAsMCwxLC44NS4xMS40NS40NSwwLDAsMCwuMTYsMCwuNjMuNjMsMCwwLDAsLjYxLS40Ny42Mi42MiwwLDAsMC0uNDQtLjc4QTQuMzYsNC4zNiwwLDAsMCw0NS40NywwaC0uNjhhLjYzLjYzLDAsMCwwLS42My42NEEuNjMuNjMsMCwwLDAsNDQuNzksMS4yN1oiIGZpbGw9ImdyYXkiLz48cGF0aCBkPSJNNTYuMzksNy41QS42Mi42MiwwLDAsMCw1Nyw4YS40MS40MSwwLDAsMCwuMTYsMCwuNjMuNjMsMCwwLDAsLjQ2LS43Nyw0LjYzLDQuNjMsMCwwLDAtLjktMS43NS42My42MywwLDAsMC0uODktLjA4LjY1LjY1LDAsMCwwLS4wOS45QTMuMjUsMy4yNSwwLDAsMSw1Ni4zOSw3LjVaIiBmaWxsPSJncmF5Ii8+PHBhdGggZD0iTTQ4LjUyLDIuMzksNTAsMy4xNGEuNzIuNzIsMCwwLDAsLjI4LjA3LjY0LjY0LDAsMCwwLC41Ny0uMzZBLjYyLjYyLDAsMCwwLDUwLjYsMmwtMS41Mi0uNzVhLjY0LjY0LDAsMCwwLS44NS4yOUEuNjIuNjIsMCwwLDAsNDguNTIsMi4zOVoiIGZpbGw9ImdyYXkiLz48cGF0aCBkPSJNLjY0LDE3YS42NC42NCwwLDAsMCwuNjMtLjY0di0xLjdhLjYzLjYzLDAsMCwwLS42My0uNjMuNjMuNjMsMCwwLDAtLjY0LjYzdjEuN0EuNjQuNjQsMCwwLDAsLjY0LDE3WiIgZmlsbD0iZ3JheSIvPjxwYXRoIGQ9Ik0zLjE0LDUuMzNhLjU2LjU2LDAsMCwwLC4yNSwwTDUsNC42MmEuNjQuNjQsMCwwLDAsLjM0LS44My42NC42NCwwLDAsMC0uODQtLjM0bC0xLjU2LjY3QS42My42MywwLDAsMCwyLjU2LDUsLjYyLjYyLDAsMCwwLDMuMTQsNS4zM1oiIGZpbGw9ImdyYXkiLz48cGF0aCBkPSJNLjY0LDEyLjc4YS42My42MywwLDAsMCwuNjMtLjYzdi0xLjdhLjY0LjY0LDAsMSwwLTEuMjcsMHYxLjdBLjYzLjYzLDAsMCwwLC42NCwxMi43OFoiIGZpbGw9ImdyYXkiLz48cGF0aCBkPSJNMS4yNywyMy4xNmEuNjIuNjIsMCwwLDAtLjY2LS42MS42NC42NCwwLDAsMC0uNjEuNjYsNC42NCw0LjY0LDAsMCwwLC41MSwxLjkuNjYuNjYsMCwwLDAsLjU3LjM0LjYuNiwwLDAsMCwuMjktLjA4LjYzLjYzLDAsMCwwLC4yNy0uODVBMy40MSwzLjQxLDAsMCwxLDEuMjcsMjMuMTZaIiBmaWxsPSJncmF5Ii8+PHBhdGggZD0iTS42NCwyMS4yN2EuNjMuNjMsMCwwLDAsLjYzLS42M3YtMS43YS42NC42NCwwLDEsMC0xLjI3LDB2MS43QS42My42MywwLDAsMCwuNjQsMjEuMjdaIiBmaWxsPSJncmF5Ii8+PHBhdGggZD0iTTExLDJhLjY5LjY5LDAsMCwwLC4yNCwwbDEtLjQzYTIuNiwyLjYsMCwwLDEsLjQ3LS4xNkEuNjMuNjMsMCwwLDAsMTIuMzguMTRhMy42NSwzLjY1LDAsMCwwLS42Ni4yMmwtMSwuNDNBLjYzLjYzLDAsMCwwLDExLDJaIiBmaWxsPSJncmF5Ii8+PHBhdGggZD0iTTE1LjA3LDEuMjdoMS43QS42My42MywwLDAsMCwxNy40LjY0LjYzLjYzLDAsMCwwLDE2Ljc3LDBoLTEuN2EuNjMuNjMsMCwwLDAtLjYzLjY0QS42My42MywwLDAsMCwxNS4wNywxLjI3WiIgZmlsbD0iZ3JheSIvPjxwYXRoIGQ9Ik0xOS4zMiwxLjI3SDIxYS42My42MywwLDAsMCwuNjMtLjYzQS42My42MywwLDAsMCwyMSwwaC0xLjdhLjY0LjY0LDAsMSwwLDAsMS4yN1oiIGZpbGw9ImdyYXkiLz48cGF0aCBkPSJNNy4wNSwzLjY3YS41OS41OSwwLDAsMCwuMjUsMEw4Ljg2LDNhLjY0LjY0LDAsMCwwLC4zMy0uODQuNjMuNjMsMCwwLDAtLjgzLS4zM0w2LjgsMi40NWEuNjUuNjUsMCwwLDAtLjM0Ljg0QS42NC42NCwwLDAsMCw3LjA1LDMuNjdaIiBmaWxsPSJncmF5Ii8+PC9nPjwvZz48L3N2Zz4=;imageAlign=center;imageVerticalAlign=bottom;imageAspect=1;labelPosition=center;verticalLabelPosition=bottom;align=center;verticalAlign=top;spacingLeft=0;spacing=0;fontFamily=Red Hat Text;fontSize=14;fontStyle=0;spacing=0;fontColor=#808080;editable=1;connectable=0;resizable=1;rotatable=0;cloneable=0;" parent="1" vertex="1">
          <mxGeometry x="1411" y="390" width="80" height="80" as="geometry" />
        </mxCell>
        <mxCell id="147" value="Virtual server" style="shape=image;image=data:image/svg+xml,PHN2ZyB4bWxucz0iaHR0cDovL3d3dy53My5vcmcvMjAwMC9zdmciIHZpZXdCb3g9IjAgMCA1Ny43OCAyNy41NCI+PHRpdGxlPkFzc2V0IDg5PC90aXRsZT48ZyBpZD0iTGF5ZXJfMiIgZGF0YS1uYW1lPSJMYXllciAyIj48ZyBpZD0iZGlhZ3JhbSI+PHBhdGggZD0iTTExLDJhLjY5LjY5LDAsMCwwLC4yNCwwbDEtLjQzYTIuNiwyLjYsMCwwLDEsLjQ3LS4xNkEuNjMuNjMsMCwwLDAsMTIuMzguMTRhMy42NSwzLjY1LDAsMCwwLS42Ni4yMmwtMSwuNDNBLjYzLjYzLDAsMCwwLDExLDJabTQuMTEtLjc0aDEuN0EuNjMuNjMsMCwwLDAsMTcuNC42NC42My42MywwLDAsMCwxNi43NywwaC0xLjdhLjYzLjYzLDAsMCwwLS42My42NEEuNjMuNjMsMCwwLDAsMTUuMDcsMS4yN1ptOC40OSwwaDEuN2EuNjQuNjQsMCwxLDAsMC0xLjI3aC0xLjdhLjYzLjYzLDAsMCwwLS42My42NEEuNjMuNjMsMCwwLDAsMjMuNTYsMS4yN1ptLTQuMjQsMEgyMWEuNjMuNjMsMCwwLDAsLjYzLS42M0EuNjMuNjMsMCwwLDAsMjEsMGgtMS43YS42NC42NCwwLDEsMCwwLDEuMjdaTTQuMiw3LjU2YS44NC44NCwwLDAsMC0uNDcsMSwuNzkuNzksMCwwLDAsMCwuMjJWMjNhLjg1Ljg1LDAsMCwwLC44NS44NUg1My4yNUEuODUuODUsMCwwLDAsNTQuMSwyM1Y4Ljc4YS43OS43OSwwLDAsMC0uMDUtLjIyLjgzLjgzLDAsMCwwLS40My0xTDQ1Ljg0LDMuNzdhLjg0Ljg0LDAsMCwwLS4zNy0uMDloLTMyYTEsMSwwLDAsMC0uMzMuMDdaTS42NCwxN2EuNjQuNjQsMCwwLDAsLjYzLS42NHYtMS43YS42My42MywwLDAsMC0uNjMtLjYzLjYzLjYzLDAsMCwwLS42NC42M3YxLjdBLjY0LjY0LDAsMCwwLC42NCwxN1ptMC00LjI1YS42My42MywwLDAsMCwuNjMtLjYzdi0xLjdhLjY0LjY0LDAsMSwwLTEuMjcsMHYxLjdBLjYzLjYzLDAsMCwwLC42NCwxMi43OFpNNy4wNSwzLjY3YS41OS41OSwwLDAsMCwuMjUsMEw4Ljg2LDNhLjY0LjY0LDAsMCwwLC4zMy0uODQuNjMuNjMsMCwwLDAtLjgzLS4zM0w2LjgsMi40NWEuNjUuNjUsMCwwLDAtLjM0Ljg0QS42NC42NCwwLDAsMCw3LjA1LDMuNjdaTTMuMTQsNS4zM2EuNTYuNTYsMCwwLDAsLjI1LDBMNSw0LjYyYS42NC42NCwwLDAsMCwuMzQtLjgzLjY0LjY0LDAsMCwwLS44NC0uMzRsLTEuNTYuNjdBLjYzLjYzLDAsMCwwLDIuNTYsNSwuNjIuNjIsMCwwLDAsMy4xNCw1LjMzWk00MC41NSwxLjI3aDEuN2EuNjMuNjMsMCwwLDAsLjYzLS42M0EuNjMuNjMsMCwwLDAsNDIuMjUsMGgtMS43YS42NC42NCwwLDEsMCwwLDEuMjdabTExLjc4LDNMNTMuODYsNWEuNjcuNjcsMCwwLDAsLjI4LjA2LjYzLjYzLDAsMCwwLC4yOC0xLjJsLTEuNTMtLjc1YS42NC42NCwwLDEsMC0uNTYsMS4xNFpNNDguNTIsMi4zOSw1MCwzLjE0YS43Mi43MiwwLDAsMCwuMjguMDcuNjQuNjQsMCwwLDAsLjU3LS4zNkEuNjIuNjIsMCwwLDAsNTAuNiwybC0xLjUyLS43NWEuNjQuNjQsMCwwLDAtLjg1LjI5QS42Mi42MiwwLDAsMCw0OC41MiwyLjM5Wk00NC43OSwxLjI3aC42OGEzLjU0LDMuNTQsMCwwLDEsLjg1LjExLjQ1LjQ1LDAsMCwwLC4xNiwwLC42My42MywwLDAsMCwuNjEtLjQ3LjYyLjYyLDAsMCwwLS40NC0uNzhBNC4zNiw0LjM2LDAsMCwwLDQ1LjQ3LDBoLS42OGEuNjMuNjMsMCwwLDAtLjYzLjY0QS42My42MywwLDAsMCw0NC43OSwxLjI3Wk01Ni4zOSw3LjVBLjYyLjYyLDAsMCwwLDU3LDhhLjQxLjQxLDAsMCwwLC4xNiwwLC42My42MywwLDAsMCwuNDYtLjc3LDQuNjMsNC42MywwLDAsMC0uOS0xLjc1LjYzLjYzLDAsMCwwLS44OS0uMDguNjUuNjUsMCwwLDAtLjA5LjlBMy4yNSwzLjI1LDAsMCwxLDU2LjM5LDcuNVpNLjY0LDIxLjI3YS42My42MywwLDAsMCwuNjMtLjYzdi0xLjdhLjY0LjY0LDAsMSwwLTEuMjcsMHYxLjdBLjYzLjYzLDAsMCwwLC42NCwyMS4yN1ptMjcuMTctMjBoMS43YS42My42MywwLDAsMCwuNjMtLjYzQS42My42MywwLDAsMCwyOS41MSwwaC0xLjdhLjY0LjY0LDAsMSwwLDAsMS4yN1ptNC4yNSwwaDEuNjlhLjY0LjY0LDAsMSwwLDAtMS4yN0gzMi4wNmEuNjQuNjQsMCwxLDAsMCwxLjI3Wm00LjI0LDBIMzhBLjY0LjY0LDAsMSwwLDM4LDBIMzYuM2EuNjMuNjMsMCwwLDAtLjYzLjY0QS42My42MywwLDAsMCwzNi4zLDEuMjdabTIuMjQsMjVoLTEuN2EuNjQuNjQsMCwxLDAsMCwxLjI3aDEuN2EuNjQuNjQsMCwwLDAsMC0xLjI3Wm04LjQ5LDBoLTEuN2EuNjQuNjQsMCwwLDAsMCwxLjI3SDQ3YS42NC42NCwwLDEsMCwwLTEuMjdabTQuMjUsMGgtMS43YS42NC42NCwwLDEsMCwwLDEuMjdoMS43YS42NC42NCwwLDAsMCwwLTEuMjdaTTU1LDI1LjczYTMuMTMsMy4xMywwLDAsMS0xLjMxLjUuNjQuNjQsMCwwLDAsLjA5LDEuMjdoLjA5YTQuNDQsNC40NCwwLDAsMCwxLjgzLS43LjYyLjYyLDAsMCwwLC4xOC0uODhBLjY0LjY0LDAsMCwwLDU1LDI1LjczWm0tMTIuMjYuNTRINDEuMDlhLjY0LjY0LDAsMSwwLDAsMS4yN2gxLjY5YS42NC42NCwwLDEsMCwwLTEuMjdabTE0LjM3LTguNTRhLjY0LjY0LDAsMCwwLS42NC42NHYxLjdhLjY0LjY0LDAsMCwwLC42NC42My42My42MywwLDAsMCwuNjMtLjYzdi0xLjdBLjY0LjY0LDAsMCwwLDU3LjE1LDE3LjczWm0wLTQuMjRhLjY0LjY0LDAsMCwwLS42NC42M3YxLjdhLjY0LjY0LDAsMCwwLC42NC42NC42NC42NCwwLDAsMCwuNjMtLjY0di0xLjdBLjYzLjYzLDAsMCwwLDU3LjE1LDEzLjQ5Wk0xLjI3LDIzLjE2YS42Mi42MiwwLDAsMC0uNjYtLjYxLjY0LjY0LDAsMCwwLS42MS42Niw0LjY0LDQuNjQsMCwwLDAsLjUxLDEuOS42Ni42NiwwLDAsMCwuNTcuMzQuNi42LDAsMCwwLC4yOS0uMDguNjMuNjMsMCwwLDAsLjI3LS44NUEzLjQxLDMuNDEsMCwwLDEsMS4yNywyMy4xNlpNNTcuMTUsMjJhLjY0LjY0LDAsMCwwLS42NC42M1YyM2EzLjIxLDMuMjEsMCwwLDEtLjE4LDEuMDcuNjQuNjQsMCwwLDAsLjM5LjgxLjc2Ljc2LDAsMCwwLC4yMSwwLC42Mi42MiwwLDAsMCwuNi0uNDJBNC40NCw0LjQ0LDAsMCwwLDU3Ljc4LDIzdi0uNEEuNjMuNjMsMCwwLDAsNTcuMTUsMjJaTTM0LjI5LDI2LjI3aC0xLjdhLjY0LjY0LDAsMCwwLDAsMS4yN2gxLjdhLjY0LjY0LDAsMSwwLDAtMS4yN1ptMjIuODYtMTdhLjY0LjY0LDAsMCwwLS42NC42NHYxLjY5YS42NC42NCwwLDAsMCwuNjQuNjQuNjQuNjQsMCwwLDAsLjYzLS42NFY5Ljg4QS42My42MywwLDAsMCw1Ny4xNSw5LjI0Wm0tNTIuNjIsMTdBMy4yMiwzLjIyLDAsMCwxLDMuMTYsMjZhLjY0LjY0LDAsMSwwLS41NCwxLjE1LDQuNDcsNC40NywwLDAsMCwxLjkxLjQyaDBhLjYyLjYyLDAsMCwwLC42Mi0uNjNBLjY2LjY2LDAsMCwwLDQuNTMsMjYuMjdabTI1LjUyLDBoLTEuN2EuNjQuNjQsMCwxLDAsMCwxLjI3aDEuN2EuNjQuNjQsMCwwLDAsMC0xLjI3Wm0tMTcsMGgtMS43YS42NC42NCwwLDAsMCwwLDEuMjdoMS43YS42NC42NCwwLDEsMCwwLTEuMjdaTTEuNTUsNS43NkEuNjQuNjQsMCwwLDAsLjY4LDYsNC42OSw0LjY5LDAsMCwwLDAsNy44M2EuNjMuNjMsMCwwLDAsLjU2LjdILjY4QS42NC42NCwwLDAsMCwxLjMxLDhhMy4yOCwzLjI4LDAsMCwxLC40NS0xLjMzQS42NC42NCwwLDAsMCwxLjU1LDUuNzZaTTguODEsMjYuMjdINy4xMmEuNjQuNjQsMCwxLDAsMCwxLjI3SDguODFhLjY0LjY0LDAsMSwwLDAtMS4yN1ptOC41LDBoLTEuN2EuNjQuNjQsMCwxLDAsMCwxLjI3aDEuN2EuNjQuNjQsMCwwLDAsMC0xLjI3Wm04LjQ5LDBIMjQuMWEuNjQuNjQsMCwwLDAsMCwxLjI3aDEuN2EuNjQuNjQsMCwwLDAsMC0xLjI3Wm0tNC4yNSwwaC0xLjdhLjY0LjY0LDAsMCwwLDAsMS4yN2gxLjdhLjY0LjY0LDAsMSwwLDAtMS4yN1oiIGZpbGw9IiNmZmYiLz48cGF0aCBkPSJNMy43Myw4LjU2YS43OS43OSwwLDAsMCwwLC4yMlYyM2EuODUuODUsMCwwLDAsLjg1Ljg1SDUzLjI1QS44NS44NSwwLDAsMCw1NC4xLDIzVjguNzhhLjc5Ljc5LDAsMCwwLS4wNS0uMjIuODMuODMsMCwwLDAtLjQzLTFMNDUuODQsMy43N2EuODQuODQsMCwwLDAtLjM3LS4wOWgtMzJhMSwxLDAsMCwwLS4zMy4wN2wtOSwzLjgxQS44NC44NCwwLDAsMCwzLjczLDguNTZabTkuOTMtMy4xOEg0NS4yN2w1LjIyLDIuNTVINy42NlpNNS4zOCw5LjgzaDQ3VjIyLjE2aC00N1oiIGZpbGw9ImdyYXkiLz48cGF0aCBkPSJNOS42NiwxNC43OUExLjE3LDEuMTcsMCwxLDAsMTAuODIsMTYsMS4xNiwxLjE2LDAsMCwwLDkuNjYsMTQuNzlaIiBmaWxsPSJncmF5Ii8+PGNpcmNsZSBjeD0iMTMuNzkiIGN5PSIxNS45NSIgcj0iMS4xNiIgZmlsbD0iZ3JheSIvPjxwYXRoIGQ9Ik00OS42NCwxMi4wOEg0Ny4xYS40Mi40MiwwLDAsMC0uNDIuNDJ2Ni43OGEuNDIuNDIsMCwwLDAsLjQyLjQyaDIuNTRhLjQyLjQyLDAsMCwwLC40Mi0uNDJWMTIuNUEuNDIuNDIsMCwwLDAsNDkuNjQsMTIuMDhabS0uNDIsNi43N2gtMS43VjEyLjkyaDEuN1oiIGZpbGw9ImdyYXkiLz48cGF0aCBkPSJNNDQuNTYsMTIuMDhINDJhLjQyLjQyLDAsMCwwLS40Mi40MnY2Ljc4YS40Mi40MiwwLDAsMCwuNDIuNDJoMi41NGEuNDIuNDIsMCwwLDAsLjQyLS40MlYxMi41QS40Mi40MiwwLDAsMCw0NC41NiwxMi4wOFptLS40Miw2Ljc3aC0xLjdWMTIuOTJoMS43WiIgZmlsbD0iZ3JheSIvPjxwYXRoIGQ9Ik0zMC4wNSwyNi4yN2gtMS43YS42NC42NCwwLDEsMCwwLDEuMjdoMS43YS42NC42NCwwLDAsMCwwLTEuMjdaIiBmaWxsPSJncmF5Ii8+PHBhdGggZD0iTTM0LjI5LDI2LjI3aC0xLjdhLjY0LjY0LDAsMCwwLDAsMS4yN2gxLjdhLjY0LjY0LDAsMSwwLDAtMS4yN1oiIGZpbGw9ImdyYXkiLz48cGF0aCBkPSJNMS41NSw1Ljc2QS42NC42NCwwLDAsMCwuNjgsNiw0LjY5LDQuNjksMCwwLDAsMCw3LjgzYS42My42MywwLDAsMCwuNTYuN0guNjhBLjY0LjY0LDAsMCwwLDEuMzEsOGEzLjI4LDMuMjgsMCwwLDEsLjQ1LTEuMzNBLjY0LjY0LDAsMCwwLDEuNTUsNS43NloiIGZpbGw9ImdyYXkiLz48cGF0aCBkPSJNMTcuMzEsMjYuMjdoLTEuN2EuNjQuNjQsMCwxLDAsMCwxLjI3aDEuN2EuNjQuNjQsMCwwLDAsMC0xLjI3WiIgZmlsbD0iZ3JheSIvPjxwYXRoIGQ9Ik04LjgxLDI2LjI3SDcuMTJhLjY0LjY0LDAsMSwwLDAsMS4yN0g4LjgxYS42NC42NCwwLDEsMCwwLTEuMjdaIiBmaWxsPSJncmF5Ii8+PHBhdGggZD0iTTQuNTMsMjYuMjdBMy4yMiwzLjIyLDAsMCwxLDMuMTYsMjZhLjY0LjY0LDAsMSwwLS41NCwxLjE1LDQuNDcsNC40NywwLDAsMCwxLjkxLjQyaDBhLjYyLjYyLDAsMCwwLC42Mi0uNjNBLjY2LjY2LDAsMCwwLDQuNTMsMjYuMjdaIiBmaWxsPSJncmF5Ii8+PHBhdGggZD0iTTM4LjU0LDI2LjI3aC0xLjdhLjY0LjY0LDAsMSwwLDAsMS4yN2gxLjdhLjY0LjY0LDAsMCwwLDAtMS4yN1oiIGZpbGw9ImdyYXkiLz48cGF0aCBkPSJNMTMuMDYsMjYuMjdoLTEuN2EuNjQuNjQsMCwwLDAsMCwxLjI3aDEuN2EuNjQuNjQsMCwxLDAsMC0xLjI3WiIgZmlsbD0iZ3JheSIvPjxwYXRoIGQ9Ik0yMS41NSwyNi4yN0gxOS44NmEuNjQuNjQsMCwxLDAsMCwxLjI3aDEuNjlhLjY0LjY0LDAsMSwwLDAtMS4yN1oiIGZpbGw9ImdyYXkiLz48cGF0aCBkPSJNNTcuMTUsMjJhLjY0LjY0LDAsMCwwLS42NC42M1YyM2EzLjIxLDMuMjEsMCwwLDEtLjE4LDEuMDcuNjQuNjQsMCwwLDAsLjM5LjgxLjc2Ljc2LDAsMCwwLC4yMSwwLC42Mi42MiwwLDAsMCwuNi0uNDJBNC40NCw0LjQ0LDAsMCwwLDU3Ljc4LDIzdi0uNEEuNjMuNjMsMCwwLDAsNTcuMTUsMjJaIiBmaWxsPSJncmF5Ii8+PHBhdGggZD0iTTQyLjc4LDI2LjI3SDQxLjA5YS42NC42NCwwLDEsMCwwLDEuMjdoMS42OWEuNjQuNjQsMCwxLDAsMC0xLjI3WiIgZmlsbD0iZ3JheSIvPjxwYXRoIGQ9Ik01Ny4xNSwxMy40OWEuNjQuNjQsMCwwLDAtLjY0LjYzdjEuN2EuNjQuNjQsMCwwLDAsLjY0LjY0LjY0LjY0LDAsMCwwLC42My0uNjR2LTEuN0EuNjMuNjMsMCwwLDAsNTcuMTUsMTMuNDlaIiBmaWxsPSJncmF5Ii8+PHBhdGggZD0iTTU3LjE1LDkuMjRhLjY0LjY0LDAsMCwwLS42NC42NHYxLjY5YS42NC42NCwwLDAsMCwuNjQuNjQuNjQuNjQsMCwwLDAsLjYzLS42NFY5Ljg4QS42My42MywwLDAsMCw1Ny4xNSw5LjI0WiIgZmlsbD0iZ3JheSIvPjxwYXRoIGQ9Ik01Ny4xNSwxNy43M2EuNjQuNjQsMCwwLDAtLjY0LjY0djEuN2EuNjQuNjQsMCwwLDAsLjY0LjYzLjYzLjYzLDAsMCwwLC42My0uNjN2LTEuN0EuNjQuNjQsMCwwLDAsNTcuMTUsMTcuNzNaIiBmaWxsPSJncmF5Ii8+PHBhdGggZD0iTTQ3LDI2LjI3aC0xLjdhLjY0LjY0LDAsMCwwLDAsMS4yN0g0N2EuNjQuNjQsMCwxLDAsMC0xLjI3WiIgZmlsbD0iZ3JheSIvPjxwYXRoIGQ9Ik01MS4yOCwyNi4yN2gtMS43YS42NC42NCwwLDEsMCwwLDEuMjdoMS43YS42NC42NCwwLDAsMCwwLTEuMjdaIiBmaWxsPSJncmF5Ii8+PHBhdGggZD0iTTU1LDI1LjczYTMuMTMsMy4xMywwLDAsMS0xLjMxLjUuNjQuNjQsMCwwLDAsLjA5LDEuMjdoLjA5YTQuNDQsNC40NCwwLDAsMCwxLjgzLS43LjYyLjYyLDAsMCwwLC4xOC0uODhBLjY0LjY0LDAsMCwwLDU1LDI1LjczWiIgZmlsbD0iZ3JheSIvPjxwYXRoIGQ9Ik0yNS44LDI2LjI3SDI0LjFhLjY0LjY0LDAsMCwwLDAsMS4yN2gxLjdhLjY0LjY0LDAsMCwwLDAtMS4yN1oiIGZpbGw9ImdyYXkiLz48cGF0aCBkPSJNMzIuMDYsMS4yN2gxLjY5YS42NC42NCwwLDEsMCwwLTEuMjdIMzIuMDZhLjY0LjY0LDAsMSwwLDAsMS4yN1oiIGZpbGw9ImdyYXkiLz48cGF0aCBkPSJNNDAuNTUsMS4yN2gxLjdhLjYzLjYzLDAsMCwwLC42My0uNjNBLjYzLjYzLDAsMCwwLDQyLjI1LDBoLTEuN2EuNjQuNjQsMCwxLDAsMCwxLjI3WiIgZmlsbD0iZ3JheSIvPjxwYXRoIGQ9Ik0yMy41NiwxLjI3aDEuN2EuNjQuNjQsMCwxLDAsMC0xLjI3aC0xLjdhLjYzLjYzLDAsMCwwLS42My42NEEuNjMuNjMsMCwwLDAsMjMuNTYsMS4yN1oiIGZpbGw9ImdyYXkiLz48cGF0aCBkPSJNMjcuODEsMS4yN2gxLjdhLjYzLjYzLDAsMCwwLC42My0uNjNBLjYzLjYzLDAsMCwwLDI5LjUxLDBoLTEuN2EuNjQuNjQsMCwxLDAsMCwxLjI3WiIgZmlsbD0iZ3JheSIvPjxwYXRoIGQ9Ik0zNi4zLDEuMjdIMzhBLjY0LjY0LDAsMSwwLDM4LDBIMzYuM2EuNjMuNjMsMCwwLDAtLjYzLjY0QS42My42MywwLDAsMCwzNi4zLDEuMjdaIiBmaWxsPSJncmF5Ii8+PHBhdGggZD0iTTUyLjMzLDQuMjYsNTMuODYsNWEuNjcuNjcsMCwwLDAsLjI4LjA2LjYzLjYzLDAsMCwwLC4yOC0xLjJsLTEuNTMtLjc1YS42NC42NCwwLDEsMC0uNTYsMS4xNFoiIGZpbGw9ImdyYXkiLz48cGF0aCBkPSJNNDQuNzksMS4yN2guNjhhMy41NCwzLjU0LDAsMCwxLC44NS4xMS40NS40NSwwLDAsMCwuMTYsMCwuNjMuNjMsMCwwLDAsLjYxLS40Ny42Mi42MiwwLDAsMC0uNDQtLjc4QTQuMzYsNC4zNiwwLDAsMCw0NS40NywwaC0uNjhhLjYzLjYzLDAsMCwwLS42My42NEEuNjMuNjMsMCwwLDAsNDQuNzksMS4yN1oiIGZpbGw9ImdyYXkiLz48cGF0aCBkPSJNNTYuMzksNy41QS42Mi42MiwwLDAsMCw1Nyw4YS40MS40MSwwLDAsMCwuMTYsMCwuNjMuNjMsMCwwLDAsLjQ2LS43Nyw0LjYzLDQuNjMsMCwwLDAtLjktMS43NS42My42MywwLDAsMC0uODktLjA4LjY1LjY1LDAsMCwwLS4wOS45QTMuMjUsMy4yNSwwLDAsMSw1Ni4zOSw3LjVaIiBmaWxsPSJncmF5Ii8+PHBhdGggZD0iTTQ4LjUyLDIuMzksNTAsMy4xNGEuNzIuNzIsMCwwLDAsLjI4LjA3LjY0LjY0LDAsMCwwLC41Ny0uMzZBLjYyLjYyLDAsMCwwLDUwLjYsMmwtMS41Mi0uNzVhLjY0LjY0LDAsMCwwLS44NS4yOUEuNjIuNjIsMCwwLDAsNDguNTIsMi4zOVoiIGZpbGw9ImdyYXkiLz48cGF0aCBkPSJNLjY0LDE3YS42NC42NCwwLDAsMCwuNjMtLjY0di0xLjdhLjYzLjYzLDAsMCwwLS42My0uNjMuNjMuNjMsMCwwLDAtLjY0LjYzdjEuN0EuNjQuNjQsMCwwLDAsLjY0LDE3WiIgZmlsbD0iZ3JheSIvPjxwYXRoIGQ9Ik0zLjE0LDUuMzNhLjU2LjU2LDAsMCwwLC4yNSwwTDUsNC42MmEuNjQuNjQsMCwwLDAsLjM0LS44My42NC42NCwwLDAsMC0uODQtLjM0bC0xLjU2LjY3QS42My42MywwLDAsMCwyLjU2LDUsLjYyLjYyLDAsMCwwLDMuMTQsNS4zM1oiIGZpbGw9ImdyYXkiLz48cGF0aCBkPSJNLjY0LDEyLjc4YS42My42MywwLDAsMCwuNjMtLjYzdi0xLjdhLjY0LjY0LDAsMSwwLTEuMjcsMHYxLjdBLjYzLjYzLDAsMCwwLC42NCwxMi43OFoiIGZpbGw9ImdyYXkiLz48cGF0aCBkPSJNMS4yNywyMy4xNmEuNjIuNjIsMCwwLDAtLjY2LS42MS42NC42NCwwLDAsMC0uNjEuNjYsNC42NCw0LjY0LDAsMCwwLC41MSwxLjkuNjYuNjYsMCwwLDAsLjU3LjM0LjYuNiwwLDAsMCwuMjktLjA4LjYzLjYzLDAsMCwwLC4yNy0uODVBMy40MSwzLjQxLDAsMCwxLDEuMjcsMjMuMTZaIiBmaWxsPSJncmF5Ii8+PHBhdGggZD0iTS42NCwyMS4yN2EuNjMuNjMsMCwwLDAsLjYzLS42M3YtMS43YS42NC42NCwwLDEsMC0xLjI3LDB2MS43QS42My42MywwLDAsMCwuNjQsMjEuMjdaIiBmaWxsPSJncmF5Ii8+PHBhdGggZD0iTTExLDJhLjY5LjY5LDAsMCwwLC4yNCwwbDEtLjQzYTIuNiwyLjYsMCwwLDEsLjQ3LS4xNkEuNjMuNjMsMCwwLDAsMTIuMzguMTRhMy42NSwzLjY1LDAsMCwwLS42Ni4yMmwtMSwuNDNBLjYzLjYzLDAsMCwwLDExLDJaIiBmaWxsPSJncmF5Ii8+PHBhdGggZD0iTTE1LjA3LDEuMjdoMS43QS42My42MywwLDAsMCwxNy40LjY0LjYzLjYzLDAsMCwwLDE2Ljc3LDBoLTEuN2EuNjMuNjMsMCwwLDAtLjYzLjY0QS42My42MywwLDAsMCwxNS4wNywxLjI3WiIgZmlsbD0iZ3JheSIvPjxwYXRoIGQ9Ik0xOS4zMiwxLjI3SDIxYS42My42MywwLDAsMCwuNjMtLjYzQS42My42MywwLDAsMCwyMSwwaC0xLjdhLjY0LjY0LDAsMSwwLDAsMS4yN1oiIGZpbGw9ImdyYXkiLz48cGF0aCBkPSJNNy4wNSwzLjY3YS41OS41OSwwLDAsMCwuMjUsMEw4Ljg2LDNhLjY0LjY0LDAsMCwwLC4zMy0uODQuNjMuNjMsMCwwLDAtLjgzLS4zM0w2LjgsMi40NWEuNjUuNjUsMCwwLDAtLjM0Ljg0QS42NC42NCwwLDAsMCw3LjA1LDMuNjdaIiBmaWxsPSJncmF5Ii8+PC9nPjwvZz48L3N2Zz4=;imageAlign=center;imageVerticalAlign=bottom;imageAspect=1;labelPosition=center;verticalLabelPosition=bottom;align=center;verticalAlign=top;spacingLeft=0;spacing=0;fontFamily=Red Hat Text;fontSize=14;fontStyle=0;spacing=0;fontColor=#808080;editable=1;connectable=0;resizable=1;rotatable=0;cloneable=0;" parent="1" vertex="1">
          <mxGeometry x="1529" y="390" width="80" height="80" as="geometry" />
        </mxCell>
        <mxCell id="148" style="edgeStyle=orthogonalEdgeStyle;rounded=0;orthogonalLoop=1;jettySize=auto;html=1;exitX=0;exitY=0;exitDx=0;exitDy=0;exitPerimeter=0;endArrow=oval;endFill=1;startArrow=oval;startFill=1;" parent="1" source="129" edge="1">
          <mxGeometry relative="1" as="geometry">
            <mxPoint x="1600" y="370" as="targetPoint" />
            <Array as="points">
              <mxPoint x="1601" y="245" />
            </Array>
          </mxGeometry>
        </mxCell>
        <mxCell id="149" value="" style="group;allowArrows=0;dropTarget=0;recursiveResize=0;expand=0;editable=1;resizable=0;rotatable=0;cloneable=0;" parent="1" vertex="1" connectable="0">
          <mxGeometry x="1420" y="520" width="204" height="125" as="geometry" />
        </mxCell>
        <mxCell id="150" value="" style="shape=image;image=data:image/svg+xml,PHN2ZyB4bWxucz0iaHR0cDovL3d3dy53My5vcmcvMjAwMC9zdmciIHdpZHRoPSIyMDBweCIgdmlld0JveD0iLTQgMCAyMDQgMTI1Ij48ZWxsaXBzZSBjeD0iMCIgY3k9IjMwIiByeD0iNCIgcnk9IjQiIGZpbGw9IiNmZmZmZmYiIHN0cm9rZT0ibm9uZSIvPjxlbGxpcHNlIGN4PSIwIiBjeT0iNjAiIHJ4PSI0IiByeT0iNCIgZmlsbD0iI2ZmZmZmZiIgc3Ryb2tlPSJub25lIi8+PGVsbGlwc2UgY3g9IjAiIGN5PSI5MCIgcng9IjQiIHJ5PSI0IiBmaWxsPSIjZmZmZmZmIiBzdHJva2U9Im5vbmUiLz48ZWxsaXBzZSBjeD0iMzMiIGN5PSIxMjEiIHJ4PSI0IiByeT0iNCIgZmlsbD0iI2NkY2VjZSIgc3Ryb2tlPSJub25lIi8+PGVsbGlwc2UgY3g9IjkwIiBjeT0iMTIxIiByeD0iNCIgcnk9IjQiIGZpbGw9IiNjZGNlY2UiIHN0cm9rZT0ibm9uZSIvPjxlbGxpcHNlIGN4PSIxNDciIGN5PSIxMjEiIHJ4PSI0IiByeT0iNCIgZmlsbD0iI2NkY2VjZSIgc3Ryb2tlPSJub25lIi8+PGc+PHJlY3QgeD0iNCIgeT0iNCIgd2lkdGg9IjE5NiIgaGVpZ2h0PSIxMTYiIGZpbGw9IiNjZGNlY2UiIHN0cm9rZT0ibm9uZSIvPjxyZWN0IHg9IjAiIHk9IjAiIHdpZHRoPSIxODAiIGhlaWdodD0iMTE2IiBmaWxsPSIjZmZmZmZmIiBzdHJva2U9Im5vbmUiLz48ZWxsaXBzZSBjeD0iMTkwIiBjeT0iMzAiIHJ4PSI0IiByeT0iNCIgZmlsbD0iI2FlYWVhZSIgc3Ryb2tlPSJub25lIi8+PGVsbGlwc2UgY3g9IjE5MCIgY3k9IjYwIiByeD0iNCIgcnk9IjQiIGZpbGw9IiNhZWFlYWUiIHN0cm9rZT0ibm9uZSIvPjxlbGxpcHNlIGN4PSIxOTAiIGN5PSI5MCIgcng9IjQiIHJ5PSI0IiBmaWxsPSIjYWVhZWFlIiBzdHJva2U9Im5vbmUiLz48L2c+PC9zdmc+;connectable=1;allowArrows=0;recursiveResize=0;expand=0;rotatable=1;cloneable=0;editable=1;movable=1;resizable=1;deletable=1;part=1;locked=0;" parent="149" vertex="1">
          <mxGeometry width="204" height="125" as="geometry" />
        </mxCell>
        <mxCell id="151" value="" style="shape=image;image=data:image/svg+xml,PHN2ZyBpZD0iZWMxZDFjMDEtNDlkZC00MzcyLWFmZGUtM2FiNTg4MTAxYmEyIiBkYXRhLW5hbWU9Ikljb24iIHhtbG5zPSJodHRwOi8vd3d3LnczLm9yZy8yMDAwL3N2ZyIgdmlld0JveD0iMCAwIDM2IDM2Ij48ZGVmcz48c3R5bGU+LmI4NDMzNWNmLTZlN2EtNDM4MS04MTVhLTFmOWVmZmU0NTQ1ZCB7ZmlsbDogI2ZmZjt9PC9zdHlsZT48L2RlZnM+PGc+PHJlY3Qgd2lkdGg9IjEwMCUiIGhlaWdodD0iMTAwJSIgZmlsbD0iIzFkNDE3NCIvPjxwYXRoIGNsYXNzPSJiODQzMzVjZi02ZTdhLTQzODEtODE1YS0xZjllZmZlNDU0NWQiIGQ9Ik0yOSwyMy4zOGEyLjYyLDIuNjIsMCwwLDAtMi41NCwyaC0xLjJsLTEuODItMS44MmMtLjU2LS41OC0xLjQ2LjMyLS44OC44OGwyLDJhLjYuNiwwLDAsMCwuNDQuMThoMS40NkEyLjYyLDIuNjIsMCwxLDAsMjksMjMuMzhabTAsNGExLjM4LDEuMzgsMCwwLDEsMC0yLjc1QTEuMzgsMS4zOCwwLDAsMSwyOSwyNy4zOFoiLz48cGF0aCBjbGFzcz0iYjg0MzM1Y2YtNmU3YS00MzgxLTgxNWEtMWY5ZWZmZTQ1NDVkIiBkPSJNMjIuNjIsMjJWMTRhLjYxLjYxLDAsMCwwLS42Mi0uNjJIMTRhLjYxLjYxLDAsMCwwLS42Mi42MnY4YS42MS42MSwwLDAsMCwuNjIuNjJoOEEuNjEuNjEsMCwwLDAsMjIuNjIsMjJabS0xLjI0LS42MkgxNC42MlYxNC42Mmg2Ljc2WiIvPjxwYXRoIGNsYXNzPSJiODQzMzVjZi02ZTdhLTQzODEtODE1YS0xZjllZmZlNDU0NWQiIGQ9Ik0zMSwxNS4zOEgyN2EuNjEuNjEsMCwwLDAtLjYyLjYydjEuMzhIMjRhLjYyLjYyLDAsMCwwLDAsMS4yNGgyLjM4VjIwYS42MS42MSwwLDAsMCwuNjIuNjJoNGEuNjEuNjEsMCwwLDAsLjYyLS42MlYxNkEuNjEuNjEsMCwwLDAsMzEsMTUuMzhabS0uNjIsNEgyNy42MlYxNi42MmgyLjc2WiIvPjxwYXRoIGNsYXNzPSJiODQzMzVjZi02ZTdhLTQzODEtODE1YS0xZjllZmZlNDU0NWQiIGQ9Ik0yMywxMi42MmEuNjIuNjIsMCwwLDAsLjQ0LS4xOGwxLjgyLTEuODJoMS4yYTIuNjIsMi42MiwwLDEsMCwwLTEuMjRIMjVhLjYuNiwwLDAsMC0uNDQuMThsLTIsMkEuNjIuNjIsMCwwLDAsMjMsMTIuNjJabTYtNGExLjM4LDEuMzgsMCwwLDEsMCwyLjc1QTEuMzgsMS4zOCwwLDAsMSwyOSw4LjYyWiIvPjxwYXRoIGNsYXNzPSJiODQzMzVjZi02ZTdhLTQzODEtODE1YS0xZjllZmZlNDU0NWQiIGQ9Ik03LDEyLjYyYTIuNjIsMi42MiwwLDAsMCwyLjU0LTJoMS4ybDEuODIsMS44MmEuNjIuNjIsMCwwLDAsLjg4LS44OGwtMi0yQS42LjYsMCwwLDAsMTEsOS4zOEg5LjU0QTIuNjIsMi42MiwwLDEsMCw3LDEyLjYyWm0wLTRhMS4zOCwxLjM4LDAsMCwxLDAsMi43NUExLjM4LDEuMzgsMCwwLDEsNyw4LjYyWiIvPjxwYXRoIGNsYXNzPSJiODQzMzVjZi02ZTdhLTQzODEtODE1YS0xZjllZmZlNDU0NWQiIGQ9Ik01LDIwLjYySDlBLjYxLjYxLDAsMCwwLDkuNjIsMjBWMTguNjJIMTJhLjYyLjYyLDAsMCwwLDAtMS4yNEg5LjYyVjE2QS42MS42MSwwLDAsMCw5LDE1LjM4SDVhLjYxLjYxLDAsMCwwLS42Mi42MnY0QS42MS42MSwwLDAsMCw1LDIwLjYyWm0uNjItNEg4LjM4djIuNzZINS42MloiLz48cGF0aCBjbGFzcz0iYjg0MzM1Y2YtNmU3YS00MzgxLTgxNWEtMWY5ZWZmZTQ1NDVkIiBkPSJNMTIuNTYsMjMuNTZsLTEuODIsMS44Mkg5LjU0YTIuNjIsMi42MiwwLDEsMCwwLDEuMjRIMTFhLjYuNiwwLDAsMCwuNDQtLjE4bDItMkMxNCwyMy44OCwxMy4xMiwyMywxMi41NiwyMy41NlpNNywyNy4zOGExLjM4LDEuMzgsMCwwLDEsMC0yLjc1QTEuMzgsMS4zOCwwLDAsMSw3LDI3LjM4WiIvPjwvZz48L3N2Zz4=;recursiveResize=0;editable=0;resizable=0;rotatable=0;cloneable=0;imageAspect=0;connectable=0;movable=1;fontFamily=Helvetica;fontSize=12;fontColor=#000000;align=center;strokeColor=#000000;fillColor=#ffffff;part=1;" parent="149" vertex="1">
          <mxGeometry x="134" y="10" width="40" height="40" as="geometry" />
        </mxCell>
        <mxCell id="152" value="Kiosk Application" style="whiteSpace=wrap;html=1;fillColor=none;strokeColor=none;align=left;fontFamily=Red Hat Text;fontSize=11;fontStyle=0;verticalAlign=bottom;fontColor=#595959;movable=0;rotatable=0;cloneable=0;deletable=1;connectable=0;imageAspect=0;recursiveResize=0;resizable=0;allowArrows=0;expand=0;part=1;" parent="149" vertex="1">
          <mxGeometry x="14" y="58" width="130" height="48" as="geometry" />
        </mxCell>
        <mxCell id="153" value="" style="ellipse;allowArrows=1;editable=0;movable=0;resizable=0;rotatable=0;cloneable=0;deletable=0;fillColor=none;strokeColor=none;connectable=1;part=1;perimeter=none;points=[[0,0,0]];snapToPoint=1;" parent="149" vertex="1">
          <mxGeometry x="4" y="30" width="1" height="1" as="geometry" />
        </mxCell>
        <mxCell id="154" value="" style="ellipse;allowArrows=1;editable=0;movable=0;resizable=0;rotatable=0;cloneable=0;deletable=0;fillColor=none;strokeColor=none;connectable=1;part=1;perimeter=none;points=[[0,0,0]];snapToPoint=1;" parent="149" vertex="1">
          <mxGeometry x="4" y="60" width="1" height="1" as="geometry" />
        </mxCell>
        <mxCell id="155" value="" style="ellipse;allowArrows=1;editable=0;movable=0;resizable=0;rotatable=0;cloneable=0;deletable=0;fillColor=none;strokeColor=none;connectable=1;part=1;perimeter=none;points=[[0,0,0]];snapToPoint=1;" parent="149" vertex="1">
          <mxGeometry x="4" y="90" width="1" height="1" as="geometry" />
        </mxCell>
        <mxCell id="156" value="" style="ellipse;allowArrows=1;editable=0;movable=0;resizable=0;rotatable=0;cloneable=0;deletable=0;fillColor=none;strokeColor=none;connectable=1;part=1;perimeter=none;points=[[0,0,0]];snapToPoint=1;" parent="149" vertex="1">
          <mxGeometry x="37" y="121" width="1" height="1" as="geometry" />
        </mxCell>
        <mxCell id="157" value="" style="ellipse;allowArrows=1;editable=0;movable=0;resizable=0;rotatable=0;cloneable=0;deletable=0;fillColor=none;strokeColor=none;connectable=1;part=1;perimeter=none;points=[[0,0,0]];snapToPoint=1;" parent="149" vertex="1">
          <mxGeometry x="94" y="121" width="1" height="1" as="geometry" />
        </mxCell>
        <mxCell id="158" value="" style="ellipse;allowArrows=1;editable=0;movable=0;resizable=0;rotatable=0;cloneable=0;deletable=0;fillColor=none;strokeColor=none;connectable=1;part=1;perimeter=none;points=[[0,0,0]];snapToPoint=1;" parent="149" vertex="1">
          <mxGeometry x="151" y="121" width="1" height="1" as="geometry" />
        </mxCell>
        <mxCell id="159" value="" style="ellipse;allowArrows=1;editable=0;movable=0;resizable=0;rotatable=0;cloneable=0;deletable=0;fillColor=none;strokeColor=none;connectable=1;part=1;perimeter=none;points=[[0,0,0]];snapToPoint=1;" parent="149" vertex="1">
          <mxGeometry x="194" y="30" width="1" height="1" as="geometry" />
        </mxCell>
        <mxCell id="160" value="" style="ellipse;allowArrows=1;editable=0;movable=0;resizable=0;rotatable=0;cloneable=0;deletable=0;fillColor=none;strokeColor=none;connectable=1;part=1;perimeter=none;points=[[0,0,0]];snapToPoint=1;" parent="149" vertex="1">
          <mxGeometry x="194" y="60" width="1" height="1" as="geometry" />
        </mxCell>
        <mxCell id="161" value="" style="ellipse;allowArrows=1;editable=0;movable=0;resizable=0;rotatable=0;cloneable=0;deletable=0;fillColor=none;strokeColor=none;connectable=1;part=1;perimeter=none;points=[[0,0,0]];snapToPoint=1;" parent="149" vertex="1">
          <mxGeometry x="194" y="90" width="1" height="1" as="geometry" />
        </mxCell>
        <mxCell id="162" value="Applications" style="whiteSpace=wrap;html=1;fillColor=#1D4174;strokeColor=#1D4174;fontColor=#FFFFFF;movable=0;resizable=0;rotatable=0;cloneable=0;deletable=0;imageAspect=0;connectable=0;recursiveResize=0;fontFamily=Red Hat Text;fontStyle=1;align=left;fontSize=12;spacingLeft=10;spacingRight=50;allowArrows=0;expand=0;part=1;" parent="149" vertex="1">
          <mxGeometry x="14" y="10" width="160" height="40" as="geometry" />
        </mxCell>
        <mxCell id="163" style="edgeStyle=orthogonalEdgeStyle;rounded=0;orthogonalLoop=1;jettySize=auto;html=1;exitX=0;exitY=0.75;exitDx=0;exitDy=0;entryX=0;entryY=0.25;entryDx=0;entryDy=0;endArrow=none;endFill=0;dashed=1;strokeWidth=2;" parent="1" source="164" target="192" edge="1">
          <mxGeometry relative="1" as="geometry" />
        </mxCell>
        <mxCell id="164" value="1" style="group;allowArrows=0;dropTarget=0;recursiveResize=0;expand=0;editable=1;resizable=1;rotatable=1;cloneable=0;movable=1;deletable=1;connectable=1;" parent="1" vertex="1" connectable="0">
          <mxGeometry x="674" y="280" width="204" height="125" as="geometry" />
        </mxCell>
        <mxCell id="165" value="" style="shape=image;image=data:image/svg+xml,PHN2ZyB4bWxucz0iaHR0cDovL3d3dy53My5vcmcvMjAwMC9zdmciIHdpZHRoPSIyMDBweCIgdmlld0JveD0iLTQgMCAyMDQgMTI1Ij48ZWxsaXBzZSBjeD0iMCIgY3k9IjMwIiByeD0iNCIgcnk9IjQiIGZpbGw9IiNmZmZmZmYiIHN0cm9rZT0ibm9uZSIvPjxlbGxpcHNlIGN4PSIwIiBjeT0iNjAiIHJ4PSI0IiByeT0iNCIgZmlsbD0iI2ZmZmZmZiIgc3Ryb2tlPSJub25lIi8+PGVsbGlwc2UgY3g9IjAiIGN5PSI5MCIgcng9IjQiIHJ5PSI0IiBmaWxsPSIjZmZmZmZmIiBzdHJva2U9Im5vbmUiLz48ZWxsaXBzZSBjeD0iMzMiIGN5PSIxMjEiIHJ4PSI0IiByeT0iNCIgZmlsbD0iI2NkY2VjZSIgc3Ryb2tlPSJub25lIi8+PGVsbGlwc2UgY3g9IjkwIiBjeT0iMTIxIiByeD0iNCIgcnk9IjQiIGZpbGw9IiNjZGNlY2UiIHN0cm9rZT0ibm9uZSIvPjxlbGxpcHNlIGN4PSIxNDciIGN5PSIxMjEiIHJ4PSI0IiByeT0iNCIgZmlsbD0iI2NkY2VjZSIgc3Ryb2tlPSJub25lIi8+PGc+PHJlY3QgeD0iNCIgeT0iNCIgd2lkdGg9IjE5NiIgaGVpZ2h0PSIxMTYiIGZpbGw9IiNjZGNlY2UiIHN0cm9rZT0ibm9uZSIvPjxyZWN0IHg9IjAiIHk9IjAiIHdpZHRoPSIxODAiIGhlaWdodD0iMTE2IiBmaWxsPSIjZmZmZmZmIiBzdHJva2U9Im5vbmUiLz48ZWxsaXBzZSBjeD0iMTkwIiBjeT0iMzAiIHJ4PSI0IiByeT0iNCIgZmlsbD0iI2FlYWVhZSIgc3Ryb2tlPSJub25lIi8+PGVsbGlwc2UgY3g9IjE5MCIgY3k9IjYwIiByeD0iNCIgcnk9IjQiIGZpbGw9IiNhZWFlYWUiIHN0cm9rZT0ibm9uZSIvPjxlbGxpcHNlIGN4PSIxOTAiIGN5PSI5MCIgcng9IjQiIHJ5PSI0IiBmaWxsPSIjYWVhZWFlIiBzdHJva2U9Im5vbmUiLz48L2c+PC9zdmc+;connectable=0;allowArrows=0;recursiveResize=0;expand=0;rotatable=0;cloneable=0;editable=0;movable=0;resizable=0;deletable=0;part=1;" parent="164" vertex="1">
          <mxGeometry width="204" height="125" as="geometry" />
        </mxCell>
        <mxCell id="166" value="Virtualization API" style="whiteSpace=wrap;html=1;fillColor=#4C4C4C;strokeColor=#4C4C4C;fontColor=#FFFFFF;movable=0;resizable=0;rotatable=0;cloneable=0;deletable=0;imageAspect=0;connectable=0;recursiveResize=0;fontFamily=Red Hat Text;fontStyle=1;align=left;fontSize=12;spacingLeft=10;spacingRight=50;allowArrows=0;expand=0;part=1;" parent="164" vertex="1">
          <mxGeometry x="14" y="10" width="160" height="40" as="geometry" />
        </mxCell>
        <mxCell id="167" value="" style="shape=image;image=data:image/svg+xml,PHN2ZyB4bWxucz0iaHR0cDovL3d3dy53My5vcmcvMjAwMC9zdmciIHZpZXdCb3g9IjAgMCA0MCA0MCI+PHRpdGxlPkJsYW5rPC90aXRsZT48ZyBpZD0iZGlhZ3JhbSI+PHJlY3Qgd2lkdGg9IjEwMCUiIGhlaWdodD0iMTAwJSIgZmlsbD0iIzRjNGM0YyIvPjwvZz48L3N2Zz4=;recursiveResize=0;editable=0;resizable=0;rotatable=0;cloneable=0;imageAspect=0;connectable=0;movable=1;fontFamily=Helvetica;fontSize=12;fontColor=#000000;align=center;strokeColor=#000000;fillColor=#ffffff;part=1;" parent="164" vertex="1">
          <mxGeometry x="134" y="10" width="40" height="40" as="geometry" />
        </mxCell>
        <mxCell id="168" value="OpenShift Virtualization" style="whiteSpace=wrap;html=1;fillColor=none;strokeColor=none;align=left;fontFamily=Red Hat Text;fontSize=11;fontStyle=0;verticalAlign=bottom;fontColor=#595959;movable=0;rotatable=0;cloneable=0;deletable=1;connectable=0;imageAspect=0;recursiveResize=0;resizable=0;allowArrows=0;expand=0;part=1;" parent="164" vertex="1">
          <mxGeometry x="14" y="58" width="130" height="48" as="geometry" />
        </mxCell>
        <mxCell id="169" value="" style="ellipse;allowArrows=1;editable=0;movable=0;resizable=0;rotatable=0;cloneable=0;deletable=0;fillColor=none;strokeColor=none;connectable=1;part=1;perimeter=none;points=[[0,0,0]];snapToPoint=1;" parent="164" vertex="1">
          <mxGeometry x="4" y="30" width="1" height="1" as="geometry" />
        </mxCell>
        <mxCell id="170" value="" style="ellipse;allowArrows=1;editable=0;movable=0;resizable=0;rotatable=0;cloneable=0;deletable=0;fillColor=none;strokeColor=none;connectable=1;part=1;perimeter=none;points=[[0,0,0]];snapToPoint=1;" parent="164" vertex="1">
          <mxGeometry x="4" y="60" width="1" height="1" as="geometry" />
        </mxCell>
        <mxCell id="171" value="" style="ellipse;allowArrows=1;editable=0;movable=0;resizable=0;rotatable=0;cloneable=0;deletable=0;fillColor=none;strokeColor=none;connectable=1;part=1;perimeter=none;points=[[0,0,0]];snapToPoint=1;" parent="164" vertex="1">
          <mxGeometry x="4" y="90" width="1" height="1" as="geometry" />
        </mxCell>
        <mxCell id="172" value="" style="ellipse;allowArrows=1;editable=0;movable=0;resizable=0;rotatable=0;cloneable=0;deletable=0;fillColor=none;strokeColor=none;connectable=1;part=1;perimeter=none;points=[[0,0,0]];snapToPoint=1;" parent="164" vertex="1">
          <mxGeometry x="37" y="121" width="1" height="1" as="geometry" />
        </mxCell>
        <mxCell id="173" value="" style="ellipse;allowArrows=1;editable=0;movable=0;resizable=0;rotatable=0;cloneable=0;deletable=0;fillColor=none;strokeColor=none;connectable=1;part=1;perimeter=none;points=[[0,0,0]];snapToPoint=1;" parent="164" vertex="1">
          <mxGeometry x="94" y="121" width="1" height="1" as="geometry" />
        </mxCell>
        <mxCell id="174" value="" style="ellipse;allowArrows=1;editable=0;movable=0;resizable=0;rotatable=0;cloneable=0;deletable=0;fillColor=none;strokeColor=none;connectable=1;part=1;perimeter=none;points=[[0,0,0]];snapToPoint=1;" parent="164" vertex="1">
          <mxGeometry x="151" y="121" width="1" height="1" as="geometry" />
        </mxCell>
        <mxCell id="175" value="" style="ellipse;allowArrows=1;editable=0;movable=0;resizable=0;rotatable=0;cloneable=0;deletable=0;fillColor=none;strokeColor=none;connectable=1;part=1;perimeter=none;points=[[0,0,0]];snapToPoint=1;" parent="164" vertex="1">
          <mxGeometry x="194" y="30" width="1" height="1" as="geometry" />
        </mxCell>
        <mxCell id="176" value="" style="ellipse;allowArrows=1;editable=0;movable=0;resizable=0;rotatable=0;cloneable=0;deletable=0;fillColor=none;strokeColor=none;connectable=1;part=1;perimeter=none;points=[[0,0,0]];snapToPoint=1;" parent="164" vertex="1">
          <mxGeometry x="194" y="60" width="1" height="1" as="geometry" />
        </mxCell>
        <mxCell id="177" value="" style="ellipse;allowArrows=1;editable=0;movable=0;resizable=0;rotatable=0;cloneable=0;deletable=0;fillColor=none;strokeColor=none;connectable=1;part=1;perimeter=none;points=[[0,0,0]];snapToPoint=1;" parent="164" vertex="1">
          <mxGeometry x="194" y="90" width="1" height="1" as="geometry" />
        </mxCell>
        <mxCell id="178" value="" style="group;allowArrows=0;dropTarget=0;recursiveResize=0;expand=0;editable=1;resizable=1;rotatable=1;cloneable=0;movable=1;deletable=1;connectable=1;" parent="1" vertex="1" connectable="0">
          <mxGeometry x="674" y="590" width="204" height="125" as="geometry" />
        </mxCell>
        <mxCell id="179" value="" style="shape=image;image=data:image/svg+xml,PHN2ZyB4bWxucz0iaHR0cDovL3d3dy53My5vcmcvMjAwMC9zdmciIHdpZHRoPSIyMDBweCIgdmlld0JveD0iLTQgMCAyMDQgMTI1Ij48ZWxsaXBzZSBjeD0iMCIgY3k9IjMwIiByeD0iNCIgcnk9IjQiIGZpbGw9IiNmZmZmZmYiIHN0cm9rZT0ibm9uZSIvPjxlbGxpcHNlIGN4PSIwIiBjeT0iNjAiIHJ4PSI0IiByeT0iNCIgZmlsbD0iI2ZmZmZmZiIgc3Ryb2tlPSJub25lIi8+PGVsbGlwc2UgY3g9IjAiIGN5PSI5MCIgcng9IjQiIHJ5PSI0IiBmaWxsPSIjZmZmZmZmIiBzdHJva2U9Im5vbmUiLz48ZWxsaXBzZSBjeD0iMzMiIGN5PSIxMjEiIHJ4PSI0IiByeT0iNCIgZmlsbD0iI2NkY2VjZSIgc3Ryb2tlPSJub25lIi8+PGVsbGlwc2UgY3g9IjkwIiBjeT0iMTIxIiByeD0iNCIgcnk9IjQiIGZpbGw9IiNjZGNlY2UiIHN0cm9rZT0ibm9uZSIvPjxlbGxpcHNlIGN4PSIxNDciIGN5PSIxMjEiIHJ4PSI0IiByeT0iNCIgZmlsbD0iI2NkY2VjZSIgc3Ryb2tlPSJub25lIi8+PGc+PHJlY3QgeD0iNCIgeT0iNCIgd2lkdGg9IjE5NiIgaGVpZ2h0PSIxMTYiIGZpbGw9IiNjZGNlY2UiIHN0cm9rZT0ibm9uZSIvPjxyZWN0IHg9IjAiIHk9IjAiIHdpZHRoPSIxODAiIGhlaWdodD0iMTE2IiBmaWxsPSIjZmZmZmZmIiBzdHJva2U9Im5vbmUiLz48ZWxsaXBzZSBjeD0iMTkwIiBjeT0iMzAiIHJ4PSI0IiByeT0iNCIgZmlsbD0iI2FlYWVhZSIgc3Ryb2tlPSJub25lIi8+PGVsbGlwc2UgY3g9IjE5MCIgY3k9IjYwIiByeD0iNCIgcnk9IjQiIGZpbGw9IiNhZWFlYWUiIHN0cm9rZT0ibm9uZSIvPjxlbGxpcHNlIGN4PSIxOTAiIGN5PSI5MCIgcng9IjQiIHJ5PSI0IiBmaWxsPSIjYWVhZWFlIiBzdHJva2U9Im5vbmUiLz48L2c+PC9zdmc+;connectable=0;allowArrows=0;recursiveResize=0;expand=0;rotatable=0;cloneable=0;editable=0;movable=0;resizable=0;deletable=0;part=1;" parent="178" vertex="1">
          <mxGeometry width="204" height="125" as="geometry" />
        </mxCell>
        <mxCell id="180" value="Storage" style="whiteSpace=wrap;html=1;fillColor=#4C4C4C;strokeColor=#4C4C4C;fontColor=#FFFFFF;movable=0;resizable=0;rotatable=0;cloneable=0;deletable=0;imageAspect=0;connectable=0;recursiveResize=0;fontFamily=Red Hat Text;fontStyle=1;align=left;fontSize=12;spacingLeft=10;spacingRight=50;allowArrows=0;expand=0;part=1;" parent="178" vertex="1">
          <mxGeometry x="14" y="10" width="160" height="40" as="geometry" />
        </mxCell>
        <mxCell id="181" value="" style="shape=image;image=data:image/svg+xml,PHN2ZyB4bWxucz0iaHR0cDovL3d3dy53My5vcmcvMjAwMC9zdmciIHZpZXdCb3g9IjAgMCA0MCA0MCI+PHRpdGxlPkJsYW5rPC90aXRsZT48ZyBpZD0iZGlhZ3JhbSI+PHJlY3Qgd2lkdGg9IjEwMCUiIGhlaWdodD0iMTAwJSIgZmlsbD0iIzRjNGM0YyIvPjwvZz48L3N2Zz4=;recursiveResize=0;editable=0;resizable=0;rotatable=0;cloneable=0;imageAspect=0;connectable=0;movable=1;fontFamily=Helvetica;fontSize=12;fontColor=#000000;align=center;strokeColor=#000000;fillColor=#ffffff;part=1;" parent="178" vertex="1">
          <mxGeometry x="134" y="10" width="40" height="40" as="geometry" />
        </mxCell>
        <mxCell id="182" value="OpenShift Data Foundations" style="whiteSpace=wrap;html=1;fillColor=none;strokeColor=none;align=left;fontFamily=Red Hat Text;fontSize=11;fontStyle=0;verticalAlign=bottom;fontColor=#595959;movable=0;rotatable=0;cloneable=0;deletable=1;connectable=0;imageAspect=0;recursiveResize=0;resizable=0;allowArrows=0;expand=0;part=1;" parent="178" vertex="1">
          <mxGeometry x="14" y="58" width="130" height="48" as="geometry" />
        </mxCell>
        <mxCell id="183" value="" style="ellipse;allowArrows=1;editable=0;movable=0;resizable=0;rotatable=0;cloneable=0;deletable=0;fillColor=none;strokeColor=none;connectable=1;part=1;perimeter=none;points=[[0,0,0]];snapToPoint=1;" parent="178" vertex="1">
          <mxGeometry x="4" y="30" width="1" height="1" as="geometry" />
        </mxCell>
        <mxCell id="184" value="" style="ellipse;allowArrows=1;editable=0;movable=0;resizable=0;rotatable=0;cloneable=0;deletable=0;fillColor=none;strokeColor=none;connectable=1;part=1;perimeter=none;points=[[0,0,0]];snapToPoint=1;" parent="178" vertex="1">
          <mxGeometry x="4" y="60" width="1" height="1" as="geometry" />
        </mxCell>
        <mxCell id="185" value="" style="ellipse;allowArrows=1;editable=0;movable=0;resizable=0;rotatable=0;cloneable=0;deletable=0;fillColor=none;strokeColor=none;connectable=1;part=1;perimeter=none;points=[[0,0,0]];snapToPoint=1;" parent="178" vertex="1">
          <mxGeometry x="4" y="90" width="1" height="1" as="geometry" />
        </mxCell>
        <mxCell id="186" value="" style="ellipse;allowArrows=1;editable=0;movable=0;resizable=0;rotatable=0;cloneable=0;deletable=0;fillColor=none;strokeColor=none;connectable=1;part=1;perimeter=none;points=[[0,0,0]];snapToPoint=1;" parent="178" vertex="1">
          <mxGeometry x="37" y="121" width="1" height="1" as="geometry" />
        </mxCell>
        <mxCell id="187" value="" style="ellipse;allowArrows=1;editable=0;movable=0;resizable=0;rotatable=0;cloneable=0;deletable=0;fillColor=none;strokeColor=none;connectable=1;part=1;perimeter=none;points=[[0,0,0]];snapToPoint=1;" parent="178" vertex="1">
          <mxGeometry x="94" y="121" width="1" height="1" as="geometry" />
        </mxCell>
        <mxCell id="188" value="" style="ellipse;allowArrows=1;editable=0;movable=0;resizable=0;rotatable=0;cloneable=0;deletable=0;fillColor=none;strokeColor=none;connectable=1;part=1;perimeter=none;points=[[0,0,0]];snapToPoint=1;" parent="178" vertex="1">
          <mxGeometry x="151" y="121" width="1" height="1" as="geometry" />
        </mxCell>
        <mxCell id="189" value="" style="ellipse;allowArrows=1;editable=0;movable=0;resizable=0;rotatable=0;cloneable=0;deletable=0;fillColor=none;strokeColor=none;connectable=1;part=1;perimeter=none;points=[[0,0,0]];snapToPoint=1;" parent="178" vertex="1">
          <mxGeometry x="194" y="30" width="1" height="1" as="geometry" />
        </mxCell>
        <mxCell id="190" value="" style="ellipse;allowArrows=1;editable=0;movable=0;resizable=0;rotatable=0;cloneable=0;deletable=0;fillColor=none;strokeColor=none;connectable=1;part=1;perimeter=none;points=[[0,0,0]];snapToPoint=1;" parent="178" vertex="1">
          <mxGeometry x="194" y="60" width="1" height="1" as="geometry" />
        </mxCell>
        <mxCell id="191" value="" style="ellipse;allowArrows=1;editable=0;movable=0;resizable=0;rotatable=0;cloneable=0;deletable=0;fillColor=none;strokeColor=none;connectable=1;part=1;perimeter=none;points=[[0,0,0]];snapToPoint=1;" parent="178" vertex="1">
          <mxGeometry x="194" y="90" width="1" height="1" as="geometry" />
        </mxCell>
        <mxCell id="192" value="" style="group;allowArrows=0;dropTarget=0;recursiveResize=0;expand=0;editable=1;resizable=1;rotatable=1;cloneable=0;movable=1;deletable=1;connectable=1;" parent="1" vertex="1" connectable="0">
          <mxGeometry x="674" y="430" width="204" height="125" as="geometry" />
        </mxCell>
        <mxCell id="193" value="" style="shape=image;image=data:image/svg+xml,PHN2ZyB4bWxucz0iaHR0cDovL3d3dy53My5vcmcvMjAwMC9zdmciIHdpZHRoPSIyMDBweCIgdmlld0JveD0iLTQgMCAyMDQgMTI1Ij48ZWxsaXBzZSBjeD0iMCIgY3k9IjMwIiByeD0iNCIgcnk9IjQiIGZpbGw9IiNmZmZmZmYiIHN0cm9rZT0ibm9uZSIvPjxlbGxpcHNlIGN4PSIwIiBjeT0iNjAiIHJ4PSI0IiByeT0iNCIgZmlsbD0iI2ZmZmZmZiIgc3Ryb2tlPSJub25lIi8+PGVsbGlwc2UgY3g9IjAiIGN5PSI5MCIgcng9IjQiIHJ5PSI0IiBmaWxsPSIjZmZmZmZmIiBzdHJva2U9Im5vbmUiLz48ZWxsaXBzZSBjeD0iMzMiIGN5PSIxMjEiIHJ4PSI0IiByeT0iNCIgZmlsbD0iI2NkY2VjZSIgc3Ryb2tlPSJub25lIi8+PGVsbGlwc2UgY3g9IjkwIiBjeT0iMTIxIiByeD0iNCIgcnk9IjQiIGZpbGw9IiNjZGNlY2UiIHN0cm9rZT0ibm9uZSIvPjxlbGxpcHNlIGN4PSIxNDciIGN5PSIxMjEiIHJ4PSI0IiByeT0iNCIgZmlsbD0iI2NkY2VjZSIgc3Ryb2tlPSJub25lIi8+PGc+PHJlY3QgeD0iNCIgeT0iNCIgd2lkdGg9IjE5NiIgaGVpZ2h0PSIxMTYiIGZpbGw9IiNjZGNlY2UiIHN0cm9rZT0ibm9uZSIvPjxyZWN0IHg9IjAiIHk9IjAiIHdpZHRoPSIxODAiIGhlaWdodD0iMTE2IiBmaWxsPSIjZmZmZmZmIiBzdHJva2U9Im5vbmUiLz48ZWxsaXBzZSBjeD0iMTkwIiBjeT0iMzAiIHJ4PSI0IiByeT0iNCIgZmlsbD0iI2FlYWVhZSIgc3Ryb2tlPSJub25lIi8+PGVsbGlwc2UgY3g9IjE5MCIgY3k9IjYwIiByeD0iNCIgcnk9IjQiIGZpbGw9IiNhZWFlYWUiIHN0cm9rZT0ibm9uZSIvPjxlbGxpcHNlIGN4PSIxOTAiIGN5PSI5MCIgcng9IjQiIHJ5PSI0IiBmaWxsPSIjYWVhZWFlIiBzdHJva2U9Im5vbmUiLz48L2c+PC9zdmc+;connectable=0;allowArrows=0;recursiveResize=0;expand=0;rotatable=0;cloneable=0;editable=0;movable=0;resizable=0;deletable=0;part=1;" parent="192" vertex="1">
          <mxGeometry width="204" height="125" as="geometry" />
        </mxCell>
        <mxCell id="194" value="Automation API" style="whiteSpace=wrap;html=1;fillColor=#4C4C4C;strokeColor=#4C4C4C;fontColor=#FFFFFF;movable=0;resizable=0;rotatable=0;cloneable=0;deletable=0;imageAspect=0;connectable=0;recursiveResize=0;fontFamily=Red Hat Text;fontStyle=1;align=left;fontSize=12;spacingLeft=10;spacingRight=50;allowArrows=0;expand=0;part=1;" parent="192" vertex="1">
          <mxGeometry x="14" y="10" width="160" height="40" as="geometry" />
        </mxCell>
        <mxCell id="195" value="" style="shape=image;image=data:image/svg+xml,PHN2ZyB4bWxucz0iaHR0cDovL3d3dy53My5vcmcvMjAwMC9zdmciIHZpZXdCb3g9IjAgMCA0MCA0MCI+PHRpdGxlPkJsYW5rPC90aXRsZT48ZyBpZD0iZGlhZ3JhbSI+PHJlY3Qgd2lkdGg9IjEwMCUiIGhlaWdodD0iMTAwJSIgZmlsbD0iIzRjNGM0YyIvPjwvZz48L3N2Zz4=;recursiveResize=0;editable=0;resizable=0;rotatable=0;cloneable=0;imageAspect=0;connectable=0;movable=1;fontFamily=Helvetica;fontSize=12;fontColor=#000000;align=center;strokeColor=#000000;fillColor=#ffffff;part=1;" parent="192" vertex="1">
          <mxGeometry x="134" y="10" width="40" height="40" as="geometry" />
        </mxCell>
        <mxCell id="196" value="Ansible Automation Platform" style="whiteSpace=wrap;html=1;fillColor=none;strokeColor=none;align=left;fontFamily=Red Hat Text;fontSize=11;fontStyle=0;verticalAlign=bottom;fontColor=#595959;movable=0;rotatable=0;cloneable=0;deletable=1;connectable=0;imageAspect=0;recursiveResize=0;resizable=0;allowArrows=0;expand=0;part=1;" parent="192" vertex="1">
          <mxGeometry x="14" y="58" width="130" height="48" as="geometry" />
        </mxCell>
        <mxCell id="197" value="" style="ellipse;allowArrows=1;editable=0;movable=0;resizable=0;rotatable=0;cloneable=0;deletable=0;fillColor=none;strokeColor=none;connectable=1;part=1;perimeter=none;points=[[0,0,0]];snapToPoint=1;" parent="192" vertex="1">
          <mxGeometry x="4" y="30" width="1" height="1" as="geometry" />
        </mxCell>
        <mxCell id="198" value="" style="ellipse;allowArrows=1;editable=0;movable=0;resizable=0;rotatable=0;cloneable=0;deletable=0;fillColor=none;strokeColor=none;connectable=1;part=1;perimeter=none;points=[[0,0,0]];snapToPoint=1;" parent="192" vertex="1">
          <mxGeometry x="4" y="60" width="1" height="1" as="geometry" />
        </mxCell>
        <mxCell id="199" value="" style="ellipse;allowArrows=1;editable=0;movable=0;resizable=0;rotatable=0;cloneable=0;deletable=0;fillColor=none;strokeColor=none;connectable=1;part=1;perimeter=none;points=[[0,0,0]];snapToPoint=1;" parent="192" vertex="1">
          <mxGeometry x="4" y="90" width="1" height="1" as="geometry" />
        </mxCell>
        <mxCell id="200" value="" style="ellipse;allowArrows=1;editable=0;movable=0;resizable=0;rotatable=0;cloneable=0;deletable=0;fillColor=none;strokeColor=none;connectable=1;part=1;perimeter=none;points=[[0,0,0]];snapToPoint=1;" parent="192" vertex="1">
          <mxGeometry x="37" y="121" width="1" height="1" as="geometry" />
        </mxCell>
        <mxCell id="201" value="" style="ellipse;allowArrows=1;editable=0;movable=0;resizable=0;rotatable=0;cloneable=0;deletable=0;fillColor=none;strokeColor=none;connectable=1;part=1;perimeter=none;points=[[0,0,0]];snapToPoint=1;" parent="192" vertex="1">
          <mxGeometry x="94" y="121" width="1" height="1" as="geometry" />
        </mxCell>
        <mxCell id="202" value="" style="ellipse;allowArrows=1;editable=0;movable=0;resizable=0;rotatable=0;cloneable=0;deletable=0;fillColor=none;strokeColor=none;connectable=1;part=1;perimeter=none;points=[[0,0,0]];snapToPoint=1;" parent="192" vertex="1">
          <mxGeometry x="151" y="121" width="1" height="1" as="geometry" />
        </mxCell>
        <mxCell id="203" value="" style="ellipse;allowArrows=1;editable=0;movable=0;resizable=0;rotatable=0;cloneable=0;deletable=0;fillColor=none;strokeColor=none;connectable=1;part=1;perimeter=none;points=[[0,0,0]];snapToPoint=1;" parent="192" vertex="1">
          <mxGeometry x="194" y="30" width="1" height="1" as="geometry" />
        </mxCell>
        <mxCell id="204" value="" style="ellipse;allowArrows=1;editable=0;movable=0;resizable=0;rotatable=0;cloneable=0;deletable=0;fillColor=none;strokeColor=none;connectable=1;part=1;perimeter=none;points=[[0,0,0]];snapToPoint=1;" parent="192" vertex="1">
          <mxGeometry x="194" y="60" width="1" height="1" as="geometry" />
        </mxCell>
        <mxCell id="205" value="" style="ellipse;allowArrows=1;editable=0;movable=0;resizable=0;rotatable=0;cloneable=0;deletable=0;fillColor=none;strokeColor=none;connectable=1;part=1;perimeter=none;points=[[0,0,0]];snapToPoint=1;" parent="192" vertex="1">
          <mxGeometry x="194" y="90" width="1" height="1" as="geometry" />
        </mxCell>
        <mxCell id="206" style="edgeStyle=orthogonalEdgeStyle;rounded=0;orthogonalLoop=1;jettySize=auto;html=1;exitX=0;exitY=0;exitDx=0;exitDy=0;entryX=0.146;entryY=1;entryDx=0;entryDy=0;entryPerimeter=0;exitPerimeter=0;startArrow=oval;startFill=1;endArrow=oval;endFill=1;strokeWidth=2;strokeColor=#316dc1;" parent="1" source="187" target="131" edge="1">
          <mxGeometry relative="1" as="geometry">
            <Array as="points">
              <mxPoint x="768" y="830" />
              <mxPoint x="1560" y="830" />
            </Array>
          </mxGeometry>
        </mxCell>
        <mxCell id="207" style="edgeStyle=orthogonalEdgeStyle;rounded=0;orthogonalLoop=1;jettySize=auto;html=1;exitX=0;exitY=0;exitDx=0;exitDy=0;exitPerimeter=0;entryX=0.185;entryY=1.008;entryDx=0;entryDy=0;entryPerimeter=0;endArrow=oval;endFill=1;startArrow=oval;startFill=1;strokeWidth=2;strokeColor=#316dc1;" parent="1" source="188" target="102" edge="1">
          <mxGeometry relative="1" as="geometry">
            <Array as="points">
              <mxPoint x="825" y="805" />
              <mxPoint x="1078" y="805" />
            </Array>
          </mxGeometry>
        </mxCell>
        <mxCell id="208" style="edgeStyle=orthogonalEdgeStyle;rounded=0;orthogonalLoop=1;jettySize=auto;html=1;exitX=0;exitY=0;exitDx=0;exitDy=0;exitPerimeter=0;entryX=0;entryY=0.25;entryDx=0;entryDy=0;endArrow=none;endFill=0;dashed=1;strokeWidth=2;" parent="1" source="175" target="116" edge="1">
          <mxGeometry relative="1" as="geometry">
            <Array as="points">
              <mxPoint x="970" y="310" />
              <mxPoint x="970" y="216" />
            </Array>
          </mxGeometry>
        </mxCell>
        <mxCell id="209" style="edgeStyle=orthogonalEdgeStyle;rounded=0;orthogonalLoop=1;jettySize=auto;html=1;exitX=0;exitY=0;exitDx=0;exitDy=0;exitPerimeter=0;entryX=0;entryY=0;entryDx=0;entryDy=0;endArrow=oval;endFill=1;startArrow=oval;startFill=1;entryPerimeter=0;fillColor=#316DC1;strokeColor=#316DC1;strokeWidth=2;" parent="1" source="55" target="46" edge="1">
          <mxGeometry relative="1" as="geometry">
            <Array as="points">
              <mxPoint x="310" y="720" />
              <mxPoint x="310" y="548" />
              <mxPoint x="204" y="548" />
            </Array>
          </mxGeometry>
        </mxCell>
        <mxCell id="210" style="edgeStyle=elbowEdgeStyle;rounded=0;orthogonalLoop=1;jettySize=auto;html=1;exitX=0;exitY=0;exitDx=0;exitDy=0;exitPerimeter=0;endArrow=oval;endFill=1;startArrow=oval;startFill=1;jumpStyle=arc;strokeWidth=2;strokeColor=#316dc1;" parent="1" source="16" edge="1">
          <mxGeometry relative="1" as="geometry">
            <mxPoint x="680" y="910" as="targetPoint" />
            <Array as="points">
              <mxPoint x="630" y="570" />
            </Array>
          </mxGeometry>
        </mxCell>
        <mxCell id="211" style="edgeStyle=orthogonalEdgeStyle;rounded=0;orthogonalLoop=1;jettySize=auto;html=1;exitX=0;exitY=0;exitDx=0;exitDy=0;exitPerimeter=0;entryX=0;entryY=0.5;entryDx=0;entryDy=0;endArrow=oval;endFill=1;startArrow=oval;startFill=1;strokeColor=#316DC1;strokeWidth=2;" parent="1" source="53" target="192" edge="1">
          <mxGeometry relative="1" as="geometry">
            <Array as="points">
              <mxPoint x="340" y="660" />
              <mxPoint x="340" y="493" />
            </Array>
          </mxGeometry>
        </mxCell>
        <mxCell id="212" style="edgeStyle=orthogonalEdgeStyle;rounded=0;orthogonalLoop=1;jettySize=auto;html=1;entryX=0;entryY=0.5;entryDx=0;entryDy=0;strokeColor=#316dc1;strokeWidth=2;dashed=1;endArrow=none;endFill=0;" parent="1" source="205" target="150" edge="1">
          <mxGeometry relative="1" as="geometry">
            <Array as="points">
              <mxPoint x="1010" y="521" />
              <mxPoint x="1010" y="583" />
            </Array>
          </mxGeometry>
        </mxCell>
        <mxCell id="213" style="edgeStyle=orthogonalEdgeStyle;rounded=0;orthogonalLoop=1;jettySize=auto;html=1;exitX=0;exitY=0;exitDx=0;exitDy=0;exitPerimeter=0;entryX=0;entryY=0;entryDx=0;entryDy=0;entryPerimeter=0;strokeWidth=2;endArrow=oval;endFill=1;startArrow=oval;startFill=1;strokeColor=#316dc1;" parent="1" source="18" target="59" edge="1">
          <mxGeometry relative="1" as="geometry">
            <Array as="points">
              <mxPoint x="590" y="290" />
              <mxPoint x="590" y="660" />
            </Array>
          </mxGeometry>
        </mxCell>
        <mxCell id="214" value="" style="group;connectable=0;imageAspect=0;recursiveResize=0;editable=0;resizable=0;rotatable=0;cloneable=0;" parent="1" vertex="1" connectable="0">
          <mxGeometry x="240" y="485" width="80" height="80" as="geometry" />
        </mxCell>
        <mxCell id="215" value="" style="ellipse;strokeColor=none;fillColor=#316dc1;connectable=0;movable=0;resizable=1;rotatable=0;cloneable=0;deletable=0;part=1;" parent="214" vertex="1">
          <mxGeometry x="20" width="40" height="40" as="geometry" />
        </mxCell>
        <mxCell id="216" value="" style="rect;strokeColor=none;fillColor=#316dc1;editable=0;connectable=0;resizable=0;rotatable=0;cloneable=0;movable=0;deletable=0;part=1;" parent="214" vertex="1">
          <mxGeometry x="40" y="40" width="1" height="18" as="geometry" />
        </mxCell>
        <mxCell id="217" value="" style="ellipse;strokeColor=none;fillColor=#316dc1;editable=0;connectable=0;resizable=0;rotatable=0;cloneable=0;movable=0;deletable=0;part=1;" parent="214" vertex="1">
          <mxGeometry x="38" y="58" width="5" height="5" as="geometry" />
        </mxCell>
        <mxCell id="218" value="" style="text;html=1;fontSize=10;fontFamily=Red Hat Text;fontColor=#4C4C4C;verticalAlign=top;align=center;spacing=0;editable=1;connectable=0;resizable=0;rotatable=0;cloneable=0;movable=0;deletable=0;part=1;" parent="214" vertex="1">
          <mxGeometry y="60" width="80" height="20" as="geometry" />
        </mxCell>
        <mxCell id="219" value="2" style="ellipse;strokeColor=none;fillColor=none;editable=1;connectable=0;resizable=0;rotatable=0;cloneable=0;movable=0;deletable=0;part=1;fontColor=#FFFFFF;" parent="214" vertex="1">
          <mxGeometry x="20" width="40" height="40" as="geometry" />
        </mxCell>
        <mxCell id="220" value="" style="group;connectable=0;imageAspect=0;recursiveResize=0;editable=0;resizable=0;rotatable=0;cloneable=0;" parent="1" vertex="1" connectable="0">
          <mxGeometry x="530" y="230" width="80" height="80" as="geometry" />
        </mxCell>
        <mxCell id="221" value="" style="ellipse;strokeColor=none;fillColor=#316dc1;connectable=0;movable=0;resizable=1;rotatable=0;cloneable=0;deletable=0;part=1;" parent="220" vertex="1">
          <mxGeometry x="20" width="40" height="40" as="geometry" />
        </mxCell>
        <mxCell id="222" value="" style="rect;strokeColor=none;fillColor=#316dc1;editable=0;connectable=0;resizable=0;rotatable=0;cloneable=0;movable=0;deletable=0;part=1;" parent="220" vertex="1">
          <mxGeometry x="40" y="40" width="1" height="18" as="geometry" />
        </mxCell>
        <mxCell id="223" value="" style="ellipse;strokeColor=none;fillColor=#316dc1;editable=0;connectable=0;resizable=0;rotatable=0;cloneable=0;movable=0;deletable=0;part=1;" parent="220" vertex="1">
          <mxGeometry x="38" y="58" width="5" height="5" as="geometry" />
        </mxCell>
        <mxCell id="224" value="" style="text;html=1;fontSize=10;fontFamily=Red Hat Text;fontColor=#4C4C4C;verticalAlign=top;align=center;spacing=0;editable=1;connectable=0;resizable=0;rotatable=0;cloneable=0;movable=0;deletable=0;part=1;" parent="220" vertex="1">
          <mxGeometry y="60" width="80" height="20" as="geometry" />
        </mxCell>
        <mxCell id="225" value="3" style="ellipse;strokeColor=none;fillColor=none;editable=1;connectable=0;resizable=0;rotatable=0;cloneable=0;movable=0;deletable=0;part=1;fontColor=#FFFFFF;" parent="220" vertex="1">
          <mxGeometry x="20" width="40" height="40" as="geometry" />
        </mxCell>
        <mxCell id="226" value="" style="group;connectable=0;imageAspect=0;recursiveResize=0;editable=0;resizable=0;rotatable=0;cloneable=0;" parent="1" vertex="1" connectable="0">
          <mxGeometry x="580" y="170" width="80" height="80" as="geometry" />
        </mxCell>
        <mxCell id="227" value="" style="ellipse;strokeColor=none;fillColor=#316dc1;connectable=0;movable=0;resizable=1;rotatable=0;cloneable=0;deletable=0;part=1;" parent="226" vertex="1">
          <mxGeometry x="20" width="40" height="40" as="geometry" />
        </mxCell>
        <mxCell id="228" value="" style="rect;strokeColor=none;fillColor=#316dc1;editable=0;connectable=0;resizable=0;rotatable=0;cloneable=0;movable=0;deletable=0;part=1;" parent="226" vertex="1">
          <mxGeometry x="40" y="40" width="1" height="18" as="geometry" />
        </mxCell>
        <mxCell id="229" value="" style="ellipse;strokeColor=none;fillColor=#316dc1;editable=0;connectable=0;resizable=0;rotatable=0;cloneable=0;movable=0;deletable=0;part=1;" parent="226" vertex="1">
          <mxGeometry x="38" y="58" width="5" height="5" as="geometry" />
        </mxCell>
        <mxCell id="230" value="" style="text;html=1;fontSize=10;fontFamily=Red Hat Text;fontColor=#4C4C4C;verticalAlign=top;align=center;spacing=0;editable=1;connectable=0;resizable=0;rotatable=0;cloneable=0;movable=0;deletable=0;part=1;" parent="226" vertex="1">
          <mxGeometry y="60" width="80" height="20" as="geometry" />
        </mxCell>
        <mxCell id="231" value="4" style="ellipse;strokeColor=none;fillColor=none;editable=1;connectable=0;resizable=0;rotatable=0;cloneable=0;movable=0;deletable=0;part=1;fontColor=#FFFFFF;" parent="226" vertex="1">
          <mxGeometry x="20" width="40" height="40" as="geometry" />
        </mxCell>
        <mxCell id="232" value="" style="group;connectable=0;imageAspect=0;recursiveResize=0;editable=0;resizable=0;rotatable=0;cloneable=0;" parent="1" vertex="1" connectable="0">
          <mxGeometry x="440" y="430" width="80" height="80" as="geometry" />
        </mxCell>
        <mxCell id="233" value="" style="ellipse;strokeColor=none;fillColor=#316dc1;connectable=0;movable=0;resizable=1;rotatable=0;cloneable=0;deletable=0;part=1;" parent="232" vertex="1">
          <mxGeometry x="20" width="40" height="40" as="geometry" />
        </mxCell>
        <mxCell id="234" value="" style="rect;strokeColor=none;fillColor=#316dc1;editable=0;connectable=0;resizable=0;rotatable=0;cloneable=0;movable=0;deletable=0;part=1;" parent="232" vertex="1">
          <mxGeometry x="40" y="40" width="1" height="18" as="geometry" />
        </mxCell>
        <mxCell id="235" value="" style="ellipse;strokeColor=none;fillColor=#316dc1;editable=0;connectable=0;resizable=0;rotatable=0;cloneable=0;movable=0;deletable=0;part=1;" parent="232" vertex="1">
          <mxGeometry x="38" y="58" width="5" height="5" as="geometry" />
        </mxCell>
        <mxCell id="236" value="" style="text;html=1;fontSize=10;fontFamily=Red Hat Text;fontColor=#4C4C4C;verticalAlign=top;align=center;spacing=0;editable=1;connectable=0;resizable=0;rotatable=0;cloneable=0;movable=0;deletable=0;part=1;" parent="232" vertex="1">
          <mxGeometry y="60" width="80" height="20" as="geometry" />
        </mxCell>
        <mxCell id="237" value="5" style="ellipse;strokeColor=none;fillColor=none;editable=1;connectable=0;resizable=0;rotatable=0;cloneable=0;movable=0;deletable=0;part=1;fontColor=#FFFFFF;" parent="232" vertex="1">
          <mxGeometry x="20" width="40" height="40" as="geometry" />
        </mxCell>
        <mxCell id="238" value="" style="group;allowArrows=0;dropTarget=0;recursiveResize=0;expand=0;editable=1;resizable=1;rotatable=1;cloneable=0;movable=1;deletable=1;connectable=1;" parent="1" vertex="1" connectable="0">
          <mxGeometry x="1030" y="407.5" width="204" height="125" as="geometry" />
        </mxCell>
        <mxCell id="239" value="" style="shape=image;image=data:image/svg+xml,PHN2ZyB4bWxucz0iaHR0cDovL3d3dy53My5vcmcvMjAwMC9zdmciIHdpZHRoPSIyMDBweCIgdmlld0JveD0iLTQgMCAyMDQgMTI1Ij48ZWxsaXBzZSBjeD0iMCIgY3k9IjMwIiByeD0iNCIgcnk9IjQiIGZpbGw9IiNmZmZmZmYiIHN0cm9rZT0ibm9uZSIvPjxlbGxpcHNlIGN4PSIwIiBjeT0iNjAiIHJ4PSI0IiByeT0iNCIgZmlsbD0iI2ZmZmZmZiIgc3Ryb2tlPSJub25lIi8+PGVsbGlwc2UgY3g9IjAiIGN5PSI5MCIgcng9IjQiIHJ5PSI0IiBmaWxsPSIjZmZmZmZmIiBzdHJva2U9Im5vbmUiLz48ZWxsaXBzZSBjeD0iMzMiIGN5PSIxMjEiIHJ4PSI0IiByeT0iNCIgZmlsbD0iI2NkY2VjZSIgc3Ryb2tlPSJub25lIi8+PGVsbGlwc2UgY3g9IjkwIiBjeT0iMTIxIiByeD0iNCIgcnk9IjQiIGZpbGw9IiNjZGNlY2UiIHN0cm9rZT0ibm9uZSIvPjxlbGxpcHNlIGN4PSIxNDciIGN5PSIxMjEiIHJ4PSI0IiByeT0iNCIgZmlsbD0iI2NkY2VjZSIgc3Ryb2tlPSJub25lIi8+PGc+PHJlY3QgeD0iNCIgeT0iNCIgd2lkdGg9IjE5NiIgaGVpZ2h0PSIxMTYiIGZpbGw9IiNjZGNlY2UiIHN0cm9rZT0ibm9uZSIvPjxyZWN0IHg9IjAiIHk9IjAiIHdpZHRoPSIxODAiIGhlaWdodD0iMTE2IiBmaWxsPSIjZmZmZmZmIiBzdHJva2U9Im5vbmUiLz48ZWxsaXBzZSBjeD0iMTkwIiBjeT0iMzAiIHJ4PSI0IiByeT0iNCIgZmlsbD0iI2FlYWVhZSIgc3Ryb2tlPSJub25lIi8+PGVsbGlwc2UgY3g9IjE5MCIgY3k9IjYwIiByeD0iNCIgcnk9IjQiIGZpbGw9IiNhZWFlYWUiIHN0cm9rZT0ibm9uZSIvPjxlbGxpcHNlIGN4PSIxOTAiIGN5PSI5MCIgcng9IjQiIHJ5PSI0IiBmaWxsPSIjYWVhZWFlIiBzdHJva2U9Im5vbmUiLz48L2c+PC9zdmc+;connectable=0;allowArrows=0;recursiveResize=0;expand=0;rotatable=0;cloneable=0;editable=0;movable=0;resizable=0;deletable=0;part=1;" parent="238" vertex="1">
          <mxGeometry width="204" height="125" as="geometry" />
        </mxCell>
        <mxCell id="240" value="Mangement Agent" style="whiteSpace=wrap;html=1;fillColor=#4C4C4C;strokeColor=#4C4C4C;fontColor=#FFFFFF;movable=0;resizable=0;rotatable=0;cloneable=0;deletable=0;imageAspect=0;connectable=0;recursiveResize=0;fontFamily=Red Hat Text;fontStyle=1;align=left;fontSize=12;spacingLeft=10;spacingRight=50;allowArrows=0;expand=0;part=1;" parent="238" vertex="1">
          <mxGeometry x="14" y="10" width="160" height="40" as="geometry" />
        </mxCell>
        <mxCell id="241" value="" style="shape=image;image=data:image/svg+xml,PHN2ZyB4bWxucz0iaHR0cDovL3d3dy53My5vcmcvMjAwMC9zdmciIHZpZXdCb3g9IjAgMCA0MCA0MCI+PHRpdGxlPkJsYW5rPC90aXRsZT48ZyBpZD0iZGlhZ3JhbSI+PHJlY3Qgd2lkdGg9IjEwMCUiIGhlaWdodD0iMTAwJSIgZmlsbD0iIzRjNGM0YyIvPjwvZz48L3N2Zz4=;recursiveResize=0;editable=0;resizable=0;rotatable=0;cloneable=0;imageAspect=0;connectable=0;movable=1;fontFamily=Helvetica;fontSize=12;fontColor=#000000;align=center;strokeColor=#000000;fillColor=#ffffff;part=1;" parent="238" vertex="1">
          <mxGeometry x="134" y="10" width="40" height="40" as="geometry" />
        </mxCell>
        <mxCell id="242" value="RHACM" style="whiteSpace=wrap;html=1;fillColor=none;strokeColor=none;align=left;fontFamily=Red Hat Text;fontSize=11;fontStyle=0;verticalAlign=bottom;fontColor=#595959;movable=0;rotatable=0;cloneable=0;deletable=1;connectable=0;imageAspect=0;recursiveResize=0;resizable=0;allowArrows=0;expand=0;part=1;" parent="238" vertex="1">
          <mxGeometry x="14" y="58" width="130" height="48" as="geometry" />
        </mxCell>
        <mxCell id="243" value="x?" style="whiteSpace=wrap;html=1;fillColor=none;strokeColor=none;align=right;fontFamily=Red Hat Text;fontSize=10;fontStyle=1;verticalAlign=bottom;fontColor=#595959;movable=0;resizable=0;rotatable=0;cloneable=0;deletable=1;connectable=0;recursiveResize=0;allowArrows=0;expand=0;part=1;" parent="238" vertex="1">
          <mxGeometry x="144" y="76" width="30" height="30" as="geometry" />
        </mxCell>
        <mxCell id="244" value="" style="ellipse;allowArrows=1;editable=0;movable=0;resizable=0;rotatable=0;cloneable=0;deletable=0;fillColor=none;strokeColor=none;connectable=1;part=1;perimeter=none;points=[[0,0,0]];snapToPoint=1;" parent="238" vertex="1">
          <mxGeometry x="4" y="30" width="1" height="1" as="geometry" />
        </mxCell>
        <mxCell id="245" value="" style="ellipse;allowArrows=1;editable=0;movable=0;resizable=0;rotatable=0;cloneable=0;deletable=0;fillColor=none;strokeColor=none;connectable=1;part=1;perimeter=none;points=[[0,0,0]];snapToPoint=1;" parent="238" vertex="1">
          <mxGeometry x="4" y="60" width="1" height="1" as="geometry" />
        </mxCell>
        <mxCell id="246" value="" style="ellipse;allowArrows=1;editable=0;movable=0;resizable=0;rotatable=0;cloneable=0;deletable=0;fillColor=none;strokeColor=none;connectable=1;part=1;perimeter=none;points=[[0,0,0]];snapToPoint=1;" parent="238" vertex="1">
          <mxGeometry x="4" y="90" width="1" height="1" as="geometry" />
        </mxCell>
        <mxCell id="247" value="" style="ellipse;allowArrows=1;editable=0;movable=0;resizable=0;rotatable=0;cloneable=0;deletable=0;fillColor=none;strokeColor=none;connectable=1;part=1;perimeter=none;points=[[0,0,0]];snapToPoint=1;" parent="238" vertex="1">
          <mxGeometry x="37" y="121" width="1" height="1" as="geometry" />
        </mxCell>
        <mxCell id="248" value="" style="ellipse;allowArrows=1;editable=0;movable=0;resizable=0;rotatable=0;cloneable=0;deletable=0;fillColor=none;strokeColor=none;connectable=1;part=1;perimeter=none;points=[[0,0,0]];snapToPoint=1;" parent="238" vertex="1">
          <mxGeometry x="94" y="121" width="1" height="1" as="geometry" />
        </mxCell>
        <mxCell id="249" value="" style="ellipse;allowArrows=1;editable=0;movable=0;resizable=0;rotatable=0;cloneable=0;deletable=0;fillColor=none;strokeColor=none;connectable=1;part=1;perimeter=none;points=[[0,0,0]];snapToPoint=1;" parent="238" vertex="1">
          <mxGeometry x="151" y="121" width="1" height="1" as="geometry" />
        </mxCell>
        <mxCell id="250" value="" style="ellipse;allowArrows=1;editable=0;movable=0;resizable=0;rotatable=0;cloneable=0;deletable=0;fillColor=none;strokeColor=none;connectable=1;part=1;perimeter=none;points=[[0,0,0]];snapToPoint=1;" parent="238" vertex="1">
          <mxGeometry x="194" y="30" width="1" height="1" as="geometry" />
        </mxCell>
        <mxCell id="251" value="" style="ellipse;allowArrows=1;editable=0;movable=0;resizable=0;rotatable=0;cloneable=0;deletable=0;fillColor=none;strokeColor=none;connectable=1;part=1;perimeter=none;points=[[0,0,0]];snapToPoint=1;" parent="238" vertex="1">
          <mxGeometry x="194" y="60" width="1" height="1" as="geometry" />
        </mxCell>
        <mxCell id="252" value="" style="ellipse;allowArrows=1;editable=0;movable=0;resizable=0;rotatable=0;cloneable=0;deletable=0;fillColor=none;strokeColor=none;connectable=1;part=1;perimeter=none;points=[[0,0,0]];snapToPoint=1;" parent="238" vertex="1">
          <mxGeometry x="194" y="90" width="1" height="1" as="geometry" />
        </mxCell>
        <mxCell id="253" style="edgeStyle=elbowEdgeStyle;rounded=0;orthogonalLoop=1;jettySize=auto;html=1;exitX=0;exitY=0;exitDx=0;exitDy=0;exitPerimeter=0;jumpStyle=arc;entryX=0;entryY=0.75;entryDx=0;entryDy=0;strokeWidth=2;dashed=1;endArrow=none;endFill=0;" parent="1" source="190" target="117" edge="1">
          <mxGeometry relative="1" as="geometry">
            <mxPoint x="1380" y="340" as="targetPoint" />
            <Array as="points">
              <mxPoint x="1290" y="460" />
            </Array>
          </mxGeometry>
        </mxCell>
        <mxCell id="254" value="resilient RWX storage&lt;br&gt;for live migration&amp;nbsp;" style="edgeLabel;html=1;align=center;verticalAlign=middle;resizable=0;points=[];fontSize=15;labelBackgroundColor=#e4e4e5;" parent="253" vertex="1" connectable="0">
          <mxGeometry x="-0.8087" relative="1" as="geometry">
            <mxPoint x="10" y="20" as="offset" />
          </mxGeometry>
        </mxCell>
        <mxCell id="jGl1cNbcaM1yoke2-vTR-254" value="" style="shape=image;verticalLabelPosition=bottom;labelBackgroundColor=default;verticalAlign=top;aspect=fixed;imageAspect=0;image=data:image/svg+xml,PHN2ZyB2aWV3Qm94PSIwIDAgNTUxLjIgMTQ0LjYiIHZlcnNpb249IjEuMSIgeG1sbnM9Imh0dHA6Ly93d3cudzMub3JnLzIwMDAvc3ZnIiBkYXRhLW5hbWU9IkxheWVyIDEiIGlkPSJMYXllcl8xIj4mI3hhOyAgPGRlZnM+JiN4YTsgICAgPHN0eWxlPiYjeGE7ICAgICAgLmNscy0xIHsmI3hhOyAgICAgICAgaXNvbGF0aW9uOiBpc29sYXRlOyYjeGE7ICAgICAgICBvcGFjaXR5OiAuMjsmI3hhOyAgICAgIH0mI3hhOyYjeGE7ICAgICAgLmNscy0xLCAuY2xzLTIsIC5jbHMtMywgLmNscy00IHsmI3hhOyAgICAgICAgc3Ryb2tlLXdpZHRoOiAwcHg7JiN4YTsgICAgICB9JiN4YTsmI3hhOyAgICAgIC5jbHMtMSwgLmNscy00IHsmI3hhOyAgICAgICAgZmlsbDogI2ZmZjsmI3hhOyAgICAgIH0mI3hhOyYjeGE7ICAgICAgLmNscy0yIHsmI3hhOyAgICAgICAgZmlsbDogIzAwMDsmI3hhOyAgICAgIH0mI3hhOyYjeGE7ICAgICAgLmNscy0zIHsmI3hhOyAgICAgICAgZmlsbDogIzAwZDE1ZjsmI3hhOyAgICAgIH0mI3hhOyAgICA8L3N0eWxlPiYjeGE7ICA8L2RlZnM+JiN4YTsgIDxwb2x5Z29uIHBvaW50cz0iMzM5LjIgNDYuNSAzMTYuMSA3MC42IDMxNi4xIDQ2LjUgMzA4LjkgNDYuNSAzMDguOSA5OS4xIDMxNi4xIDk5LjEgMzE2LjEgNzIuMyAzMzkuMiA5OS4xIDM0OC42IDk5LjEgMzI0LjUgNzEuNiAzNDguOSA0Ni41IDMzOS4yIDQ2LjUiIGNsYXNzPSJjbHMtMiIvPiYjeGE7ICA8cGF0aCBkPSJNMzc4LjEsNjQuM2MtMi44LTEuNS01LjctMi4yLTguOS0yLjJzLTYuNS44LTkuMywyLjVjLTIuOCwxLjctNSwzLjktNi42LDYuOHMtMi40LDYuMS0yLjQsOS42LjgsNi44LDIuMyw5LjdjMS41LDIuOSwzLjYsNS4xLDYuMyw2LjcsMi42LDEuNiw1LjYsMi40LDguOSwyLjRzNC4xLS41LDYuMi0xLjQsMy44LTIuMyw1LjMtNC4xYy4yLS4zLjQtLjYuNi0uOWwuNiw1LjdoNi4zdi0xOC4xYzAtMy45LS44LTcuMi0yLjUtMTAuMS0xLjYtMi45LTMuOS01LTYuNi02LjVoLS4yWk0zNzguNiw4Ny41Yy0xLDEuOS0yLjQsMy4zLTQsNC4zcy0zLjQsMS41LTUuMywxLjUtNC4xLS41LTUuOC0xLjZjLTEuNy0xLTMtMi41LTQtNC40cy0xLjQtNC0xLjQtNi40LjUtNC42LDEuNS02LjRjMS0xLjksMi40LTMuMyw0LjEtNC40LDEuNy0xLDMuNi0xLjYsNS42LTEuNnMzLjcuNSw1LjQsMS41YzEuNywxLDMsMi40LDQsNC4yLDEsMS45LDEuNSw0LjEsMS41LDYuN3MtLjUsNC43LTEuNSw2LjVoLS4xWiIgY2xhc3M9ImNscy0yIi8+JiN4YTsgIDxwYXRoIGQ9Ik00MTUuNSw4MC40Yy0xLjYtLjgtMy42LTEuNS02LTIuMS0yLjYtLjgtNC41LTEuNi01LjgtMi4zLTEuMi0uNy0xLjgtMS44LTEuOC0zLjJzLjUtMi41LDEuNS0zLjMsMi4zLTEuMiwzLjktMS4yLDMuMS41LDQuMSwxLjRjMS4xLjksMS43LDIuMywyLDRoNy4xYy0uNC0zLjYtMS43LTYuNC00LjEtOC40cy01LjQtMy05LjEtMy00LjkuNS02LjgsMS41LTMuMywyLjMtNC4zLDMuOS0xLjUsMy4zLTEuNSw1LjEuNSw0LjMsMS43LDUuN2MxLjEsMS40LDIuNSwyLjUsNCwzLjMsMS42LjgsMy42LDEuNSw2LDIuMiwyLjYuOCw0LjYsMS41LDUuOCwyLjNzMS45LDEuOSwxLjksMy40LS41LDIuMi0xLjUsMy0yLjUsMS4yLTQuNCwxLjItMy40LS41LTQuOC0xLjYtMi4xLTIuNS0yLjMtNC4zaC03LjFjLjEsMi40LjgsNC41LDIsNi4zczIuOSwzLjIsNSw0LjIsNC41LDEuNSw3LjEsMS41LDQuNy0uNCw2LjctMS4zLDMuNS0yLjEsNC43LTMuN2MxLjEtMS42LDEuNy0zLjMsMS43LTUuM3MtLjUtNC40LTEuNy01LjhjLTEuMS0xLjUtMi41LTIuNi00LjEtMy4zaDB2LS4yWiIgY2xhc3M9ImNscy0yIi8+JiN4YTsgIDxwYXRoIGQ9Ik00MzUuNCw1MC44aC03LjJ2MzYuNmMwLDIuNS42LDQuNywxLjcsNi41czIuNiwzLjIsNC40LDQuMiw0LDEuNCw2LjQsMS40LDMuMS0uMiw0LjYtLjV2LTUuOWgtMi43Yy0xLjcsMC0zLjEtLjItNC4xLS42LTEuMS0uNC0xLjgtMS4xLTIuNC0yLS41LS45LS44LTIuMy0uOC00di0xNy42aDEwLjV2LTZoLTEwLjV2LTEyLjFoLjFaIiBjbGFzcz0iY2xzLTIiLz4mI3hhOyAgPHBhdGggZD0iTTQ3Ny4yLDY0LjZjLTIuNi0xLjctNS41LTIuNS04LjctMi41cy02LjYuOC05LjQsMi40Yy0yLjgsMS42LTUsMy44LTYuNSw2LjctMS41LDIuOS0yLjMsNi4xLTIuMyw5LjhzLjgsNi45LDIuNCw5LjgsMy44LDUuMSw2LjUsNi43LDUuOSwyLjQsOS40LDIuNCw3LjQtMS4xLDEwLjMtMy4yYzMtMi4xLDUtNC45LDYuMS04LjRoLTcuM2MtLjgsMS43LTEuOSwzLTMuNCwzLjhzLTMuNCwxLjMtNS43LDEuMy01LjktMS4yLTgtMy40Yy0xLjUtMS43LTIuNS0zLjctMi45LTYuMWgyOC4xYy4xLS43LjEtMS43LjEtMi44LDAtMy41LS44LTYuNy0yLjMtOS42cy0zLjYtNS4yLTYuMy02LjhoLS4xWk00NTcuNiw3Ny45Yy40LTIuMywxLjQtNC4yLDIuOC01LjgsMi4xLTIuMyw0LjctMy40LDgtMy40czMuNS41LDUuMSwxLjQsMi43LDIuMiwzLjYsMy44Yy43LDEuMywxLjEsMi43LDEuMyw0LjFoLTIwLjhaIiBjbGFzcz0iY2xzLTIiLz4mI3hhOyAgPHBhdGggZD0iTTUyMi4yLDY5LjZjLTEuMy0yLjQtMy4xLTQuMi01LjUtNS41LTIuNC0xLjMtNS4xLTItOC4zLTJzLTUuOS43LTguMywyYy0yLjQsMS4zLTQuMiwzLjItNS41LDUuNS0xLjMsMi40LTEuOSw1LjEtMS45LDh2MjEuNGg3LjF2LTIwLjljMC0zLC43LTUuNCwyLjItNy4xLDEuNC0xLjcsMy42LTIuNSw2LjQtMi41czUsLjgsNi40LDIuNSwyLjIsNCwyLjIsNy4xdjIwLjloNy4xdi0yMS40YzAtMy0uNi01LjctMS45LThoMFoiIGNsYXNzPSJjbHMtMiIvPiYjeGE7ICA8Zz4mI3hhOyAgICA8cGF0aCBkPSJNNDcuNywzOC41bC0xMy4yLDEzLjJjLTEuNiwxLjYtMi41LDMuOS0yLjUsNi4ydjU1LjdoMjM2LjhjMi4zLDAsNC41LS45LDYuMi0yLjZsMTMtMTMuMWMxLjYtMS42LDIuNS0zLjksMi41LTYuMnYtNTUuOEg1My45Yy0yLjMsMC00LjUuOS02LjIsMi42aDBaIiBjbGFzcz0iY2xzLTMiLz4mI3hhOyAgICA8cGF0aCBkPSJNMjI2LDM1LjlsLTYxLjIsNjEuMWMtMTAuNiwxMC42LTI0LjksMTYuNS0zOS45LDE2LjVIMzJ2LTQ5LjJoMGwzMS40LDMxLjNjNC42LDQuNiwxMS45LDQuNSwxNi41LDBsNTkuNy01OS43czg2LjQsMCw4Ni40LDBaIiBjbGFzcz0iY2xzLTEiLz4mI3hhOyAgICA8cGF0aCBkPSJNNjguMiw5My40bC0xNy45LTM3LjNoOHMxMi44LDI2LjcsMTMuMSwyOC4xaC4yYy4zLTEuMywxMy4xLTI4LjEsMTMuMS0yOC4xaDguMWwtMTcuOSwzNy4zaC02LjguMVoiIGNsYXNzPSJjbHMtNCIvPiYjeGE7ICAgIDxwYXRoIGQ9Ik0xMjcuNSw3Ny42aC0yOC45YzEsNi4xLDUuNSw5LjksMTEuMyw5LjlzNy44LTEuOCw5LjQtNS4zaDcuNWMtMi4yLDcuMS04LjcsMTItMTYuOSwxMnMtMTguOC03LjktMTguOC0xOS41LDcuOC0xOS41LDE4LjgtMTkuNSwxNy45LDguNCwxNy45LDE5LjUsMCwxLjgtLjIsMi45aC0uMVpNOTguNiw3MS42aDIxLjRjLS41LTUuMS00LjYtOS42LTEwLjMtOS42cy0xMC4xLDMuOC0xMS4yLDkuNmgwWiIgY2xhc3M9ImNscy00Ii8+JiN4YTsgICAgPHBhdGggZD0iTTE2Ny4yLDc3LjZoLTI4LjljMSw2LjEsNS41LDkuOSwxMS4zLDkuOXM3LjgtMS44LDkuNC01LjNoNy41Yy0yLjIsNy4xLTguNywxMi0xNi45LDEycy0xOC44LTcuOS0xOC44LTE5LjUsNy44LTE5LjUsMTguOC0xOS41LDE3LjksOC40LDE3LjksMTkuNSwwLDEuOC0uMiwyLjloLS4xWk0xMzguMyw3MS42aDIxLjRjLS41LTUuMS00LjYtOS42LTEwLjMtOS42cy0xMCwzLjgtMTEuMiw5LjZoLjFaIiBjbGFzcz0iY2xzLTQiLz4mI3hhOyAgICA8cGF0aCBkPSJNMjA3LjcsNzQuN3YxOC43aC02LjVsLS42LTUuOGMtMi45LDQuMy03LjksNi42LTEyLjQsNi42LTEwLjIsMC0xNy45LTguMS0xNy45LTE5LjVzOC4zLTE5LjUsMTguOS0xOS41LDE4LjYsNywxOC42LDE5LjVoLS4xWk0yMDAuNCw3NC43YzAtOC4yLTUuNC0xMi44LTExLjMtMTIuOHMtMTEuNiw1LjEtMTEuNiwxMi44LDQuOCwxMi44LDExLjYsMTIuOCwxMS4zLTQuOCwxMS4zLTEyLjhaIiBjbGFzcz0iY2xzLTQiLz4mI3hhOyAgICA8cGF0aCBkPSJNMjEyLjcsOTMuNHYtMjIuMWMwLTkuMyw2LTE2LDE1LjMtMTZzMTEuNSw1LDEyLDYuOGguMmMuNS0xLjgsNC42LTYuOCwxMi02LjhzMTUuMyw2LjcsMTUuMywxNnYyMi4xaC03LjN2LTIxLjVjMC02LjEtMi43LTkuNy04LjItOS43cy04LjIsMy43LTguMiw5Ljl2MjEuNGgtNy4zdi0yMS40YzAtNi4yLTIuNy05LjktOC4yLTkuOXMtOC4yLDMuNy04LjIsOS43djIxLjVoLTcuNFoiIGNsYXNzPSJjbHMtNCIvPiYjeGE7ICA8L2c+JiN4YTs8L3N2Zz4=;" vertex="1" parent="1">
          <mxGeometry x="1060" y="323" width="133" height="35" as="geometry" />
        </mxCell>
        <mxCell id="jGl1cNbcaM1yoke2-vTR-255" style="edgeStyle=orthogonalEdgeStyle;rounded=0;orthogonalLoop=1;jettySize=auto;html=1;exitX=0;exitY=0;exitDx=0;exitDy=0;exitPerimeter=0;entryX=0;entryY=0;entryDx=0;entryDy=0;endArrow=none;endFill=0;dashed=1;strokeWidth=2;entryPerimeter=0;fillColor=#d5e8d4;strokeColor=#5ecd6c;" edge="1" parent="1" source="99" target="189">
          <mxGeometry relative="1" as="geometry">
            <Array as="points">
              <mxPoint x="1250" y="330" />
              <mxPoint x="1250" y="620" />
            </Array>
            <mxPoint x="1328" y="352" as="sourcePoint" />
            <mxPoint x="1810" y="258" as="targetPoint" />
          </mxGeometry>
        </mxCell>
        <mxCell id="jGl1cNbcaM1yoke2-vTR-256" style="edgeStyle=orthogonalEdgeStyle;rounded=0;orthogonalLoop=1;jettySize=auto;html=1;entryX=0;entryY=0;entryDx=0;entryDy=0;endArrow=none;endFill=0;dashed=1;strokeWidth=2;entryPerimeter=0;fillColor=#d5e8d4;strokeColor=#5ecd6c;" edge="1" parent="1" target="85">
          <mxGeometry relative="1" as="geometry">
            <Array as="points">
              <mxPoint x="1270" y="330" />
              <mxPoint x="1270" y="910" />
            </Array>
            <mxPoint x="1230" y="330" as="sourcePoint" />
            <mxPoint x="878" y="630" as="targetPoint" />
          </mxGeometry>
        </mxCell>
        <mxCell id="jGl1cNbcaM1yoke2-vTR-276" value="" style="group;allowArrows=0;dropTarget=0;recursiveResize=0;expand=0;editable=1;resizable=1;rotatable=1;cloneable=0;fillColor=#ffffff;gradientColor=none;opacity=20;movable=1;deletable=1;connectable=1;" vertex="1" connectable="0" parent="1">
          <mxGeometry x="10" y="645" width="204" height="125" as="geometry" />
        </mxCell>
        <mxCell id="jGl1cNbcaM1yoke2-vTR-277" value="" style="shape=image;image=data:image/svg+xml,PHN2ZyB4bWxucz0iaHR0cDovL3d3dy53My5vcmcvMjAwMC9zdmciIHdpZHRoPSIyMDBweCIgdmlld0JveD0iLTQgMCAyMDQgMTI1Ij48ZWxsaXBzZSBjeD0iMCIgY3k9IjMwIiByeD0iNCIgcnk9IjQiIGZpbGw9IiNmZmZmZmYiIHN0cm9rZT0ibm9uZSIvPjxlbGxpcHNlIGN4PSIwIiBjeT0iNjAiIHJ4PSI0IiByeT0iNCIgZmlsbD0iI2ZmZmZmZiIgc3Ryb2tlPSJub25lIi8+PGVsbGlwc2UgY3g9IjAiIGN5PSI5MCIgcng9IjQiIHJ5PSI0IiBmaWxsPSIjZmZmZmZmIiBzdHJva2U9Im5vbmUiLz48ZWxsaXBzZSBjeD0iMzMiIGN5PSIxMjEiIHJ4PSI0IiByeT0iNCIgZmlsbD0iI2NkY2VjZSIgc3Ryb2tlPSJub25lIi8+PGVsbGlwc2UgY3g9IjkwIiBjeT0iMTIxIiByeD0iNCIgcnk9IjQiIGZpbGw9IiNjZGNlY2UiIHN0cm9rZT0ibm9uZSIvPjxlbGxpcHNlIGN4PSIxNDciIGN5PSIxMjEiIHJ4PSI0IiByeT0iNCIgZmlsbD0iI2NkY2VjZSIgc3Ryb2tlPSJub25lIi8+PGc+PHJlY3QgeD0iNCIgeT0iNCIgd2lkdGg9IjE5NiIgaGVpZ2h0PSIxMTYiIGZpbGw9IiNjZGNlY2UiIHN0cm9rZT0ibm9uZSIvPjxyZWN0IHg9IjAiIHk9IjAiIHdpZHRoPSIxODAiIGhlaWdodD0iMTE2IiBmaWxsPSIjZmZmZmZmIiBzdHJva2U9Im5vbmUiLz48ZWxsaXBzZSBjeD0iMTkwIiBjeT0iMzAiIHJ4PSI0IiByeT0iNCIgZmlsbD0iI2FlYWVhZSIgc3Ryb2tlPSJub25lIi8+PGVsbGlwc2UgY3g9IjE5MCIgY3k9IjYwIiByeD0iNCIgcnk9IjQiIGZpbGw9IiNhZWFlYWUiIHN0cm9rZT0ibm9uZSIvPjxlbGxpcHNlIGN4PSIxOTAiIGN5PSI5MCIgcng9IjQiIHJ5PSI0IiBmaWxsPSIjYWVhZWFlIiBzdHJva2U9Im5vbmUiLz48L2c+PC9zdmc+;connectable=0;allowArrows=0;recursiveResize=0;expand=0;rotatable=0;cloneable=0;editable=0;movable=0;resizable=0;deletable=0;part=1;" vertex="1" parent="jGl1cNbcaM1yoke2-vTR-276">
          <mxGeometry width="204" height="125" as="geometry" />
        </mxCell>
        <mxCell id="jGl1cNbcaM1yoke2-vTR-278" value="Backup&lt;br&gt;Target" style="whiteSpace=wrap;html=1;fillColor=#4b4c4c;strokeColor=#4a4c4b;fontColor=#FFFFFF;movable=0;resizable=0;rotatable=0;cloneable=0;deletable=0;imageAspect=0;connectable=0;recursiveResize=0;fontFamily=Red Hat Text;fontStyle=1;align=left;fontSize=12;spacingLeft=10;spacingRight=50;allowArrows=0;expand=0;part=1;" vertex="1" parent="jGl1cNbcaM1yoke2-vTR-276">
          <mxGeometry x="14" y="10" width="160" height="40" as="geometry" />
        </mxCell>
        <mxCell id="jGl1cNbcaM1yoke2-vTR-280" value="Veeam Kasten&lt;br&gt;Location Profile" style="whiteSpace=wrap;html=1;fillColor=none;strokeColor=none;align=left;fontFamily=Red Hat Text;fontSize=11;fontStyle=0;verticalAlign=bottom;fontColor=#595959;movable=0;rotatable=0;cloneable=0;deletable=1;connectable=0;imageAspect=0;recursiveResize=0;resizable=0;allowArrows=0;expand=0;part=1;" vertex="1" parent="jGl1cNbcaM1yoke2-vTR-276">
          <mxGeometry x="14" y="58" width="130" height="48" as="geometry" />
        </mxCell>
        <mxCell id="jGl1cNbcaM1yoke2-vTR-281" value="" style="ellipse;allowArrows=1;editable=0;movable=0;resizable=0;rotatable=0;cloneable=0;deletable=0;fillColor=none;strokeColor=none;connectable=1;part=1;perimeter=none;points=[[0,0,0]];snapToPoint=1;" vertex="1" parent="jGl1cNbcaM1yoke2-vTR-276">
          <mxGeometry x="4" y="30" width="1" height="1" as="geometry" />
        </mxCell>
        <mxCell id="jGl1cNbcaM1yoke2-vTR-282" value="" style="ellipse;allowArrows=1;editable=0;movable=0;resizable=0;rotatable=0;cloneable=0;deletable=0;fillColor=none;strokeColor=none;connectable=1;part=1;perimeter=none;points=[[0,0,0]];snapToPoint=1;" vertex="1" parent="jGl1cNbcaM1yoke2-vTR-276">
          <mxGeometry x="4" y="60" width="1" height="1" as="geometry" />
        </mxCell>
        <mxCell id="jGl1cNbcaM1yoke2-vTR-283" value="" style="ellipse;allowArrows=1;editable=0;movable=0;resizable=0;rotatable=0;cloneable=0;deletable=0;fillColor=none;strokeColor=none;connectable=1;part=1;perimeter=none;points=[[0,0,0]];snapToPoint=1;" vertex="1" parent="jGl1cNbcaM1yoke2-vTR-276">
          <mxGeometry x="4" y="90" width="1" height="1" as="geometry" />
        </mxCell>
        <mxCell id="jGl1cNbcaM1yoke2-vTR-284" value="" style="ellipse;allowArrows=1;editable=0;movable=0;resizable=0;rotatable=0;cloneable=0;deletable=0;fillColor=none;strokeColor=none;connectable=1;part=1;perimeter=none;points=[[0,0,0]];snapToPoint=1;" vertex="1" parent="jGl1cNbcaM1yoke2-vTR-276">
          <mxGeometry x="37" y="121" width="1" height="1" as="geometry" />
        </mxCell>
        <mxCell id="jGl1cNbcaM1yoke2-vTR-285" value="" style="ellipse;allowArrows=1;editable=0;movable=0;resizable=0;rotatable=0;cloneable=0;deletable=0;fillColor=none;strokeColor=none;connectable=1;part=1;perimeter=none;points=[[0,0,0]];snapToPoint=1;" vertex="1" parent="jGl1cNbcaM1yoke2-vTR-276">
          <mxGeometry x="94" y="121" width="1" height="1" as="geometry" />
        </mxCell>
        <mxCell id="jGl1cNbcaM1yoke2-vTR-286" value="" style="ellipse;allowArrows=1;editable=0;movable=0;resizable=0;rotatable=0;cloneable=0;deletable=0;fillColor=none;strokeColor=none;connectable=1;part=1;perimeter=none;points=[[0,0,0]];snapToPoint=1;" vertex="1" parent="jGl1cNbcaM1yoke2-vTR-276">
          <mxGeometry x="151" y="121" width="1" height="1" as="geometry" />
        </mxCell>
        <mxCell id="jGl1cNbcaM1yoke2-vTR-287" value="" style="ellipse;allowArrows=1;editable=0;movable=0;resizable=0;rotatable=0;cloneable=0;deletable=0;fillColor=none;strokeColor=none;connectable=1;part=1;perimeter=none;points=[[0,0,0]];snapToPoint=1;" vertex="1" parent="jGl1cNbcaM1yoke2-vTR-276">
          <mxGeometry x="194" y="30" width="1" height="1" as="geometry" />
        </mxCell>
        <mxCell id="jGl1cNbcaM1yoke2-vTR-288" value="" style="ellipse;allowArrows=1;editable=0;movable=0;resizable=0;rotatable=0;cloneable=0;deletable=0;fillColor=none;strokeColor=none;connectable=1;part=1;perimeter=none;points=[[0,0,0]];snapToPoint=1;" vertex="1" parent="jGl1cNbcaM1yoke2-vTR-276">
          <mxGeometry x="194" y="60" width="1" height="1" as="geometry" />
        </mxCell>
        <mxCell id="jGl1cNbcaM1yoke2-vTR-289" value="" style="ellipse;allowArrows=1;editable=0;movable=0;resizable=0;rotatable=0;cloneable=0;deletable=0;fillColor=none;strokeColor=none;connectable=1;part=1;perimeter=none;points=[[0,0,0]];snapToPoint=1;" vertex="1" parent="jGl1cNbcaM1yoke2-vTR-276">
          <mxGeometry x="194" y="90" width="1" height="1" as="geometry" />
        </mxCell>
        <mxCell id="jGl1cNbcaM1yoke2-vTR-304" value="" style="sketch=0;outlineConnect=0;fontColor=#232F3E;gradientColor=none;fillColor=#FFFFFF;strokeColor=none;dashed=0;verticalLabelPosition=bottom;verticalAlign=top;align=center;html=1;fontSize=12;fontStyle=0;aspect=fixed;pointerEvents=1;shape=mxgraph.aws4.bucket;" vertex="1" parent="1">
          <mxGeometry x="150" y="660" width="27.5" height="28.6" as="geometry" />
        </mxCell>
        <mxCell id="jGl1cNbcaM1yoke2-vTR-305" style="edgeStyle=orthogonalEdgeStyle;rounded=0;orthogonalLoop=1;jettySize=auto;html=1;entryX=0;entryY=0;entryDx=0;entryDy=0;endArrow=none;endFill=0;dashed=1;strokeWidth=2;entryPerimeter=0;fillColor=#d5e8d4;strokeColor=#5ecd6c;exitX=0;exitY=0.75;exitDx=0;exitDy=0;" edge="1" parent="1" source="88" target="jGl1cNbcaM1yoke2-vTR-289">
          <mxGeometry relative="1" as="geometry">
            <Array as="points">
              <mxPoint x="1030" y="360" />
              <mxPoint x="950" y="360" />
              <mxPoint x="950" y="570" />
              <mxPoint x="240" y="570" />
              <mxPoint x="240" y="735" />
            </Array>
            <mxPoint x="1240" y="340" as="sourcePoint" />
            <mxPoint x="1124" y="920" as="targetPoint" />
          </mxGeometry>
        </mxCell>
      </root>
    </mxGraphModel>
  </diagram>
</mxfile>
